%TF.GenerationSoftware,Altium Limited,Altium Designer,26.2.0 (7)*%
G04 Layer_Color=0*
%FSLAX45Y45*%
%MOMM*%
%TF.SameCoordinates,967EC996-BA40-4DDD-8038-9AD993A35BAC*%
%TF.FilePolarity,Positive*%
%TF.FileFunction,Plated,1,6,PTH,Drill*%
%TF.Part,Single*%
G01*
G75*
%TA.AperFunction,ComponentDrill*%
%ADD101C,0.75000*%
%ADD102C,1.20000*%
%ADD103C,1.85000*%
%ADD104C,1.10000*%
%TA.AperFunction,OtherDrill,Pad Free-1 (45.466mm,3.556mm)*%
%ADD105C,3.20000*%
%TA.AperFunction,OtherDrill,Pad Free-1 (3.5mm,53.5mm)*%
%ADD106C,3.20000*%
%TA.AperFunction,OtherDrill,Pad Free-1 (45.5mm,53.5mm)*%
%ADD107C,3.20000*%
%TA.AperFunction,OtherDrill,Pad Free-3 (3.5mm,3.5mm)*%
%ADD108C,3.20000*%
%TA.AperFunction,ViaDrill,NotFilled*%
%ADD109C,0.30000*%
%ADD110C,0.50000*%
%ADD111C,0.70000*%
%ADD112C,0.40000*%
%ADD113C,0.80000*%
D101*
X1638300Y4406900D02*
D03*
Y4606900D02*
D03*
D102*
X635000Y4064000D02*
D03*
Y4445000D02*
D03*
D103*
X1917700Y5283200D02*
D03*
X2387700D02*
D03*
X1447700D02*
D03*
D104*
X723900Y1816100D02*
D03*
Y3086100D02*
D03*
Y2324100D02*
D03*
Y1562100D02*
D03*
Y1308100D02*
D03*
Y2578100D02*
D03*
Y2070100D02*
D03*
Y3340100D02*
D03*
Y2832100D02*
D03*
D105*
X4546600Y355600D02*
D03*
D106*
X350000Y5350000D02*
D03*
D107*
X4550000D02*
D03*
D108*
X350000Y350000D02*
D03*
D109*
X2489200Y266700D02*
D03*
X877098Y3735998D02*
D03*
X1777098Y1935998D02*
D03*
X4477097Y4335997D02*
D03*
X1739697Y3270898D02*
D03*
X1327098Y4035998D02*
D03*
X114868Y2588934D02*
D03*
X4177097Y735999D02*
D03*
X1927097Y4035998D02*
D03*
X3092450Y571500D02*
D03*
X114868Y1826934D02*
D03*
X3086100Y1638300D02*
D03*
X1627098Y4035998D02*
D03*
X737168Y595034D02*
D03*
X4140200Y3810000D02*
D03*
X495868Y1687234D02*
D03*
X1447800Y2641600D02*
D03*
X1036068Y1675234D02*
D03*
X114868Y2830234D02*
D03*
X3733800Y1308100D02*
D03*
X1177098Y2535998D02*
D03*
X800668Y5535334D02*
D03*
X685800Y139700D02*
D03*
X4177097Y135999D02*
D03*
X356168Y734734D02*
D03*
X3454968Y1103034D02*
D03*
X3877097Y735999D02*
D03*
X877098Y4935997D02*
D03*
X114868Y2334934D02*
D03*
X2227097Y4035998D02*
D03*
X1027098D02*
D03*
X3450388Y3412235D02*
D03*
X991168Y2995334D02*
D03*
X521268Y3223934D02*
D03*
X4279900Y4013200D02*
D03*
X114868Y1547534D02*
D03*
X495868Y1953934D02*
D03*
X277098Y4335997D02*
D03*
X4477097Y735999D02*
D03*
X1436848Y1571048D02*
D03*
X277098Y4935997D02*
D03*
X521268Y2690534D02*
D03*
X368868Y3528734D02*
D03*
X4477097Y4935997D02*
D03*
X4699000Y4165600D02*
D03*
X3162868Y5217834D02*
D03*
X497004Y2966201D02*
D03*
X114868Y3350934D02*
D03*
X2527097Y4035998D02*
D03*
X1308668Y2957234D02*
D03*
X470468Y1103034D02*
D03*
X114868Y2080934D02*
D03*
X2845368Y4125634D02*
D03*
X577098Y4935997D02*
D03*
X427098Y4035998D02*
D03*
X2273300Y558800D02*
D03*
X2827097Y5235997D02*
D03*
X495868Y2207934D02*
D03*
X2628900Y558800D02*
D03*
X2985068Y5573434D02*
D03*
X1816100Y584200D02*
D03*
X1943100Y2616200D02*
D03*
X1156268Y2182534D02*
D03*
X496436Y2460067D02*
D03*
X114868Y3096934D02*
D03*
X991168Y925234D02*
D03*
X4027097Y5235997D02*
D03*
X508568Y1420534D02*
D03*
X4663877Y3602534D02*
D03*
X4463474Y3362127D02*
D03*
X4676577Y3373934D02*
D03*
X4447977Y1253034D02*
D03*
X4651177Y1481634D02*
D03*
X4663877Y1253034D02*
D03*
X3632200Y165100D02*
D03*
X3644900Y355600D02*
D03*
X3403600Y381000D02*
D03*
X1247577Y176648D02*
D03*
X1494976Y96687D02*
D03*
X1495623Y356687D02*
D03*
X1247577Y436648D02*
D03*
X4584700Y1981200D02*
D03*
X4368800Y2870200D02*
D03*
X3556000Y2565400D02*
D03*
X3670300Y5295900D02*
D03*
X3060700Y3873500D02*
D03*
X4114800Y965200D02*
D03*
X4241800Y2209800D02*
D03*
X2670176Y1123272D02*
D03*
X2641600Y3352800D02*
D03*
X2451100Y1981200D02*
D03*
X3390900Y3073400D02*
D03*
X2133600Y2349500D02*
D03*
X2028273Y3455859D02*
D03*
X2247900Y3022600D02*
D03*
X965200Y3187700D02*
D03*
X1536700Y3035300D02*
D03*
X1727200Y2603500D02*
D03*
X1282700Y3365500D02*
D03*
X2679700Y2540000D02*
D03*
X2946400D02*
D03*
X2038232Y1675128D02*
D03*
X1917224Y1479766D02*
D03*
X2700794Y1557481D02*
D03*
X2932036Y1834913D02*
D03*
X2578101Y1731882D02*
D03*
X2343770Y1500080D02*
D03*
X2096526Y1278066D02*
D03*
X2368432Y1688420D02*
D03*
X2679700Y977900D02*
D03*
X2324100Y990600D02*
D03*
X2641600Y2220060D02*
D03*
X2959100D02*
D03*
X1587500Y952500D02*
D03*
X1892300D02*
D03*
X2146240Y962223D02*
D03*
X2260680Y728763D02*
D03*
X2001089Y714177D02*
D03*
X1741089D02*
D03*
X1500074Y616648D02*
D03*
X1264716Y696083D02*
D03*
X3327400Y952500D02*
D03*
X3543300Y838200D02*
D03*
X3636856Y642891D02*
D03*
X3390900Y558800D02*
D03*
X3224475Y714177D02*
D03*
X2964475D02*
D03*
X2893949Y962223D02*
D03*
X3111500Y965200D02*
D03*
X2748575Y714177D02*
D03*
X2507275D02*
D03*
X1372240Y886023D02*
D03*
X3838459Y2244266D02*
D03*
X4081645Y2152287D02*
D03*
X4208357Y1925253D02*
D03*
X4213423Y1665302D02*
D03*
X4236813Y1263281D02*
D03*
X4028066Y1418281D02*
D03*
X3965377Y1670610D02*
D03*
X3948347Y1930052D02*
D03*
X3696992Y1996539D02*
D03*
X4343400Y3606800D02*
D03*
X4205496Y3329766D02*
D03*
X4175323Y3071522D02*
D03*
Y2811522D02*
D03*
X4160633Y2551938D02*
D03*
X4008312Y2341229D02*
D03*
X3857105Y2539383D02*
D03*
X3927277Y2789734D02*
D03*
X4127500Y3568700D02*
D03*
X3911600Y2971800D02*
D03*
X3949700Y3403600D02*
D03*
X4333677Y1494334D02*
D03*
X4397177Y2421434D02*
D03*
X4638477Y2573834D02*
D03*
X4778177Y745034D02*
D03*
X3711377Y1710234D02*
D03*
X3278677Y1380034D02*
D03*
X3262861Y2288080D02*
D03*
X3205440Y2677831D02*
D03*
X3216246Y2470088D02*
D03*
X2667000Y2908300D02*
D03*
X1765300Y1549400D02*
D03*
X1752600Y1079500D02*
D03*
X3175000Y5486400D02*
D03*
X2463800Y2794000D02*
D03*
X3067341Y2794111D02*
D03*
X3277684Y2208716D02*
D03*
X3388209Y2298220D02*
D03*
X3478781Y3134748D02*
D03*
X3543300Y2971800D02*
D03*
X3289300Y3060700D02*
D03*
X2362200Y2387600D02*
D03*
D110*
X2794000Y2386720D02*
D03*
X3492500Y3632200D02*
D03*
X1905000Y3708400D02*
D03*
X3721100Y4089400D02*
D03*
X2387600Y2578100D02*
D03*
X2057400Y2933700D02*
D03*
X3721100Y3454400D02*
D03*
X3441700Y4749800D02*
D03*
X4089400Y4445000D02*
D03*
D111*
X3741035Y3801919D02*
D03*
X3759200Y4660900D02*
D03*
D112*
X1790700Y2082800D02*
D03*
X3124200Y1968500D02*
D03*
X2717800Y1943100D02*
D03*
D113*
X4089400Y4864100D02*
D03*
%TF.MD5,deb3d8554f7bc1f5fd9681d1053863c4*%
M02*
