%TF.GenerationSoftware,Altium Limited,Altium Designer,26.2.0 (7)*%
G04 Layer_Physical_Order=1*
G04 Layer_Color=255*
%FSLAX45Y45*%
%MOMM*%
%TF.SameCoordinates,967EC996-BA40-4DDD-8038-9AD993A35BAC*%
%TF.FilePolarity,Positive*%
%TF.FileFunction,Copper,L1,Top,Signal*%
%TF.Part,Single*%
G01*
G75*
%TA.AperFunction,Conductor*%
%ADD10C,0.85000*%
%ADD11C,0.29540*%
%ADD12C,0.20371*%
%ADD13C,0.25000*%
%ADD14C,0.25400*%
%TA.AperFunction,SMDPad,SMDef*%
%ADD15C,1.52400*%
%TA.AperFunction,ConnectorPad*%
%ADD16R,2.41300X5.08000*%
%ADD17R,5.08000X2.41300*%
%TA.AperFunction,SMDPad,CuDef*%
%ADD18R,1.54940X1.11760*%
%ADD19R,0.80000X0.90000*%
%ADD20R,0.90000X0.80000*%
%ADD21R,1.11760X1.54940*%
%ADD22R,1.22000X1.20000*%
%ADD23R,0.50000X1.07500*%
%ADD24R,0.80000X0.60000*%
%ADD25R,1.30000X0.75000*%
%ADD26R,0.75000X0.85000*%
%ADD27R,0.85000X0.75000*%
%ADD28R,0.75000X1.30000*%
%ADD29R,1.65000X2.38000*%
%ADD30R,0.70000X0.25000*%
G04:AMPARAMS|DCode=31|XSize=0.45mm|YSize=1.55mm|CornerRadius=0.0495mm|HoleSize=0mm|Usage=FLASHONLY|Rotation=270.000|XOffset=0mm|YOffset=0mm|HoleType=Round|Shape=RoundedRectangle|*
%AMROUNDEDRECTD31*
21,1,0.45000,1.45100,0,0,270.0*
21,1,0.35100,1.55000,0,0,270.0*
1,1,0.09900,-0.72550,-0.17550*
1,1,0.09900,-0.72550,0.17550*
1,1,0.09900,0.72550,0.17550*
1,1,0.09900,0.72550,-0.17550*
%
%ADD31ROUNDEDRECTD31*%
%ADD32C,4.18500*%
%ADD33R,0.25000X0.55000*%
%ADD34R,2.38000X1.65000*%
%ADD35R,0.25000X0.70000*%
%TA.AperFunction,ConnectorPad*%
%ADD36R,0.85000X5.08000*%
%ADD37R,5.08000X0.85000*%
%TA.AperFunction,SMDPad,CuDef*%
%ADD38R,0.70000X0.85000*%
%ADD39R,0.60000X0.80000*%
%ADD40R,7.20000X5.60000*%
%ADD41R,3.00000X1.00000*%
%ADD42R,0.55000X0.25000*%
%ADD43R,1.40000X1.70000*%
%ADD44R,0.70000X0.62000*%
%TA.AperFunction,Conductor*%
%ADD45C,0.20000*%
%TA.AperFunction,ComponentPad*%
%ADD46R,1.50000X1.50000*%
%ADD47R,2.00000X2.00000*%
%ADD48C,2.00000*%
%ADD49C,2.77500*%
%ADD50R,2.77500X2.77500*%
%ADD51C,1.50000*%
G04:AMPARAMS|DCode=52|XSize=2mm|YSize=2mm|CornerRadius=0.5mm|HoleSize=0mm|Usage=FLASHONLY|Rotation=90.000|XOffset=0mm|YOffset=0mm|HoleType=Round|Shape=RoundedRectangle|*
%AMROUNDEDRECTD52*
21,1,2.00000,1.00000,0,0,90.0*
21,1,1.00000,2.00000,0,0,90.0*
1,1,1.00000,0.50000,0.50000*
1,1,1.00000,0.50000,-0.50000*
1,1,1.00000,-0.50000,-0.50000*
1,1,1.00000,-0.50000,0.50000*
%
%ADD52ROUNDEDRECTD52*%
%TA.AperFunction,ViaPad*%
%ADD53C,6.00000*%
%ADD54C,0.60000*%
%ADD55C,0.70000*%
%ADD56C,1.10000*%
%ADD57C,1.30000*%
%ADD58C,1.50000*%
%ADD59C,0.90000*%
%ADD60C,1.60000*%
G36*
X4417170Y5641692D02*
X4404128Y5636290D01*
X4361138Y5609946D01*
X4322799Y5577201D01*
X4290054Y5538862D01*
X4263710Y5495872D01*
X4244416Y5449290D01*
X4232645Y5400264D01*
X4228690Y5350000D01*
X4232645Y5299736D01*
X4244416Y5250710D01*
X4263710Y5204128D01*
X4290054Y5161138D01*
X4322799Y5122799D01*
X4361138Y5090054D01*
X4404128Y5063710D01*
X4450710Y5044416D01*
X4499736Y5032645D01*
X4550000Y5028689D01*
X4600264Y5032645D01*
X4649290Y5044416D01*
X4695872Y5063710D01*
X4738862Y5090054D01*
X4777201Y5122799D01*
X4809946Y5161138D01*
X4836290Y5204128D01*
X4841592Y5216928D01*
X4851400Y5214977D01*
Y3548970D01*
X4837825D01*
X4837163Y3549479D01*
X4819526Y3556784D01*
X4800600Y3559276D01*
X4281892D01*
Y3559587D01*
X4234331Y3555844D01*
X4187942Y3544707D01*
X4143866Y3526450D01*
X4103188Y3501523D01*
X4066911Y3470539D01*
X4035927Y3434262D01*
X4011000Y3393584D01*
X3992743Y3349508D01*
X3981606Y3303119D01*
X3977863Y3255558D01*
X3978174D01*
Y2654300D01*
X3978305Y2653311D01*
X3974922Y2618969D01*
X3964616Y2584995D01*
X3947881Y2553685D01*
X3925358Y2526242D01*
X3897915Y2503719D01*
X3866605Y2486984D01*
X3832631Y2476678D01*
X3798289Y2473295D01*
X3797300Y2473426D01*
X3456100D01*
X3443982Y2471830D01*
X3428374Y2495188D01*
X3417220Y2506342D01*
X3410685Y2512878D01*
X3411174Y2522299D01*
X3411553Y2526152D01*
X3413998Y2527785D01*
X3567106Y2680894D01*
X3574404Y2691816D01*
X3576967Y2704700D01*
Y2927763D01*
X3583184Y2931916D01*
X3595410Y2950215D01*
X3599704Y2971800D01*
X3595410Y2993385D01*
X3583184Y3011684D01*
X3564885Y3023910D01*
X3543300Y3028204D01*
X3521715Y3023910D01*
X3517766Y3021272D01*
X3508947Y3025986D01*
Y3094384D01*
X3515060Y3098469D01*
X3526182Y3115114D01*
X3530087Y3134748D01*
X3526182Y3154382D01*
X3515060Y3171026D01*
X3498415Y3182148D01*
X3478781Y3186053D01*
X3459148Y3182148D01*
X3442503Y3171026D01*
X3431381Y3154382D01*
X3427476Y3134748D01*
X3431381Y3115114D01*
X3441613Y3099801D01*
Y2872498D01*
X3322967D01*
Y3022676D01*
X3325579Y3024421D01*
X3336700Y3041066D01*
X3340606Y3060700D01*
X3336700Y3080334D01*
X3325579Y3096979D01*
X3308934Y3108100D01*
X3289300Y3112006D01*
X3269666Y3108100D01*
X3253021Y3096979D01*
X3252698Y3096495D01*
X3246640Y3089204D01*
X3246641D01*
X3239368Y3082620D01*
X3210220D01*
Y3241980D01*
Y3452620D01*
X3208440Y3454400D01*
X2730501D01*
X2730500Y3454400D01*
Y3454401D01*
X2722570Y3459142D01*
X2445670Y3736042D01*
X2434747Y3743340D01*
X2421864Y3745903D01*
X2418963D01*
Y3814020D01*
X2207450D01*
X2203540Y3817929D01*
X2199926Y3823339D01*
X2199050Y3824650D01*
X2192329Y3829142D01*
X2192328Y3829141D01*
X2184400Y3830718D01*
X1485901D01*
X1485900Y3830718D01*
X1477972Y3829141D01*
X1471250Y3824650D01*
X1471250Y3824649D01*
X1458550Y3811950D01*
X1454059Y3805229D01*
X1452482Y3797300D01*
X1452482Y3797299D01*
Y3660981D01*
X1454059Y3653053D01*
X1458550Y3646331D01*
X1458551Y3646331D01*
X1487331Y3617550D01*
X1494053Y3613059D01*
X1501981Y3611482D01*
X1501983Y3611482D01*
X2223442D01*
X2224041Y3612081D01*
X2233280Y3608254D01*
Y3490680D01*
X2229548Y3486948D01*
Y3468988D01*
X2229480Y3468920D01*
X2229548D01*
Y3299480D01*
X2350188D01*
Y3307726D01*
X2360188Y3311868D01*
X2430133Y3241923D01*
Y2986438D01*
X2427520Y2977520D01*
X2296880D01*
Y2967118D01*
X2286002D01*
X2286000Y2967118D01*
X2278071Y2965541D01*
X2271350Y2961050D01*
X2271349Y2961049D01*
X2258650Y2948350D01*
X2257951Y2947304D01*
X2245526Y2945586D01*
X1674106Y3517006D01*
X1663184Y3524304D01*
X1660120Y3524913D01*
Y3551920D01*
X1489480D01*
Y3528567D01*
X1431520D01*
Y3551920D01*
X1260880D01*
Y3436280D01*
X1431520D01*
Y3461233D01*
X1489480D01*
Y3436280D01*
X1659608D01*
X2079567Y3016320D01*
X2079514Y3016124D01*
X2074300Y3007445D01*
X2057400Y3009670D01*
X2037737Y3007081D01*
X2019415Y2999492D01*
X2003681Y2987419D01*
X1991608Y2971685D01*
X1984018Y2953362D01*
X1981430Y2933700D01*
X1984018Y2914038D01*
X1991608Y2895715D01*
X2003681Y2879981D01*
X2019415Y2867908D01*
X2037737Y2860319D01*
X2057400Y2857730D01*
X2077062Y2860319D01*
X2095385Y2867908D01*
X2111118Y2879981D01*
X2123192Y2895715D01*
X2130781Y2914038D01*
X2133370Y2933700D01*
X2131145Y2950600D01*
X2139823Y2955814D01*
X2140020Y2955867D01*
X2259523Y2836365D01*
X2259523Y2822223D01*
X2182450Y2745150D01*
X2177959Y2738429D01*
X2176381Y2730500D01*
X2176382Y2730499D01*
Y2407289D01*
X2176936Y2404502D01*
X2177158Y2401669D01*
X2177718Y2400570D01*
X2177959Y2399360D01*
X2179537Y2396998D01*
X2180827Y2394466D01*
X2196341Y2374777D01*
X2197279Y2373976D01*
X2197964Y2372950D01*
X2200327Y2371371D01*
X2202487Y2369526D01*
X2203660Y2369144D01*
X2204686Y2368459D01*
X2207472Y2367905D01*
X2210174Y2367026D01*
X2211405Y2367123D01*
X2212614Y2366882D01*
X2306880D01*
X2308354Y2367175D01*
X2310090Y2366015D01*
X2322316Y2347716D01*
X2340615Y2335490D01*
X2362200Y2331196D01*
X2383784Y2335490D01*
X2402083Y2347716D01*
X2414310Y2366015D01*
X2418603Y2387600D01*
X2416930Y2396015D01*
X2454041Y2433126D01*
X2463280Y2429299D01*
Y2334767D01*
X2426790D01*
X2413906Y2332204D01*
X2402984Y2324906D01*
X2385045Y2306967D01*
X1130357D01*
X1100118Y2337206D01*
X1089196Y2344504D01*
X1076312Y2347067D01*
X1074020D01*
Y2397470D01*
X983380D01*
Y2357767D01*
X840188D01*
X828999Y2384779D01*
X809713Y2409913D01*
X784579Y2429199D01*
X755310Y2441323D01*
X723900Y2445458D01*
X692490Y2441323D01*
X663221Y2429199D01*
X638086Y2409913D01*
X618800Y2384779D01*
X606676Y2355510D01*
X602541Y2324100D01*
X606676Y2292690D01*
X618800Y2263421D01*
X638086Y2238287D01*
X663221Y2219001D01*
X692490Y2206877D01*
X723900Y2202742D01*
X755310Y2206877D01*
X784579Y2219001D01*
X809713Y2238287D01*
X828999Y2263421D01*
X840188Y2290433D01*
X983380D01*
Y2249330D01*
X1074020D01*
Y2255014D01*
X1083259Y2258841D01*
X1092606Y2249494D01*
X1103528Y2242196D01*
X1116412Y2239633D01*
X1527580D01*
Y2137680D01*
Y2018567D01*
X1495420D01*
Y2035220D01*
X1374780D01*
Y1934580D01*
X1495420D01*
Y1951233D01*
X1527580D01*
Y1937680D01*
X1698220D01*
Y1992457D01*
X1707557Y1996037D01*
X1710517Y1992746D01*
X1710962Y1992413D01*
X1711271Y1991950D01*
X1714187Y1990002D01*
X1716991Y1987906D01*
X1717530Y1987768D01*
X1717993Y1987459D01*
X1721429Y1986776D01*
X1724825Y1985911D01*
X1725376Y1985990D01*
X1725921Y1985882D01*
X2031998D01*
X2032000Y1985882D01*
X2039928Y1987459D01*
X2046650Y1991950D01*
X2046650Y1991951D01*
X2091382Y2036682D01*
X2476500D01*
X2484428Y2038259D01*
X2491150Y2042750D01*
X2491150Y2042751D01*
X2529933Y2081533D01*
X2539933Y2077391D01*
Y2048946D01*
X2540035Y2048430D01*
X2536988Y2017491D01*
X2527813Y1987245D01*
X2512913Y1959370D01*
X2492862Y1934937D01*
X2468430Y1914886D01*
X2440555Y1899987D01*
X2410309Y1890812D01*
X2379370Y1887764D01*
X2378854Y1887867D01*
X2028420D01*
Y1915220D01*
X1857780D01*
Y1891067D01*
X1071620D01*
Y1917035D01*
X980980D01*
Y1875167D01*
X829667D01*
X828999Y1876779D01*
X809713Y1901913D01*
X784579Y1921199D01*
X755310Y1933323D01*
X723900Y1937458D01*
X692490Y1933323D01*
X663221Y1921199D01*
X638086Y1901913D01*
X618800Y1876779D01*
X606676Y1847510D01*
X602541Y1816100D01*
X606676Y1784690D01*
X618800Y1755421D01*
X638086Y1730287D01*
X663221Y1711001D01*
X692490Y1698877D01*
X723900Y1694742D01*
X755310Y1698877D01*
X784579Y1711001D01*
X809713Y1730287D01*
X828999Y1755421D01*
X841123Y1784690D01*
X844170Y1807833D01*
X980980D01*
Y1783549D01*
X980179Y1783486D01*
X933330Y1772239D01*
X888817Y1753801D01*
X847737Y1728627D01*
X811100Y1697336D01*
X811312Y1697125D01*
X782322Y1668134D01*
X755310Y1679323D01*
X723900Y1683458D01*
X692490Y1679323D01*
X663221Y1667199D01*
X638086Y1647913D01*
X618800Y1622779D01*
X606676Y1593510D01*
X602541Y1562100D01*
X606676Y1530690D01*
X618800Y1501421D01*
X638086Y1476287D01*
X663221Y1457001D01*
X692490Y1444877D01*
X723900Y1440742D01*
X755310Y1444877D01*
X784579Y1457001D01*
X809713Y1476287D01*
X828999Y1501421D01*
X841123Y1530690D01*
X845258Y1562100D01*
X841123Y1593510D01*
X829934Y1620522D01*
X858924Y1649512D01*
X859938Y1651030D01*
X894907Y1679728D01*
X936390Y1701901D01*
X981401Y1715555D01*
X1026421Y1719989D01*
X1028211Y1719633D01*
X1248780D01*
Y1678243D01*
X1339420D01*
Y1719633D01*
X1522692D01*
Y1700427D01*
X1693332D01*
Y1719633D01*
X2370102D01*
Y1719394D01*
X2415061Y1722933D01*
X2458914Y1733461D01*
X2500580Y1750719D01*
X2539034Y1774283D01*
X2573327Y1803573D01*
X2590522Y1823705D01*
X2595693Y1825347D01*
X2602250Y1825230D01*
X2604783Y1823939D01*
X2607148Y1822359D01*
X2608354Y1822119D01*
X2609452Y1821560D01*
X2612288Y1821337D01*
X2615076Y1820782D01*
X2698935D01*
X2702762Y1811543D01*
X2609155Y1717936D01*
X2609154D01*
X2609154Y1717935D01*
X2601840Y1711456D01*
X2584007Y1696821D01*
X2555017Y1681326D01*
X2523562Y1671784D01*
X2492095Y1668685D01*
X2490850Y1668932D01*
X2184400D01*
Y1668979D01*
X2148761Y1665469D01*
X2114492Y1655074D01*
X2082909Y1638193D01*
X2055226Y1615474D01*
X2032508Y1587792D01*
X2015626Y1556209D01*
X2005231Y1521940D01*
X2001721Y1486300D01*
X2001567D01*
X2005691Y1444427D01*
X2017905Y1404163D01*
X2037739Y1367056D01*
X2064432Y1334531D01*
X2096956Y1307839D01*
X2134064Y1288005D01*
X2174327Y1275791D01*
X2208054Y1272469D01*
X2216615Y1268105D01*
X2217311Y1262127D01*
Y1232650D01*
X2219248Y1222915D01*
X2222732Y1217700D01*
X2219248Y1212485D01*
X2217311Y1202750D01*
Y1167650D01*
X2219248Y1157915D01*
X2224762Y1149662D01*
X2233015Y1144148D01*
X2242750Y1142212D01*
X2319222D01*
X2329080Y1141867D01*
X2338579Y1140657D01*
X2351301Y1138126D01*
X2368694Y1126505D01*
X2369659Y1125059D01*
X2370521Y1124484D01*
X2379438Y1111138D01*
X2382570Y1095395D01*
X2382368Y1094379D01*
Y911326D01*
X1625600D01*
Y911710D01*
X1574366Y907677D01*
X1524394Y895680D01*
X1476913Y876013D01*
X1433094Y849161D01*
X1394015Y815784D01*
X1360639Y776705D01*
X1333787Y732886D01*
X1314120Y685406D01*
X1302122Y635434D01*
X1298090Y584200D01*
X1298474D01*
Y266700D01*
Y101600D01*
X1300966Y82674D01*
X1308271Y65037D01*
X1309100Y63957D01*
Y50800D01*
X490333D01*
X488382Y60608D01*
X495872Y63710D01*
X538862Y90054D01*
X577201Y122799D01*
X609946Y161138D01*
X636290Y204128D01*
X655584Y250710D01*
X667355Y299736D01*
X671311Y350000D01*
X667355Y400264D01*
X655584Y449290D01*
X636290Y495872D01*
X609946Y538862D01*
X577201Y577201D01*
X538862Y609946D01*
X495872Y636290D01*
X449290Y655584D01*
X400264Y667355D01*
X350000Y671311D01*
X299736Y667355D01*
X250710Y655584D01*
X204128Y636290D01*
X161138Y609946D01*
X122799Y577201D01*
X90054Y538862D01*
X63710Y495872D01*
X60606Y488376D01*
X50798Y490327D01*
X50773Y5209732D01*
X60581Y5211683D01*
X63710Y5204128D01*
X90054Y5161138D01*
X122799Y5122799D01*
X161138Y5090054D01*
X204128Y5063710D01*
X250710Y5044416D01*
X299736Y5032645D01*
X350000Y5028689D01*
X400264Y5032645D01*
X449290Y5044416D01*
X495872Y5063710D01*
X538862Y5090054D01*
X577201Y5122799D01*
X609946Y5161138D01*
X636290Y5204128D01*
X655584Y5250710D01*
X667355Y5299736D01*
X671311Y5350000D01*
X667355Y5400264D01*
X655584Y5449290D01*
X636290Y5495872D01*
X609946Y5538862D01*
X577201Y5577201D01*
X538862Y5609946D01*
X495872Y5636290D01*
X482830Y5641692D01*
X484781Y5651500D01*
X4415219D01*
X4417170Y5641692D01*
D02*
G37*
G36*
X2184400Y3632200D02*
X1501981D01*
X1473200Y3660981D01*
Y3797300D01*
X1485900Y3810000D01*
X2184400D01*
Y3632200D01*
D02*
G37*
G36*
X4851400Y1434420D02*
X4837825D01*
X4837163Y1434929D01*
X4819526Y1442234D01*
X4800600Y1444726D01*
X4343400D01*
X4342411Y1444595D01*
X4308069Y1447978D01*
X4274095Y1458284D01*
X4242785Y1475019D01*
X4215342Y1497542D01*
X4192819Y1524985D01*
X4176084Y1556295D01*
X4165778Y1590269D01*
X4162395Y1624611D01*
X4162526Y1625600D01*
Y1866562D01*
X4162910D01*
X4158877Y1917796D01*
X4146880Y1967768D01*
X4127213Y2015248D01*
X4100361Y2059067D01*
X4066984Y2098146D01*
X4027905Y2131523D01*
X3984086Y2158375D01*
X3936606Y2178042D01*
X3886634Y2190039D01*
X3835400Y2194071D01*
Y2193687D01*
X3493009D01*
X3491810Y2193530D01*
X3484079Y2202598D01*
X3485079Y2207628D01*
X3485079Y2213102D01*
X3485080Y2213103D01*
X3485079Y2327174D01*
X3797300D01*
Y2326790D01*
X3848534Y2330823D01*
X3898506Y2342820D01*
X3945986Y2362487D01*
X3989805Y2389339D01*
X4028884Y2422716D01*
X4062261Y2461795D01*
X4089113Y2505614D01*
X4108780Y2553094D01*
X4120777Y2603066D01*
X4124810Y2654300D01*
X4124426D01*
Y3255558D01*
X4124360Y3256054D01*
X4127339Y3286300D01*
X4136306Y3315862D01*
X4150869Y3343105D01*
X4170466Y3366984D01*
X4194345Y3386581D01*
X4221588Y3401144D01*
X4251150Y3410111D01*
X4281396Y3413090D01*
X4281892Y3413024D01*
X4800600D01*
X4819526Y3415516D01*
X4837163Y3422821D01*
X4837825Y3423330D01*
X4851400D01*
Y1434420D01*
D02*
G37*
G36*
X2709533Y3376954D02*
Y3166063D01*
X2702334Y3159122D01*
X2594321Y3163062D01*
X2592956Y3164097D01*
X2586367Y3170939D01*
Y3302000D01*
X2583804Y3314884D01*
X2576506Y3325806D01*
X2354806Y3547506D01*
X2354674Y3548852D01*
X2428202Y3622380D01*
Y3644144D01*
X2438202Y3648286D01*
X2709533Y3376954D01*
D02*
G37*
G36*
X3255633Y2864759D02*
X3160091Y2769217D01*
X3114054Y2723180D01*
X3088141Y2697267D01*
X3056420D01*
Y2711420D01*
X2990780D01*
Y2667859D01*
X2989933Y2663600D01*
X2990780Y2659341D01*
Y2629318D01*
X2956420D01*
Y2659341D01*
X2957267Y2663600D01*
Y2742375D01*
X3086406Y2871515D01*
X3086717Y2871980D01*
X3210220D01*
Y2894600D01*
X3255633D01*
Y2864759D01*
D02*
G37*
G36*
X2709533Y3138128D02*
Y2832100D01*
X2712096Y2819216D01*
X2719394Y2808294D01*
X2789933Y2737755D01*
Y2663600D01*
X2757267D01*
Y2725858D01*
X2754704Y2738742D01*
X2747406Y2749665D01*
X2586367Y2910703D01*
Y3135416D01*
X2593566Y3142357D01*
X2709533Y3138128D01*
D02*
G37*
G36*
X2286000Y2946400D02*
X2430133D01*
Y2921000D01*
X2432696Y2908116D01*
X2439994Y2897194D01*
X2639933Y2697255D01*
Y2663600D01*
X2640780Y2659341D01*
Y2641600D01*
X2606419D01*
Y2659341D01*
X2607267Y2663600D01*
X2606419Y2667859D01*
Y2711420D01*
X2584480D01*
X2578100Y2717800D01*
X2473312D01*
X2273300Y2917812D01*
Y2933700D01*
X2286000Y2946400D01*
X2286000Y2946400D01*
D02*
G37*
G36*
X3441613Y2722825D02*
X3349766Y2630978D01*
X3179487D01*
X3166603Y2628416D01*
X3155681Y2621118D01*
X3119330Y2584767D01*
X3086100D01*
X3081841Y2583920D01*
X3051818D01*
Y2608600D01*
X3051566Y2609865D01*
X3056420Y2615780D01*
X3056420D01*
Y2629933D01*
X3102086D01*
X3114970Y2632496D01*
X3125892Y2639794D01*
X3207703Y2721605D01*
X3313106Y2827008D01*
X3320404Y2837930D01*
X3322967Y2850814D01*
Y2851780D01*
X3441613D01*
Y2722825D01*
D02*
G37*
G36*
X2456094Y2639794D02*
X2467016Y2632496D01*
X2479900Y2629933D01*
X2540000D01*
Y2533920D01*
X2515358D01*
X2511100Y2534767D01*
X2510095Y2534567D01*
X2474202D01*
X2470949Y2533920D01*
X2463280D01*
Y2532394D01*
X2461319Y2532004D01*
X2450396Y2524706D01*
X2368610Y2442920D01*
X2351196D01*
X2330864Y2434498D01*
X2315302Y2418936D01*
X2306880Y2398604D01*
Y2387600D01*
X2212614D01*
X2197100Y2407289D01*
Y2730500D01*
X2281244Y2814644D01*
X2456094Y2639794D01*
D02*
G37*
G36*
X3031100Y2143600D02*
X2566100D01*
Y2573600D01*
X2601100Y2608600D01*
X3031100D01*
Y2143600D01*
D02*
G37*
G36*
X2787386Y2110900D02*
X2783566Y2105182D01*
X2780267Y2088600D01*
X2780267Y1955800D01*
X2780495Y1954655D01*
X2777505Y1924294D01*
X2768315Y1894000D01*
X2753391Y1866080D01*
X2734037Y1842496D01*
X2733067Y1841848D01*
X2732719Y1841500D01*
X2615076D01*
X2610190Y1850225D01*
X2626181Y1876319D01*
X2643439Y1917985D01*
X2653967Y1961838D01*
X2657506Y2006798D01*
X2657267D01*
Y2088600D01*
X2656420Y2092858D01*
Y2120900D01*
X2690133D01*
Y2089605D01*
X2689933Y2088600D01*
X2690780Y2084342D01*
Y2040780D01*
X2756419D01*
Y2083536D01*
X2757466Y2088800D01*
Y2120900D01*
X2782041D01*
X2787386Y2110900D01*
D02*
G37*
G36*
X2545382Y2143600D02*
X2545633Y2142334D01*
X2540780Y2136420D01*
X2540780D01*
Y2121680D01*
X2476500Y2057400D01*
X2082800D01*
X2032000Y2006600D01*
X1725921D01*
X1701935Y2033271D01*
X1702071Y2141847D01*
X1730843Y2167129D01*
X1731917Y2167233D01*
X2510900D01*
X2516163Y2168280D01*
X2545382D01*
Y2143600D01*
D02*
G37*
G36*
X3870731Y2044184D02*
X3904705Y2033878D01*
X3936015Y2017143D01*
X3963458Y1994620D01*
X3985981Y1967177D01*
X4002716Y1935866D01*
X4013022Y1901893D01*
X4016405Y1867550D01*
X4016274Y1866562D01*
Y1625600D01*
X4015890D01*
X4019923Y1574366D01*
X4031920Y1524394D01*
X4051587Y1476914D01*
X4078439Y1433095D01*
X4111816Y1394016D01*
X4150895Y1360639D01*
X4194714Y1333787D01*
X4242194Y1314120D01*
X4292166Y1302123D01*
X4343400Y1298090D01*
Y1298474D01*
X4800600D01*
X4819526Y1300966D01*
X4837163Y1308271D01*
X4837825Y1308780D01*
X4851400D01*
Y482414D01*
X4841592Y480463D01*
X4832890Y501472D01*
X4806546Y544462D01*
X4773801Y582801D01*
X4735462Y615546D01*
X4692472Y641890D01*
X4645890Y661184D01*
X4596864Y672955D01*
X4546600Y676911D01*
X4496336Y672955D01*
X4447310Y661184D01*
X4400728Y641890D01*
X4357738Y615546D01*
X4319399Y582801D01*
X4286654Y544462D01*
X4260310Y501472D01*
X4241016Y454890D01*
X4229245Y405864D01*
X4225289Y355600D01*
X4229245Y305336D01*
X4241016Y256310D01*
X4260310Y209728D01*
X4286654Y166738D01*
X4319399Y128399D01*
X4357738Y95654D01*
X4400728Y69310D01*
X4421737Y60608D01*
X4419787Y50800D01*
X3580400D01*
Y76657D01*
X3581228Y77737D01*
X3588534Y95374D01*
X3591025Y114300D01*
Y266700D01*
Y584200D01*
X3591409D01*
X3587377Y635434D01*
X3575380Y685406D01*
X3555713Y732886D01*
X3528861Y776705D01*
X3495484Y815784D01*
X3456405Y849161D01*
X3412586Y876013D01*
X3365106Y895680D01*
X3315134Y907677D01*
X3263900Y911710D01*
Y911326D01*
X2633332D01*
Y975089D01*
X2633577D01*
X2629275Y1029744D01*
X2616477Y1083054D01*
X2595496Y1133705D01*
X2566851Y1180450D01*
X2531245Y1222139D01*
X2531317Y1222211D01*
X2531316Y1222212D01*
X2523824Y1228360D01*
X2494237Y1252641D01*
X2472001Y1264527D01*
X2474430Y1274227D01*
X2681029D01*
X2703446Y1251810D01*
X2716739Y1242928D01*
X2732418Y1239809D01*
X2751300D01*
Y1218282D01*
X2866300D01*
Y1219200D01*
X2910979D01*
Y1217962D01*
X3026620D01*
Y1247115D01*
X3051082D01*
X3063966Y1249678D01*
X3074888Y1256976D01*
X3113892Y1295980D01*
X3174320D01*
Y1411620D01*
X3124092D01*
X3063153Y1472559D01*
X3052231Y1479857D01*
X3039347Y1482420D01*
X3026620D01*
Y1511573D01*
X2750980D01*
Y1489725D01*
X2743799D01*
X2728120Y1486607D01*
X2714827Y1477725D01*
X2658276Y1421173D01*
X2397703D01*
X2397585Y1421252D01*
X2387850Y1423189D01*
X2317029D01*
X2315300Y1423533D01*
X2201200D01*
X2199230Y1423141D01*
X2176880Y1427586D01*
X2156263Y1441362D01*
X2142486Y1461980D01*
X2139546Y1476761D01*
X2138433Y1486300D01*
X2138433Y1486300D01*
X2139830Y1495610D01*
X2141512Y1504065D01*
X2151575Y1519126D01*
X2166635Y1529189D01*
X2174987Y1530850D01*
X2184400Y1532267D01*
Y1532268D01*
X2490849D01*
X2490850Y1532267D01*
Y1532163D01*
X2538418Y1535907D01*
X2584815Y1547045D01*
X2628898Y1565305D01*
X2669582Y1590236D01*
X2705865Y1621225D01*
X2705791Y1621300D01*
X2829704Y1745212D01*
X2829764Y1745151D01*
X2860124Y1780697D01*
X2884548Y1820555D01*
X2902437Y1863743D01*
X2913350Y1909198D01*
X2917018Y1955800D01*
X2916932D01*
Y2040780D01*
X2989933D01*
Y1929400D01*
X2992496Y1916516D01*
X2999794Y1905594D01*
X3182573Y1722815D01*
X3193495Y1715517D01*
X3206379Y1712954D01*
X3209280D01*
Y1629180D01*
X3232633D01*
Y1609320D01*
X3207680D01*
Y1438680D01*
X3323320D01*
Y1574614D01*
X3332559Y1578441D01*
X3338150Y1572850D01*
X3344871Y1568359D01*
X3352800Y1566782D01*
X3352801Y1566782D01*
X3407680D01*
X3415608Y1568359D01*
X3422330Y1572850D01*
X3426821Y1579572D01*
X3428398Y1587500D01*
Y1588602D01*
X3501618D01*
X3501620Y1588602D01*
X3509548Y1590179D01*
X3516270Y1594670D01*
X3516270Y1594671D01*
X3545250Y1623650D01*
X3549741Y1630371D01*
X3551318Y1638300D01*
X3551318Y1638301D01*
Y1828800D01*
X3549741Y1836729D01*
X3545250Y1843450D01*
X3545249Y1843450D01*
X3481750Y1906950D01*
X3475028Y1911441D01*
X3467100Y1913018D01*
X3467098Y1913018D01*
X3361381D01*
X3348118Y1926282D01*
Y2019594D01*
X3347924Y2020566D01*
X3348025Y2021553D01*
X3347141Y2024503D01*
X3346541Y2027522D01*
X3345989Y2028347D01*
X3345705Y2029297D01*
X3343761Y2031683D01*
X3342050Y2034244D01*
X3341225Y2034795D01*
X3340810Y2035304D01*
X3340938Y2036446D01*
X3344381Y2045411D01*
X3345273Y2045436D01*
X3357330Y2047436D01*
X3835400D01*
X3836389Y2047566D01*
X3870731Y2044184D01*
D02*
G37*
G36*
X3068631Y2158928D02*
X3086100Y2155453D01*
X3109283D01*
X3110117Y2155619D01*
X3116848Y2152831D01*
X3117322Y2152122D01*
X3117323Y2152123D01*
X3117772Y2151822D01*
X3136900Y2135486D01*
Y2070100D01*
X3175000Y2032000D01*
X3312678Y2031762D01*
X3327400Y2019594D01*
Y1917700D01*
X3352800Y1892300D01*
X3467100D01*
X3530600Y1828800D01*
Y1638300D01*
X3501620Y1609320D01*
X3407680D01*
Y1587500D01*
X3352800D01*
X3321120Y1619180D01*
X3324920Y1629180D01*
X3324920D01*
Y1799820D01*
X3305896D01*
X3302000Y1803400D01*
X3197212D01*
X3057267Y1943346D01*
Y2088600D01*
X3056420Y2092858D01*
Y2136420D01*
X3056420D01*
X3051566Y2142334D01*
X3051818Y2143600D01*
Y2158135D01*
X3061818Y2163480D01*
X3068631Y2158928D01*
D02*
G37*
G36*
X3299231Y761822D02*
X3333204Y751516D01*
X3364515Y734781D01*
X3391958Y712258D01*
X3414481Y684815D01*
X3431216Y653505D01*
X3441522Y619531D01*
X3444904Y585189D01*
X3444774Y584200D01*
Y266700D01*
Y114300D01*
X3447266Y95374D01*
X3454571Y77737D01*
X3455400Y76657D01*
Y50800D01*
X1434100D01*
Y63957D01*
X1434928Y65037D01*
X1442234Y82674D01*
X1444725Y101600D01*
Y266700D01*
Y584200D01*
X1444595Y585189D01*
X1447978Y619531D01*
X1458283Y653505D01*
X1475019Y684815D01*
X1497541Y712258D01*
X1524985Y734781D01*
X1556295Y751516D01*
X1590269Y761822D01*
X1624611Y765205D01*
X1625600Y765074D01*
X3263900D01*
X3264889Y765205D01*
X3299231Y761822D01*
D02*
G37*
%LPC*%
G36*
X3378200Y5570618D02*
X3378199Y5570618D01*
X3136901Y5570618D01*
X3136899Y5570618D01*
X3128971Y5569041D01*
X3122250Y5564550D01*
X3122249Y5564549D01*
X3101536Y5543836D01*
X3097045Y5537115D01*
X3095468Y5529186D01*
X3095468Y5529185D01*
Y5443613D01*
X3097045Y5435685D01*
X3101536Y5428963D01*
X3101537Y5428963D01*
X3122249Y5408251D01*
X3122250Y5408250D01*
X3128971Y5403759D01*
X3136900Y5402182D01*
X3136901Y5402182D01*
X3378198D01*
X3378199Y5402182D01*
X3386128Y5403759D01*
X3392849Y5408250D01*
X3392850Y5408251D01*
X3410235Y5425636D01*
X3410236Y5425636D01*
X3414727Y5432358D01*
X3416304Y5440286D01*
X3416304Y5440287D01*
Y5532512D01*
X3416304Y5532513D01*
X3414727Y5540442D01*
X3410236Y5547163D01*
X3410235Y5547164D01*
X3392850Y5564549D01*
X3392850Y5564550D01*
X3386128Y5569041D01*
X3378200Y5570618D01*
D02*
G37*
G36*
X3762420Y5549220D02*
X3646780D01*
Y5520067D01*
X3539120D01*
Y5546720D01*
X3438480D01*
Y5426080D01*
X3539120D01*
Y5452733D01*
X3646780D01*
Y5423580D01*
X3762420D01*
Y5549220D01*
D02*
G37*
G36*
X2070100Y5519818D02*
X2070098Y5519818D01*
X1752600D01*
X1744671Y5518241D01*
X1737950Y5513750D01*
X1737949Y5513749D01*
X1674450Y5450250D01*
X1669959Y5443529D01*
X1668798Y5437692D01*
X1658602D01*
X1657441Y5443529D01*
X1652950Y5450250D01*
X1652949Y5450250D01*
X1589450Y5513750D01*
X1582728Y5518241D01*
X1574800Y5519818D01*
X1574798Y5519818D01*
X1066799D01*
X1058871Y5518241D01*
X1052150Y5513750D01*
X1052149Y5513749D01*
X975951Y5437550D01*
X975950Y5437550D01*
X971459Y5430828D01*
X969881Y5422900D01*
X969882Y5422899D01*
Y4948882D01*
X651818Y4630818D01*
X457201D01*
X457200Y4630818D01*
X449271Y4629241D01*
X442550Y4624750D01*
X442549Y4624749D01*
X391750Y4573950D01*
X387259Y4567229D01*
X385681Y4559300D01*
X385682Y4559299D01*
Y4343401D01*
X385681Y4343400D01*
X387259Y4335471D01*
X391750Y4328750D01*
X429850Y4290650D01*
X436571Y4286159D01*
X444500Y4284582D01*
X444501Y4284582D01*
X1130300D01*
X1138228Y4286159D01*
X1144950Y4290650D01*
X1144950Y4290651D01*
X1398949Y4544650D01*
X1403440Y4551371D01*
X1405018Y4559300D01*
X1405018Y4559301D01*
X1405018Y4817418D01*
X1652950Y5065350D01*
X1657441Y5072071D01*
X1658381Y5076799D01*
X1668381Y5075814D01*
Y5050481D01*
X1483950Y4866050D01*
X1479459Y4859328D01*
X1477881Y4851400D01*
X1477881Y4851398D01*
Y4584701D01*
X1477881Y4584700D01*
X1479459Y4576772D01*
X1483950Y4570050D01*
X1560149Y4493851D01*
X1560150Y4493850D01*
X1566871Y4489359D01*
X1574800Y4487782D01*
X1574801Y4487782D01*
X1782118D01*
X1833482Y4436418D01*
Y4318000D01*
X1835059Y4310072D01*
X1839550Y4303350D01*
X1839551Y4303350D01*
X1941150Y4201750D01*
X1947871Y4197259D01*
X1955800Y4195682D01*
X1955801Y4195682D01*
X2628898D01*
X2628899Y4195682D01*
X2636828Y4197259D01*
X2643549Y4201750D01*
X2731601Y4289802D01*
X2743921Y4287979D01*
X2749152Y4282747D01*
Y4274280D01*
X2757620D01*
X2779350Y4252550D01*
X2786071Y4248059D01*
X2793999Y4246482D01*
X2794001Y4246482D01*
X3060700D01*
X3068628Y4248059D01*
X3075350Y4252550D01*
X3075350Y4252551D01*
X3094682Y4271882D01*
X3340098Y4271882D01*
X3340099Y4271881D01*
X3348028Y4273459D01*
X3354749Y4277950D01*
X3373799Y4297000D01*
X3378290Y4303721D01*
X3379868Y4311650D01*
X3431910D01*
X3432580Y4310980D01*
X3598782D01*
Y4051301D01*
X3598781Y4051300D01*
X3600201Y4044167D01*
X3600088Y4042947D01*
X3594482Y4034167D01*
X3447120D01*
Y4085820D01*
X3331480D01*
Y3915180D01*
X3447120D01*
Y3966833D01*
X3612833D01*
Y3939800D01*
X3613680Y3935542D01*
Y3884480D01*
X3716151D01*
X3721391Y3880979D01*
X3729320Y3879402D01*
X3874718D01*
X3874720Y3879402D01*
X3882648Y3880979D01*
X3889370Y3885470D01*
X3951650Y3947750D01*
X3956141Y3954471D01*
X3957718Y3962400D01*
X3957718Y3962401D01*
Y4297282D01*
X4165598D01*
X4165600Y4297282D01*
X4173528Y4298859D01*
X4180250Y4303350D01*
X4256450Y4379550D01*
X4260941Y4386271D01*
X4262518Y4394200D01*
X4262518Y4394201D01*
Y4552950D01*
X4453890D01*
Y4600233D01*
X4575580D01*
Y4576080D01*
X4746220D01*
Y4691720D01*
X4575580D01*
Y4667567D01*
X4453890D01*
Y4705350D01*
X4258310D01*
Y4669967D01*
X3901700D01*
X3897441Y4669120D01*
X3846380D01*
Y4616649D01*
X3842879Y4611409D01*
X3841302Y4603480D01*
Y4553113D01*
X3840082Y4546980D01*
Y4529218D01*
X3683000D01*
X3675071Y4527641D01*
X3668350Y4523150D01*
X3668349Y4523149D01*
X3604850Y4459650D01*
X3600359Y4452929D01*
X3598781Y4445000D01*
X3598782Y4444999D01*
Y4426620D01*
X3551567D01*
Y4493954D01*
X3561380Y4503767D01*
Y4505468D01*
X3608545Y4552633D01*
X3616700D01*
X3620958Y4553480D01*
X3672020D01*
Y4659211D01*
X3675521Y4664451D01*
X3677098Y4672380D01*
X3677098Y4672381D01*
Y4819681D01*
X3677770Y4823225D01*
X3678320Y4826055D01*
X3681699Y4828042D01*
X3688513Y4829734D01*
X3704575Y4812212D01*
X3704930Y4811952D01*
X3705175Y4811584D01*
X3708182Y4809569D01*
X3711095Y4807434D01*
X3711524Y4807329D01*
X3711890Y4807083D01*
X3715433Y4806373D01*
X3718948Y4805514D01*
X3719384Y4805581D01*
X3719816Y4805494D01*
X3841302Y4805311D01*
Y4724400D01*
X3842879Y4716472D01*
X3846380Y4711232D01*
Y4703480D01*
X3957020D01*
Y4703682D01*
X4178300D01*
X4186228Y4705259D01*
X4192950Y4709750D01*
X4192950Y4709751D01*
X4256450Y4773250D01*
X4260941Y4779971D01*
X4262518Y4787900D01*
X4262518Y4787901D01*
Y5016500D01*
X4260941Y5024429D01*
X4256450Y5031150D01*
X4256449Y5031150D01*
X4192950Y5094650D01*
X4186228Y5099141D01*
X4178300Y5100718D01*
X4178298Y5100718D01*
X3746501D01*
X3746500Y5100718D01*
X3738571Y5099141D01*
X3731850Y5094650D01*
X3731849Y5094649D01*
X3682682Y5045482D01*
X3679913Y5044555D01*
X3676692Y5044522D01*
X3670764Y5045436D01*
X3670315Y5045784D01*
X3634150Y5081949D01*
X3634149Y5081950D01*
X3627428Y5086441D01*
X3619500Y5088018D01*
X3619498Y5088018D01*
X2806701Y5088018D01*
X2806700Y5088018D01*
X2798771Y5086441D01*
X2792050Y5081950D01*
X2792049Y5081949D01*
X2741250Y5031150D01*
X2741249Y5031150D01*
X2736758Y5024428D01*
X2735181Y5016500D01*
X2735181Y5016498D01*
X2735181Y4876384D01*
X2725942Y4872557D01*
X2656250Y4942250D01*
X2649528Y4946741D01*
X2641600Y4948318D01*
X2641598Y4948318D01*
X2345381D01*
X2154318Y5139382D01*
X2154318Y5435600D01*
X2152740Y5443528D01*
X2148249Y5450250D01*
X2084750Y5513749D01*
X2084750Y5513750D01*
X2078028Y5518241D01*
X2070100Y5519818D01*
D02*
G37*
G36*
X2546770Y5442270D02*
X2228630D01*
Y5124130D01*
X2546770D01*
Y5442270D01*
D02*
G37*
G36*
X3607180Y3716418D02*
X3441700D01*
X3433771Y3714841D01*
X3427050Y3710350D01*
X3427049Y3710349D01*
X3401650Y3684950D01*
X3397159Y3678229D01*
X3395581Y3670300D01*
X3395582Y3670299D01*
Y3575697D01*
X3298190D01*
Y3638550D01*
X3102610D01*
Y3591267D01*
X3057120D01*
Y3628120D01*
X2886480D01*
Y3512480D01*
X3057120D01*
Y3523933D01*
X3102610D01*
Y3486150D01*
X3298190D01*
Y3508363D01*
X3580297D01*
X3584124Y3499124D01*
X3579450Y3494450D01*
X3574959Y3487729D01*
X3573381Y3479800D01*
X3573382Y3479799D01*
Y3378200D01*
X3573820Y3375997D01*
X3573865Y3373751D01*
X3582242Y3335651D01*
X3582977Y3333971D01*
X3583335Y3332172D01*
X3584583Y3330304D01*
X3585484Y3328247D01*
X3586807Y3326976D01*
X3587826Y3325450D01*
X3589694Y3324202D01*
X3591314Y3322646D01*
X3593023Y3321978D01*
X3594548Y3320959D01*
X3596750Y3320521D01*
X3598843Y3319703D01*
X3600677Y3319740D01*
X3602476Y3319382D01*
X3847006D01*
X3848313Y3319642D01*
X3849642Y3319550D01*
X3852244Y3320424D01*
X3854935Y3320959D01*
X3856042Y3321699D01*
X3857305Y3322123D01*
X3859374Y3323925D01*
X3861656Y3325450D01*
X3862397Y3326558D01*
X3863401Y3327433D01*
X3864622Y3329890D01*
X3866147Y3332172D01*
X3866407Y3333478D01*
X3867000Y3334671D01*
X3880794Y3385471D01*
X3880982Y3388209D01*
X3881518Y3390900D01*
Y3694480D01*
X3879941Y3702408D01*
X3879320Y3703338D01*
Y3710120D01*
X3873968D01*
X3868728Y3713621D01*
X3860800Y3715198D01*
X3779320D01*
X3771391Y3713621D01*
X3766151Y3710120D01*
X3763680D01*
Y3707648D01*
X3760179Y3702408D01*
X3758602Y3694480D01*
Y3620198D01*
X3730167D01*
Y3654800D01*
X3729320Y3659058D01*
Y3710120D01*
X3676848D01*
X3671608Y3713621D01*
X3663680Y3715198D01*
X3613313D01*
X3607180Y3716418D01*
D02*
G37*
G36*
X723900Y3461458D02*
X692490Y3457323D01*
X663221Y3445199D01*
X638086Y3425913D01*
X618800Y3400779D01*
X606676Y3371510D01*
X602541Y3340100D01*
X606676Y3308690D01*
X618800Y3279421D01*
X638086Y3254287D01*
X663221Y3235001D01*
X692490Y3222877D01*
X723900Y3218742D01*
X755310Y3222877D01*
X784579Y3235001D01*
X809713Y3254287D01*
X828999Y3279421D01*
X841123Y3308690D01*
X845258Y3340100D01*
X841123Y3371510D01*
X828999Y3400779D01*
X809713Y3425913D01*
X784579Y3445199D01*
X755310Y3457323D01*
X723900Y3461458D01*
D02*
G37*
G36*
Y3207458D02*
X692490Y3203323D01*
X663221Y3191199D01*
X638086Y3171913D01*
X618800Y3146779D01*
X606676Y3117510D01*
X602541Y3086100D01*
X606676Y3054690D01*
X618800Y3025421D01*
X638086Y3000287D01*
X663221Y2981001D01*
X692490Y2968877D01*
X723900Y2964742D01*
X755310Y2968877D01*
X784579Y2981001D01*
X809713Y3000287D01*
X828999Y3025421D01*
X841123Y3054690D01*
X845258Y3086100D01*
X841123Y3117510D01*
X828999Y3146779D01*
X809713Y3171913D01*
X784579Y3191199D01*
X755310Y3203323D01*
X723900Y3207458D01*
D02*
G37*
G36*
Y2953458D02*
X692490Y2949323D01*
X663221Y2937199D01*
X638086Y2917913D01*
X618800Y2892779D01*
X606676Y2863510D01*
X602541Y2832100D01*
X606676Y2800690D01*
X618800Y2771421D01*
X638086Y2746287D01*
X663221Y2727001D01*
X692490Y2714877D01*
X723900Y2710742D01*
X755310Y2714877D01*
X784579Y2727001D01*
X809713Y2746287D01*
X828999Y2771421D01*
X841123Y2800690D01*
X845258Y2832100D01*
X841123Y2863510D01*
X828999Y2892779D01*
X809713Y2917913D01*
X784579Y2937199D01*
X755310Y2949323D01*
X723900Y2953458D01*
D02*
G37*
G36*
Y2699458D02*
X692490Y2695323D01*
X663221Y2683199D01*
X638086Y2663913D01*
X618800Y2638779D01*
X606676Y2609510D01*
X602541Y2578100D01*
X606676Y2546690D01*
X618800Y2517421D01*
X638086Y2492287D01*
X663221Y2473001D01*
X692490Y2460877D01*
X723900Y2456742D01*
X755310Y2460877D01*
X784579Y2473001D01*
X809713Y2492287D01*
X828999Y2517421D01*
X841123Y2546690D01*
X845258Y2578100D01*
X841123Y2609510D01*
X828999Y2638779D01*
X809713Y2663913D01*
X784579Y2683199D01*
X755310Y2695323D01*
X723900Y2699458D01*
D02*
G37*
G36*
Y2191458D02*
X692490Y2187323D01*
X663221Y2175199D01*
X638086Y2155913D01*
X618800Y2130779D01*
X606676Y2101510D01*
X602541Y2070100D01*
X606676Y2038690D01*
X618800Y2009421D01*
X638086Y1984287D01*
X663221Y1965001D01*
X692490Y1952877D01*
X723900Y1948742D01*
X755310Y1952877D01*
X784579Y1965001D01*
X809713Y1984287D01*
X828999Y2009421D01*
X841123Y2038690D01*
X845258Y2070100D01*
X841123Y2101510D01*
X828999Y2130779D01*
X809713Y2155913D01*
X784579Y2175199D01*
X755310Y2187323D01*
X723900Y2191458D01*
D02*
G37*
G36*
X1816100Y1646318D02*
X1816098Y1646318D01*
X1536701D01*
X1536700Y1646318D01*
X1528771Y1644741D01*
X1522050Y1640250D01*
X1522049Y1640249D01*
X1509350Y1627550D01*
X1504859Y1620829D01*
X1503281Y1612900D01*
X1503282Y1612899D01*
Y1511300D01*
X1504859Y1503371D01*
X1509350Y1496650D01*
X1509351Y1496650D01*
X1534750Y1471250D01*
X1541471Y1466759D01*
X1549400Y1465182D01*
X1549401Y1465182D01*
X1816098D01*
X1816099Y1465182D01*
X1824028Y1466759D01*
X1830749Y1471250D01*
X1830750Y1471251D01*
X1856149Y1496650D01*
X1856150Y1496650D01*
X1860641Y1503371D01*
X1862218Y1511300D01*
X1862218Y1511301D01*
Y1600200D01*
X1860641Y1608129D01*
X1856150Y1614850D01*
X1856149Y1614850D01*
X1830750Y1640250D01*
X1824028Y1644741D01*
X1816100Y1646318D01*
D02*
G37*
G36*
X773900Y1429027D02*
X673900D01*
X655543Y1426610D01*
X638436Y1419524D01*
X623747Y1408253D01*
X612475Y1393563D01*
X605390Y1376457D01*
X602973Y1358100D01*
Y1258100D01*
X605390Y1239743D01*
X612475Y1222637D01*
X623747Y1207947D01*
X638436Y1196676D01*
X655543Y1189590D01*
X673900Y1187173D01*
X773900D01*
X792257Y1189590D01*
X809363Y1196676D01*
X824053Y1207947D01*
X835324Y1222637D01*
X842410Y1239743D01*
X844827Y1258100D01*
Y1280033D01*
X983380D01*
Y1233330D01*
X1074020D01*
Y1280033D01*
X1494805D01*
X1496339Y1279377D01*
X1501007Y1274914D01*
X1502286Y1272977D01*
X1503293Y1270033D01*
X1503282Y1054101D01*
X1503281Y1054100D01*
X1504226Y1049355D01*
X1504858Y1046173D01*
X1504859Y1046172D01*
X1509349Y1039451D01*
X1509350Y1039450D01*
X1560150Y988650D01*
X1566871Y984159D01*
X1574800Y982582D01*
X1574801Y982582D01*
X1879598D01*
X1879600Y982582D01*
X1887528Y984159D01*
X1894250Y988650D01*
X1894250Y988651D01*
X1945050Y1039450D01*
X1949541Y1046171D01*
X1951118Y1054100D01*
X1951118Y1054101D01*
Y1200689D01*
X1950917Y1201696D01*
X1951018Y1202720D01*
X1950134Y1205634D01*
X1949541Y1208617D01*
X1948970Y1209472D01*
X1948671Y1210456D01*
X1945050Y1217250D01*
X1949541Y1223972D01*
X1951118Y1231900D01*
Y1333500D01*
X1949541Y1341428D01*
X1945050Y1348150D01*
X1941260Y1350682D01*
X1941068Y1350969D01*
X1932709Y1356554D01*
X1922850Y1358515D01*
X1777750D01*
X1767890Y1356554D01*
X1764394Y1354218D01*
X1663701D01*
X1663700Y1354218D01*
X1655771Y1352641D01*
X1649050Y1348150D01*
X1648267Y1347367D01*
X1074020D01*
Y1381470D01*
X983380D01*
Y1347367D01*
X844827D01*
Y1358100D01*
X842410Y1376457D01*
X835324Y1393563D01*
X824053Y1408253D01*
X809363Y1419524D01*
X792257Y1426610D01*
X773900Y1429027D01*
D02*
G37*
%LPD*%
G36*
X3395586Y5532513D02*
Y5440286D01*
X3378199Y5422900D01*
X3136900D01*
X3116186Y5443613D01*
Y5529186D01*
X3136899Y5549900D01*
X3378200Y5549900D01*
X3395586Y5532513D01*
D02*
G37*
G36*
X4241800Y5016500D02*
Y4787900D01*
X4178300Y4724400D01*
X3862020D01*
Y4825620D01*
X3860800D01*
Y4826000D01*
X3719847Y4826212D01*
X3695700Y4852554D01*
Y4991100D01*
Y5029200D01*
X3746500Y5080000D01*
X4178300D01*
X4241800Y5016500D01*
D02*
G37*
G36*
X3655995Y5030804D02*
X3657817Y4827071D01*
X3656380Y4825620D01*
X3656380D01*
Y4672380D01*
X3653120Y4669120D01*
X3561380D01*
Y4660900D01*
X2794000D01*
X2755900Y4699000D01*
X2755899Y5016500D01*
X2806700Y5067300D01*
X3619499Y5067300D01*
X3655995Y5030804D01*
D02*
G37*
G36*
X3901700Y4602633D02*
X4241800D01*
Y4394200D01*
X4165600Y4318000D01*
X3957718D01*
Y4457699D01*
X3957718Y4457700D01*
X3956141Y4465628D01*
X3951650Y4472350D01*
X3951649Y4472350D01*
X3900850Y4523150D01*
X3894128Y4527641D01*
X3886200Y4529218D01*
X3886198Y4529218D01*
X3860800D01*
Y4546980D01*
X3862020D01*
Y4603480D01*
X3897441D01*
X3901700Y4602633D01*
D02*
G37*
G36*
X1638300Y5435600D02*
Y5080000D01*
X1384300Y4826000D01*
X1384299Y4559300D01*
X1130300Y4305300D01*
X444500D01*
X406400Y4343400D01*
Y4559300D01*
X457200Y4610100D01*
X660400D01*
X990600Y4940300D01*
Y5422900D01*
X1066799Y5499100D01*
X1574800D01*
X1638300Y5435600D01*
D02*
G37*
G36*
X3359149Y4591050D02*
Y4311650D01*
X3340099Y4292600D01*
X3086100Y4292600D01*
X3060700Y4267200D01*
X2793999D01*
X2755900Y4305300D01*
Y4572000D01*
X2794000Y4610100D01*
X3340099D01*
X3359149Y4591050D01*
D02*
G37*
G36*
X2133599Y5435600D02*
X2133600Y5130800D01*
X2336800Y4927600D01*
X2641600D01*
X2730500Y4838700D01*
Y4318000D01*
X2628899Y4216400D01*
X1955800D01*
X1854200Y4318000D01*
Y4445000D01*
X1790700Y4508500D01*
X1574800D01*
X1498599Y4584700D01*
Y4851400D01*
X1689099Y5041900D01*
X1689100Y5435600D01*
X1752600Y5499100D01*
X2070100D01*
X2133599Y5435600D01*
D02*
G37*
G36*
X3937000Y4457700D02*
Y3962400D01*
X3874720Y3900120D01*
X3729320D01*
Y3995120D01*
X3701080D01*
X3695700Y4000500D01*
X3676271D01*
X3670306Y4009427D01*
X3655427Y4024306D01*
X3644505Y4031604D01*
X3637878Y4032922D01*
X3619500Y4051300D01*
Y4445000D01*
X3683000Y4508500D01*
X3886200D01*
X3937000Y4457700D01*
D02*
G37*
G36*
X3607180Y3694480D02*
X3663680D01*
Y3659058D01*
X3662833Y3654800D01*
Y3596145D01*
X3642384Y3575697D01*
X3416300D01*
Y3670300D01*
X3441700Y3695700D01*
X3607180D01*
Y3694480D01*
D02*
G37*
G36*
X3860800Y3390900D02*
X3847006Y3340100D01*
X3602476D01*
X3594100Y3378200D01*
Y3479800D01*
X3622663Y3508363D01*
X3656330D01*
X3669214Y3510926D01*
X3680136Y3518224D01*
X3720306Y3558394D01*
X3727604Y3569316D01*
X3730167Y3582200D01*
Y3599480D01*
X3779320D01*
Y3694480D01*
X3860800D01*
Y3390900D01*
D02*
G37*
G36*
X1841500Y1600200D02*
Y1511300D01*
X1816099Y1485900D01*
X1549400D01*
X1524000Y1511300D01*
Y1612900D01*
X1536700Y1625600D01*
X1816100D01*
X1841500Y1600200D01*
D02*
G37*
G36*
X1930400Y1231900D02*
X1727200D01*
X1644650Y1314450D01*
X1663700Y1333500D01*
X1930400D01*
Y1231900D01*
D02*
G37*
G36*
X1712550Y1217250D02*
X1719271Y1212759D01*
X1727200Y1211182D01*
X1727201Y1211182D01*
X1764394D01*
X1767890Y1208846D01*
X1777750Y1206885D01*
X1922849D01*
X1930400Y1200689D01*
Y1054100D01*
X1879600Y1003300D01*
X1574800D01*
X1524000Y1054100D01*
X1524011Y1271450D01*
X1533692Y1280033D01*
X1649767D01*
X1712550Y1217250D01*
D02*
G37*
D10*
X4089400Y1866562D02*
G03*
X3835400Y2120562I-254000J0D01*
G01*
X4089400Y1625600D02*
G03*
X4343400Y1371600I254000J0D01*
G01*
X3517900Y584200D02*
G03*
X3263900Y838200I-254000J0D01*
G01*
X1625600D02*
G03*
X1371600Y584200I0J-254000D01*
G01*
X3797300Y2400300D02*
G03*
X4051300Y2654300I0J254000D01*
G01*
X4281892Y3486150D02*
G03*
X4051300Y3255558I0J-230592D01*
G01*
X3493009Y2120562D02*
X3835400D01*
X4089400Y1625600D02*
Y1866562D01*
X4343400Y1371600D02*
X4631690D01*
X4800600D01*
X2836700Y838200D02*
X3263900D01*
X3517900Y266700D02*
Y584200D01*
X1371600Y266700D02*
Y584200D01*
X1625600Y838200D02*
X2159000D01*
X4051300Y2654300D02*
Y3255558D01*
X3456100Y2400300D02*
X3797300D01*
X4281892Y3486150D02*
X4635500D01*
X3517900Y114300D02*
Y266700D01*
X1371600Y101600D02*
Y266700D01*
X4635500Y3486150D02*
X4800600D01*
X2280000Y838200D02*
X2400300D01*
X2590000D02*
X2731700D01*
D11*
X3149599Y2184399D02*
G03*
X3303719Y2120561I154119J154119D01*
G01*
X3333871Y2401100D02*
G03*
X3362600Y2413000I0J40630D01*
G01*
X3149600Y2184400D02*
G03*
X3109283Y2201100I-40317J-40317D01*
G01*
X3086100Y2401100D02*
X3333871D01*
X3303719Y2120562D02*
X3385552D01*
X3086100Y2201100D02*
X3109283D01*
D12*
X2425317Y839616D02*
G03*
X2425700Y840539I-923J923D01*
G01*
X2421900Y838200D02*
X2425317Y839616D01*
X2315300Y1185200D02*
X2329080D01*
X2500431Y1191326D02*
X2500431Y1191326D01*
X2315300Y1250200D02*
X2358298D01*
X2732418Y1280782D02*
X2808800D01*
X2698000Y1315200D02*
X2732418Y1280782D01*
X2315300Y1315200D02*
X2698000D01*
X2675247Y1380200D02*
X2743799Y1448753D01*
X2808800D01*
X2315300Y1380200D02*
X2675247D01*
D13*
X2425700Y1094379D02*
G03*
X2400300Y1155700I-86721J0D01*
G01*
D02*
G03*
X2329080Y1185200I-71220J-71220D01*
G01*
X2590000Y975089D02*
G03*
X2500431Y1191326I-305805J-1D01*
G01*
X2500431Y1191326D02*
G03*
X2358298Y1250200I-142134J-142133D01*
G01*
X2184400Y1575600D02*
G03*
X2095100Y1486300I0J-89300D01*
G01*
X2490850Y1575600D02*
G03*
X2675150Y1651940I-0J260640D01*
G01*
X2490850Y1625600D02*
G03*
X2639795Y1687295I0J210640D01*
G01*
X2184400Y1625600D02*
G03*
X2045100Y1486300I0J-139299D01*
G01*
X2045101Y1486300D02*
G03*
X2216200Y1315200I171100J0D01*
G01*
X2095100Y1486300D02*
G03*
X2201200Y1380200I106100J0D01*
G01*
X2763708Y1811207D02*
G03*
X2823600Y1955800I-144593J144593D01*
G01*
X2799063Y1775852D02*
G03*
X2873600Y1955800I-179948J179948D01*
G01*
X2425700Y840539D02*
Y1094379D01*
X2590000Y838200D02*
Y975090D01*
X2184400Y1575600D02*
X2490850D01*
X2184400Y1625600D02*
X2490850D01*
X2216200Y1315200D02*
X2315300D01*
X2201200Y1380200D02*
X2315300D01*
X2639795Y1687295D02*
X2763708Y1811207D01*
X2823600Y2088600D02*
X2823600Y1955800D01*
X2675151Y1651940D02*
X2799063Y1775852D01*
X2873600Y1955800D02*
Y2088600D01*
D14*
X2370102Y1753300D02*
G03*
X2623600Y2006798I0J253498D01*
G01*
X2378854Y1854200D02*
G03*
X2573600Y2048946I0J194746D01*
G01*
X737420Y1313700D02*
G03*
X723900Y1308100I0J-19120D01*
G01*
X1028211Y1753300D02*
G03*
X835118Y1673318I0J-273074D01*
G01*
X2723799Y2301300D02*
X2798600Y2376100D01*
X2723799Y2088800D02*
Y2301300D01*
X2723600Y2088600D02*
X2723799Y2088800D01*
X3137860Y2699374D02*
X3183897Y2745411D01*
X3213100Y2451100D02*
X3216246Y2454246D01*
Y2470088D01*
X3086100Y2451100D02*
X3213100D01*
X3183897Y2745411D02*
X3289300Y2850814D01*
X3102086Y2663600D02*
X3137860Y2699374D01*
X3313923Y2336280D02*
X3327920D01*
X3350149D01*
X3299103Y2351100D02*
X3313923Y2336280D01*
X3086100Y2351100D02*
X3299103D01*
X3270362Y2216038D02*
X3271533Y2214867D01*
Y2214867D02*
X3277684Y2208716D01*
X3271533Y2214867D02*
Y2214867D01*
X3350149Y2336280D02*
X3388209Y2298220D01*
X3192753Y2222500D02*
X3201891Y2213362D01*
X3267685D01*
X3270362Y2216038D01*
X3133275Y2551100D02*
X3179487Y2597312D01*
X3147933Y2501100D02*
X3198424Y2551592D01*
X3390192D01*
X3179487Y2597312D02*
X3363711D01*
X3475280Y2708880D01*
X3390192Y2551592D02*
X3543300Y2704700D01*
X3086100Y2501100D02*
X3147933D01*
X3086100Y2551100D02*
X3133275D01*
X3164153Y2251100D02*
X3192753Y2222500D01*
X3086100Y2251100D02*
X3164153D01*
X3289300Y2850814D02*
Y3060700D01*
X3023600Y2663600D02*
X3102086D01*
X1720512Y1753300D02*
X2370102D01*
X1026300Y1868191D02*
X1037091Y1857400D01*
X737420Y1313700D02*
X1850300D01*
X2463800Y2921000D02*
Y3255869D01*
X2289868Y3364800D02*
X2354869D01*
X2463800Y3255869D01*
X3543300Y2704700D02*
Y2971800D01*
X3475280Y2708880D02*
Y3131246D01*
X3478781Y3134748D01*
X1028700Y2313400D02*
X1076312D01*
X1116412Y2273300D01*
X2398990D01*
X1028700Y2313400D02*
Y2323400D01*
X2398990Y2273300D02*
X2426790Y2301100D01*
X2511100D01*
X2923600Y2756321D02*
X3062600Y2895321D01*
Y2905000D01*
X3109500Y2951900D01*
X2923600Y2663600D02*
Y2756321D01*
X3109500Y2951900D02*
X3119900D01*
X3631621Y4000500D02*
X3646500Y3985621D01*
X3389300Y4000500D02*
X3631621D01*
X3646500Y3939800D02*
Y3985621D01*
X3206379Y1746621D02*
X3242300D01*
X3023600Y1929400D02*
Y2088600D01*
Y1929400D02*
X3206379Y1746621D01*
X3267100Y1714500D02*
Y1721821D01*
X3242300Y1746621D02*
X3267100Y1721821D01*
X3265500Y1524000D02*
X3266300Y1524800D01*
Y1713700D01*
X3267100Y1714500D01*
X2331000Y3523700D02*
X2552700Y3302000D01*
X2297798Y3546802D02*
Y3556902D01*
Y3546802D02*
X2320900Y3523700D01*
X2552700Y2896758D02*
Y3302000D01*
X2320900Y3523700D02*
X2331000D01*
X1346200Y3494100D02*
X1347000Y3494900D01*
X1548600D01*
X1549400Y3495700D01*
X1561363Y3493200D02*
X1650300D01*
X2479900Y2663600D01*
X2788920Y2862580D02*
Y3210920D01*
X2873600Y2663600D02*
Y2777900D01*
X2788920Y2862580D02*
X2873600Y2777900D01*
X2840300Y3262300D02*
X2842600D01*
X2912600Y3332300D02*
Y3334600D01*
X2842600Y3262300D02*
X2912600Y3332300D01*
X2788920Y3210920D02*
X2840300Y3262300D01*
X3156110Y3542030D02*
X3656330D01*
X3696500Y3582200D01*
X2823600Y2663600D02*
Y2751700D01*
X2743200Y2832100D02*
X2823600Y2751700D01*
X2743200Y2832100D02*
Y3390900D01*
X2552700Y2896758D02*
X2723600Y2725858D01*
Y2663600D02*
Y2725858D01*
X2673600Y2663600D02*
Y2711201D01*
X2463800Y2921000D02*
X2673600Y2711201D01*
X2421864Y3712236D02*
X2743200Y3390900D01*
X1418800Y1984900D02*
X1614678D01*
X1943100Y1854200D02*
X2378854D01*
X1037091Y1857400D02*
X1943100D01*
X2573600Y2048946D02*
Y2088600D01*
X749300Y1841500D02*
X1026300D01*
X723900Y1816100D02*
X749300Y1841500D01*
X2623600Y2006798D02*
Y2088600D01*
X1294100Y1753300D02*
X1358900D01*
X1594300D01*
X1028211D02*
X1294100D01*
X723900Y1562100D02*
X835118Y1673318D01*
X1594300Y1753300D02*
X1720512D01*
X2474202Y2500900D02*
X2510900D01*
X2511100Y2501100D01*
X2362200Y2388897D02*
X2474202Y2500900D01*
X2362200Y2387600D02*
Y2388897D01*
X723900Y2324100D02*
X1028000D01*
X1028700Y2323400D01*
X2361321Y3715279D02*
X2364364Y3712236D01*
X2421864D01*
X3124200Y1353900D02*
Y1358900D01*
X3051082Y1280782D02*
X3124200Y1353900D01*
X2968799Y1280782D02*
X3051082D01*
X3124200Y1358900D02*
Y1363900D01*
X3039347Y1448753D02*
X3124200Y1363900D01*
X2968799Y1448753D02*
X3039347D01*
X2510900Y2200900D02*
X2511100Y2201100D01*
X1612900Y2200900D02*
X2510900D01*
X2479900Y2663600D02*
X2573600D01*
X3497990Y5490664D02*
X3502254Y5486400D01*
X3684600D01*
X3594599Y4586300D02*
X3616700D01*
X3517900Y4509600D02*
X3594599Y4586300D01*
X3517900Y4368800D02*
Y4509600D01*
X3696500Y3582200D02*
Y3654800D01*
X2971800Y3557600D02*
X3195650D01*
X3200400Y3562350D01*
X4360850Y4633900D02*
X4660900D01*
X4356100Y4629150D02*
X4360850Y4633900D01*
X4348950Y4636300D02*
X4356100Y4629150D01*
X3901700Y4636300D02*
X4348950D01*
D15*
X1809750Y266700D02*
D03*
X933450D02*
D03*
X4635500Y3924300D02*
D03*
Y3048000D02*
D03*
X4631690Y1809750D02*
D03*
Y933450D02*
D03*
X3956050Y266700D02*
D03*
X3079750D02*
D03*
D16*
X1809750D02*
D03*
X933450D02*
D03*
X3956050D02*
D03*
X3079750D02*
D03*
D17*
X4635500Y3924300D02*
D03*
Y3048000D02*
D03*
X4631690Y1809750D02*
D03*
Y933450D02*
D03*
D18*
X3505200Y5187950D02*
D03*
X3835400Y5200650D02*
D03*
X4356100Y4438650D02*
D03*
X3200400Y3752850D02*
D03*
X3835400Y5010150D02*
D03*
X3505200Y4997450D02*
D03*
X3200400Y3562350D02*
D03*
X4356100Y4629150D02*
D03*
D19*
X1418600Y1117600D02*
D03*
X2091700Y2680000D02*
D03*
Y2514600D02*
D03*
X2133600Y3556000D02*
D03*
X2129868Y3364800D02*
D03*
X3429000Y1981200D02*
D03*
X2293600Y3556000D02*
D03*
X2289868Y3364800D02*
D03*
X3269000Y1981200D02*
D03*
X2251700Y2514600D02*
D03*
X1578600Y1117600D02*
D03*
X2251700Y2680000D02*
D03*
D20*
X2362200Y3077200D02*
D03*
X2159000Y1952000D02*
D03*
X2641600Y3242300D02*
D03*
X2336800Y1952000D02*
D03*
X3378200Y2912100D02*
D03*
X2336800Y2112000D02*
D03*
X2641600Y3082300D02*
D03*
X2159000Y2112000D02*
D03*
X3378200Y2752100D02*
D03*
X2362200Y2917200D02*
D03*
D21*
X4065270Y4195365D02*
D03*
X3874770D02*
D03*
D22*
X1143000Y4160400D02*
D03*
Y4470400D02*
D03*
D23*
X1028700Y1537400D02*
D03*
X1294100Y1522313D02*
D03*
X1026300Y2072965D02*
D03*
X1028700Y2553400D02*
D03*
X1294100Y1752313D02*
D03*
X1028700Y1307400D02*
D03*
Y2323400D02*
D03*
X1026300Y1842965D02*
D03*
D24*
X1435100Y2129900D02*
D03*
Y1984900D02*
D03*
D25*
X3276600Y4167200D02*
D03*
X3517900Y4168800D02*
D03*
X4660900Y4433900D02*
D03*
X2971800Y3770300D02*
D03*
X1346200Y3694100D02*
D03*
X3517900Y4368800D02*
D03*
X1346200Y3494100D02*
D03*
X3276600Y4367200D02*
D03*
X1608012Y1558247D02*
D03*
Y1758247D02*
D03*
X1574800Y3494100D02*
D03*
Y3694100D02*
D03*
X3276600Y4560900D02*
D03*
Y4760900D02*
D03*
X1943100Y1857400D02*
D03*
Y2057400D02*
D03*
X4660900Y4633900D02*
D03*
X1612900Y1995500D02*
D03*
Y2195500D02*
D03*
X2971800Y3570300D02*
D03*
D26*
X3864600Y5486400D02*
D03*
X2421900Y838200D02*
D03*
X2581900D02*
D03*
X2808800Y1280782D02*
D03*
X2968799D02*
D03*
X2808800Y1448753D02*
D03*
X2968799D02*
D03*
X3704600Y5486400D02*
D03*
D27*
X3111500Y1193800D02*
D03*
Y1353800D02*
D03*
D28*
X3189300Y4000500D02*
D03*
X3465500Y1524000D02*
D03*
X3265500D02*
D03*
X3389300Y4000500D02*
D03*
X3267100Y1714500D02*
D03*
X3467100D02*
D03*
X2161142Y3728700D02*
D03*
X2361143D02*
D03*
D29*
X3759200Y4686300D02*
D03*
D30*
X3901700D02*
D03*
X3616700Y4586300D02*
D03*
Y4786300D02*
D03*
Y4736300D02*
D03*
Y4686300D02*
D03*
Y4636300D02*
D03*
X3901700Y4586300D02*
D03*
Y4636300D02*
D03*
Y4736300D02*
D03*
Y4786300D02*
D03*
D31*
X1850300Y1380200D02*
D03*
Y1185200D02*
D03*
Y1250200D02*
D03*
Y1315200D02*
D03*
X2315300Y1250200D02*
D03*
Y1185200D02*
D03*
Y1380200D02*
D03*
Y1315200D02*
D03*
D32*
X2798600Y2376100D02*
D03*
D33*
X2723600Y2088600D02*
D03*
X2673600D02*
D03*
X2623600D02*
D03*
X2573600D02*
D03*
X2723600Y2663600D02*
D03*
X2573600D02*
D03*
X2673600D02*
D03*
X2623600D02*
D03*
X2923600Y2088600D02*
D03*
X2873600D02*
D03*
X3023600D02*
D03*
X2973600D02*
D03*
X2773600D02*
D03*
X2823600D02*
D03*
X3023600Y2663600D02*
D03*
X2973600D02*
D03*
X2823600D02*
D03*
X2773600D02*
D03*
X2923600D02*
D03*
X2873600D02*
D03*
D34*
X3746500Y3797300D02*
D03*
D35*
Y3654800D02*
D03*
X3646500D02*
D03*
Y3939800D02*
D03*
X3696500D02*
D03*
X3796500Y3654800D02*
D03*
X3846500D02*
D03*
X3696500D02*
D03*
X3746500Y3939800D02*
D03*
X3796500D02*
D03*
X3846500D02*
D03*
D36*
X1371600Y266700D02*
D03*
X3517900D02*
D03*
D37*
X4635500Y3486150D02*
D03*
X4631690Y1371600D02*
D03*
D38*
X2743200Y838200D02*
D03*
X2825200D02*
D03*
X2181500D02*
D03*
X2263500D02*
D03*
X3467552Y2120562D02*
D03*
X3444600Y2400300D02*
D03*
D39*
X3343800Y5486400D02*
D03*
X3488800D02*
D03*
D40*
X2319472Y4572600D02*
D03*
D41*
X2919472Y4344600D02*
D03*
Y4800600D02*
D03*
D42*
X2511100Y2151100D02*
D03*
Y2251100D02*
D03*
Y2201100D02*
D03*
Y2501100D02*
D03*
Y2551100D02*
D03*
Y2401100D02*
D03*
Y2451100D02*
D03*
Y2601100D02*
D03*
Y2301100D02*
D03*
Y2351100D02*
D03*
X3086100Y2151100D02*
D03*
Y2201100D02*
D03*
Y2251100D02*
D03*
Y2301100D02*
D03*
Y2451100D02*
D03*
Y2501100D02*
D03*
Y2351100D02*
D03*
Y2401100D02*
D03*
Y2551100D02*
D03*
Y2601100D02*
D03*
D43*
X2899900Y2977300D02*
D03*
Y3347300D02*
D03*
X3119900Y2977300D02*
D03*
Y3347300D02*
D03*
D44*
X3385552Y2120562D02*
D03*
X3362600Y2400300D02*
D03*
D45*
X3086100Y2301100D02*
X3236100D01*
X3255044Y2282156D01*
X3264000D01*
Y2284678D01*
X3262861Y2288080D02*
X3264000D01*
Y2284678D02*
Y2288080D01*
D46*
X1638300Y4406900D02*
D03*
D47*
X635000Y4064000D02*
D03*
D48*
Y4445000D02*
D03*
X723900Y1816100D02*
D03*
Y3086100D02*
D03*
Y2324100D02*
D03*
Y1562100D02*
D03*
Y2578100D02*
D03*
Y2070100D02*
D03*
Y3340100D02*
D03*
Y2832100D02*
D03*
D49*
X1917700Y5283200D02*
D03*
X1447700D02*
D03*
D50*
X2387700D02*
D03*
D51*
X1638300Y4606900D02*
D03*
D52*
X723900Y1308100D02*
D03*
D53*
X4546600Y355600D02*
D03*
X350000Y5350000D02*
D03*
X4550000D02*
D03*
X350000Y350000D02*
D03*
D54*
X2489200Y266700D02*
D03*
X877098Y3735998D02*
D03*
X1777098Y1935998D02*
D03*
X4477097Y4335997D02*
D03*
X1739697Y3270898D02*
D03*
X1327098Y4035998D02*
D03*
X114868Y2588934D02*
D03*
X4177097Y735999D02*
D03*
X1927097Y4035998D02*
D03*
X3092450Y571500D02*
D03*
X114868Y1826934D02*
D03*
X3086100Y1638300D02*
D03*
X1627098Y4035998D02*
D03*
X737168Y595034D02*
D03*
X4140200Y3810000D02*
D03*
X495868Y1687234D02*
D03*
X1447800Y2641600D02*
D03*
X1036068Y1675234D02*
D03*
X114868Y2830234D02*
D03*
X3733800Y1308100D02*
D03*
X1177098Y2535998D02*
D03*
X800668Y5535334D02*
D03*
X685800Y139700D02*
D03*
X4177097Y135999D02*
D03*
X356168Y734734D02*
D03*
X3454968Y1103034D02*
D03*
X3877097Y735999D02*
D03*
X877098Y4935997D02*
D03*
X114868Y2334934D02*
D03*
X2227097Y4035998D02*
D03*
X1027098D02*
D03*
X3450388Y3412235D02*
D03*
X991168Y2995334D02*
D03*
X521268Y3223934D02*
D03*
X4279900Y4013200D02*
D03*
X114868Y1547534D02*
D03*
X495868Y1953934D02*
D03*
X277098Y4335997D02*
D03*
X4477097Y735999D02*
D03*
X1436848Y1571048D02*
D03*
X277098Y4935997D02*
D03*
X521268Y2690534D02*
D03*
X368868Y3528734D02*
D03*
X4477097Y4935997D02*
D03*
X4699000Y4165600D02*
D03*
X3162868Y5217834D02*
D03*
X497004Y2966201D02*
D03*
X114868Y3350934D02*
D03*
X2527097Y4035998D02*
D03*
X1308668Y2957234D02*
D03*
X470468Y1103034D02*
D03*
X114868Y2080934D02*
D03*
X2845368Y4125634D02*
D03*
X577098Y4935997D02*
D03*
X427098Y4035998D02*
D03*
X2273300Y558800D02*
D03*
X2827097Y5235997D02*
D03*
X495868Y2207934D02*
D03*
X2628900Y558800D02*
D03*
X2985068Y5573434D02*
D03*
X1816100Y584200D02*
D03*
X1943100Y2616200D02*
D03*
X1156268Y2182534D02*
D03*
X496436Y2460067D02*
D03*
X114868Y3096934D02*
D03*
X991168Y925234D02*
D03*
X4027097Y5235997D02*
D03*
X508568Y1420534D02*
D03*
X4663877Y3602534D02*
D03*
X4463474Y3362127D02*
D03*
X4676577Y3373934D02*
D03*
X4447977Y1253034D02*
D03*
X4651177Y1481634D02*
D03*
X4663877Y1253034D02*
D03*
X3632200Y165100D02*
D03*
X3644900Y355600D02*
D03*
X3403600Y381000D02*
D03*
X1247577Y176648D02*
D03*
X1494976Y96687D02*
D03*
X1495623Y356687D02*
D03*
X1247577Y436648D02*
D03*
X4584700Y1981200D02*
D03*
X4368800Y2870200D02*
D03*
X3556000Y2565400D02*
D03*
X3670300Y5295900D02*
D03*
X3060700Y3873500D02*
D03*
X4114800Y965200D02*
D03*
X4241800Y2209800D02*
D03*
X2670176Y1123272D02*
D03*
X2641600Y3352800D02*
D03*
X2451100Y1981200D02*
D03*
X3390900Y3073400D02*
D03*
X2133600Y2349500D02*
D03*
X2028273Y3455859D02*
D03*
X2247900Y3022600D02*
D03*
X965200Y3187700D02*
D03*
X1536700Y3035300D02*
D03*
X1727200Y2603500D02*
D03*
X1282700Y3365500D02*
D03*
X2038232Y1675128D02*
D03*
X1917224Y1479766D02*
D03*
X2700794Y1557481D02*
D03*
X2932036Y1834913D02*
D03*
X2578101Y1731882D02*
D03*
X2343770Y1500080D02*
D03*
X2096526Y1278066D02*
D03*
X2368432Y1688420D02*
D03*
X2679700Y977900D02*
D03*
X2324100Y990600D02*
D03*
X1587500Y952500D02*
D03*
X1892300D02*
D03*
X2146240Y962223D02*
D03*
X2260680Y728763D02*
D03*
X2001089Y714177D02*
D03*
X1741089D02*
D03*
X1500074Y616648D02*
D03*
X1264716Y696083D02*
D03*
X3327400Y952500D02*
D03*
X3543300Y838200D02*
D03*
X3636856Y642891D02*
D03*
X3390900Y558800D02*
D03*
X3224475Y714177D02*
D03*
X2964475D02*
D03*
X2893949Y962223D02*
D03*
X3111500Y965200D02*
D03*
X2748575Y714177D02*
D03*
X2507275D02*
D03*
X1372240Y886023D02*
D03*
X3838459Y2244266D02*
D03*
X4081645Y2152287D02*
D03*
X4208357Y1925253D02*
D03*
X4213423Y1665302D02*
D03*
X4236813Y1263281D02*
D03*
X4028066Y1418281D02*
D03*
X3965377Y1670610D02*
D03*
X3948347Y1930052D02*
D03*
X3696992Y1996539D02*
D03*
X4343400Y3606800D02*
D03*
X4205496Y3329766D02*
D03*
X4175323Y3071522D02*
D03*
Y2811522D02*
D03*
X4160633Y2551938D02*
D03*
X4008312Y2341229D02*
D03*
X3857105Y2539383D02*
D03*
X3927277Y2789734D02*
D03*
X4127500Y3568700D02*
D03*
X3911600Y2971800D02*
D03*
X3949700Y3403600D02*
D03*
X4333677Y1494334D02*
D03*
X4397177Y2421434D02*
D03*
X4638477Y2573834D02*
D03*
X4778177Y745034D02*
D03*
X3711377Y1710234D02*
D03*
X3278677Y1380034D02*
D03*
X3262861Y2288080D02*
D03*
X3205440Y2677831D02*
D03*
X3216246Y2470088D02*
D03*
X2667000Y2908300D02*
D03*
X2463800Y2794000D02*
D03*
X3067341Y2794111D02*
D03*
X3277684Y2208716D02*
D03*
X3388209Y2298220D02*
D03*
X3478781Y3134748D02*
D03*
X3289300Y3060700D02*
D03*
D55*
X2679700Y2540000D02*
D03*
X2946400D02*
D03*
X2641600Y2220060D02*
D03*
X2959100D02*
D03*
X1765300Y1549400D02*
D03*
X1752600Y1079500D02*
D03*
X3175000Y5486400D02*
D03*
X3543300Y2971800D02*
D03*
X2362200Y2387600D02*
D03*
D56*
X2794000Y2386720D02*
D03*
X3492500Y3632200D02*
D03*
X1905000Y3708400D02*
D03*
X3721100Y4089400D02*
D03*
X2387600Y2578100D02*
D03*
X2057400Y2933700D02*
D03*
X3721100Y3454400D02*
D03*
X3441700Y4749800D02*
D03*
X4089400Y4445000D02*
D03*
D57*
X3741035Y3801919D02*
D03*
D58*
X3759200Y4660900D02*
D03*
D59*
X1790700Y2082800D02*
D03*
X3124200Y1968500D02*
D03*
X2717800Y1943100D02*
D03*
D60*
X4089400Y4864100D02*
D03*
%TF.MD5,e8db7dc8d14e5abde6113b4e5f29b6a4*%
M02*
