%TF.GenerationSoftware,Altium Limited,Altium Designer,26.2.0 (7)*%
G04 Layer_Color=8421504*
%FSLAX45Y45*%
%MOMM*%
%TF.SameCoordinates,967EC996-BA40-4DDD-8038-9AD993A35BAC*%
%TF.FilePolarity,Positive*%
%TF.FileFunction,Paste,Top*%
%TF.Part,Single*%
G01*
G75*
%TA.AperFunction,ConnectorPad*%
%ADD16R,2.41300X5.08000*%
%ADD17R,5.08000X2.41300*%
%TA.AperFunction,SMDPad,CuDef*%
%ADD18R,1.54940X1.11760*%
%ADD19R,0.80000X0.90000*%
%ADD20R,0.90000X0.80000*%
%ADD21R,1.11760X1.54940*%
%ADD22R,1.22000X1.20000*%
%ADD23R,0.50000X1.07500*%
%ADD24R,0.80000X0.60000*%
%ADD25R,1.30000X0.75000*%
%ADD26R,0.75000X0.85000*%
%ADD27R,0.85000X0.75000*%
%ADD28R,0.75000X1.30000*%
%ADD29R,1.65000X2.38000*%
%ADD30R,0.70000X0.25000*%
G04:AMPARAMS|DCode=31|XSize=0.45mm|YSize=1.55mm|CornerRadius=0.0495mm|HoleSize=0mm|Usage=FLASHONLY|Rotation=270.000|XOffset=0mm|YOffset=0mm|HoleType=Round|Shape=RoundedRectangle|*
%AMROUNDEDRECTD31*
21,1,0.45000,1.45100,0,0,270.0*
21,1,0.35100,1.55000,0,0,270.0*
1,1,0.09900,-0.72550,-0.17550*
1,1,0.09900,-0.72550,0.17550*
1,1,0.09900,0.72550,0.17550*
1,1,0.09900,0.72550,-0.17550*
%
%ADD31ROUNDEDRECTD31*%
%ADD32C,4.18500*%
%ADD33R,0.25000X0.55000*%
%ADD34R,2.38000X1.65000*%
%ADD35R,0.25000X0.70000*%
%TA.AperFunction,ConnectorPad*%
%ADD36R,0.85000X5.08000*%
%ADD37R,5.08000X0.85000*%
%TA.AperFunction,SMDPad,CuDef*%
%ADD38R,0.70000X0.85000*%
%ADD39R,0.60000X0.80000*%
%ADD40R,7.20000X5.60000*%
%ADD41R,3.00000X1.00000*%
%ADD42R,0.55000X0.25000*%
%ADD43R,1.40000X1.70000*%
%ADD44R,0.70000X0.62000*%
G36*
X3031100Y2143600D02*
X2566100D01*
Y2573600D01*
X2601100Y2608600D01*
X3031100D01*
Y2143600D01*
D02*
G37*
D16*
X1809750Y266700D02*
D03*
X933450D02*
D03*
X3956050D02*
D03*
X3079750D02*
D03*
D17*
X4635500Y3924300D02*
D03*
Y3048000D02*
D03*
X4631690Y1809750D02*
D03*
Y933450D02*
D03*
D18*
X3505200Y5187950D02*
D03*
X3835400Y5200650D02*
D03*
X4356100Y4438650D02*
D03*
X3200400Y3752850D02*
D03*
X3835400Y5010150D02*
D03*
X3505200Y4997450D02*
D03*
X3200400Y3562350D02*
D03*
X4356100Y4629150D02*
D03*
D19*
X1418600Y1117600D02*
D03*
X2091700Y2680000D02*
D03*
Y2514600D02*
D03*
X2133600Y3556000D02*
D03*
X2129868Y3364800D02*
D03*
X3429000Y1981200D02*
D03*
X2293600Y3556000D02*
D03*
X2289868Y3364800D02*
D03*
X3269000Y1981200D02*
D03*
X2251700Y2514600D02*
D03*
X1578600Y1117600D02*
D03*
X2251700Y2680000D02*
D03*
D20*
X2362200Y3077200D02*
D03*
X2159000Y1952000D02*
D03*
X2641600Y3242300D02*
D03*
X2336800Y1952000D02*
D03*
X3378200Y2912100D02*
D03*
X2336800Y2112000D02*
D03*
X2641600Y3082300D02*
D03*
X2159000Y2112000D02*
D03*
X3378200Y2752100D02*
D03*
X2362200Y2917200D02*
D03*
D21*
X4065270Y4195365D02*
D03*
X3874770D02*
D03*
D22*
X1143000Y4160400D02*
D03*
Y4470400D02*
D03*
D23*
X1028700Y1537400D02*
D03*
X1294100Y1522313D02*
D03*
X1026300Y2072965D02*
D03*
X1028700Y2553400D02*
D03*
X1294100Y1752313D02*
D03*
X1028700Y1307400D02*
D03*
Y2323400D02*
D03*
X1026300Y1842965D02*
D03*
D24*
X1435100Y2129900D02*
D03*
Y1984900D02*
D03*
D25*
X3276600Y4167200D02*
D03*
X3517900Y4168800D02*
D03*
X4660900Y4433900D02*
D03*
X2971800Y3770300D02*
D03*
X1346200Y3694100D02*
D03*
X3517900Y4368800D02*
D03*
X1346200Y3494100D02*
D03*
X3276600Y4367200D02*
D03*
X1608012Y1558247D02*
D03*
Y1758247D02*
D03*
X1574800Y3494100D02*
D03*
Y3694100D02*
D03*
X3276600Y4560900D02*
D03*
Y4760900D02*
D03*
X1943100Y1857400D02*
D03*
Y2057400D02*
D03*
X4660900Y4633900D02*
D03*
X1612900Y1995500D02*
D03*
Y2195500D02*
D03*
X2971800Y3570300D02*
D03*
D26*
X3864600Y5486400D02*
D03*
X2421900Y838200D02*
D03*
X2581900D02*
D03*
X2808800Y1280782D02*
D03*
X2968799D02*
D03*
X2808800Y1448753D02*
D03*
X2968799D02*
D03*
X3704600Y5486400D02*
D03*
D27*
X3111500Y1193800D02*
D03*
Y1353800D02*
D03*
D28*
X3189300Y4000500D02*
D03*
X3465500Y1524000D02*
D03*
X3265500D02*
D03*
X3389300Y4000500D02*
D03*
X3267100Y1714500D02*
D03*
X3467100D02*
D03*
X2161142Y3728700D02*
D03*
X2361143D02*
D03*
D29*
X3759200Y4686300D02*
D03*
D30*
X3901700D02*
D03*
X3616700Y4586300D02*
D03*
Y4786300D02*
D03*
Y4736300D02*
D03*
Y4686300D02*
D03*
Y4636300D02*
D03*
X3901700Y4586300D02*
D03*
Y4636300D02*
D03*
Y4736300D02*
D03*
Y4786300D02*
D03*
D31*
X1850300Y1380200D02*
D03*
Y1185200D02*
D03*
Y1250200D02*
D03*
Y1315200D02*
D03*
X2315300Y1250200D02*
D03*
Y1185200D02*
D03*
Y1380200D02*
D03*
Y1315200D02*
D03*
D32*
X2798600Y2376100D02*
D03*
D33*
X2723600Y2088600D02*
D03*
X2673600D02*
D03*
X2623600D02*
D03*
X2573600D02*
D03*
X2723600Y2663600D02*
D03*
X2573600D02*
D03*
X2673600D02*
D03*
X2623600D02*
D03*
X2923600Y2088600D02*
D03*
X2873600D02*
D03*
X3023600D02*
D03*
X2973600D02*
D03*
X2773600D02*
D03*
X2823600D02*
D03*
X3023600Y2663600D02*
D03*
X2973600D02*
D03*
X2823600D02*
D03*
X2773600D02*
D03*
X2923600D02*
D03*
X2873600D02*
D03*
D34*
X3746500Y3797300D02*
D03*
D35*
Y3654800D02*
D03*
X3646500D02*
D03*
Y3939800D02*
D03*
X3696500D02*
D03*
X3796500Y3654800D02*
D03*
X3846500D02*
D03*
X3696500D02*
D03*
X3746500Y3939800D02*
D03*
X3796500D02*
D03*
X3846500D02*
D03*
D36*
X1371600Y266700D02*
D03*
X3517900D02*
D03*
D37*
X4635500Y3486150D02*
D03*
X4631690Y1371600D02*
D03*
D38*
X2743200Y838200D02*
D03*
X2825200D02*
D03*
X2181500D02*
D03*
X2263500D02*
D03*
X3467552Y2120562D02*
D03*
X3444600Y2400300D02*
D03*
D39*
X3343800Y5486400D02*
D03*
X3488800D02*
D03*
D40*
X2319472Y4572600D02*
D03*
D41*
X2919472Y4344600D02*
D03*
Y4800600D02*
D03*
D42*
X2511100Y2151100D02*
D03*
Y2251100D02*
D03*
Y2201100D02*
D03*
Y2501100D02*
D03*
Y2551100D02*
D03*
Y2401100D02*
D03*
Y2451100D02*
D03*
Y2601100D02*
D03*
Y2301100D02*
D03*
Y2351100D02*
D03*
X3086100Y2151100D02*
D03*
Y2201100D02*
D03*
Y2251100D02*
D03*
Y2301100D02*
D03*
Y2451100D02*
D03*
Y2501100D02*
D03*
Y2351100D02*
D03*
Y2401100D02*
D03*
Y2551100D02*
D03*
Y2601100D02*
D03*
D43*
X2899900Y2977300D02*
D03*
Y3347300D02*
D03*
X3119900Y2977300D02*
D03*
Y3347300D02*
D03*
D44*
X3385552Y2120562D02*
D03*
X3362600Y2400300D02*
D03*
%TF.MD5,c47f8f36f5b98ba049e591b8fece56a9*%
M02*
