%TF.GenerationSoftware,Altium Limited,Altium Designer,26.2.0 (7)*%
G04 Layer_Physical_Order=5*
G04 Layer_Color=16440176*
%FSLAX45Y45*%
%MOMM*%
%TF.SameCoordinates,967EC996-BA40-4DDD-8038-9AD993A35BAC*%
%TF.FilePolarity,Positive*%
%TF.FileFunction,Copper,L5,Inr,Signal*%
%TF.Part,Single*%
G01*
G75*
%TA.AperFunction,ComponentPad*%
%ADD46R,1.50000X1.50000*%
%ADD47R,2.00000X2.00000*%
%ADD48C,2.00000*%
%ADD49C,2.77500*%
%ADD50R,2.77500X2.77500*%
%ADD51C,1.50000*%
G04:AMPARAMS|DCode=52|XSize=2mm|YSize=2mm|CornerRadius=0.5mm|HoleSize=0mm|Usage=FLASHONLY|Rotation=90.000|XOffset=0mm|YOffset=0mm|HoleType=Round|Shape=RoundedRectangle|*
%AMROUNDEDRECTD52*
21,1,2.00000,1.00000,0,0,90.0*
21,1,1.00000,2.00000,0,0,90.0*
1,1,1.00000,0.50000,0.50000*
1,1,1.00000,0.50000,-0.50000*
1,1,1.00000,-0.50000,-0.50000*
1,1,1.00000,-0.50000,0.50000*
%
%ADD52ROUNDEDRECTD52*%
%TA.AperFunction,ViaPad*%
%ADD53C,6.00000*%
%ADD54C,0.60000*%
%ADD55C,0.70000*%
%ADD56C,1.10000*%
%ADD57C,1.30000*%
%ADD58C,1.50000*%
%ADD59C,0.90000*%
%ADD60C,1.60000*%
G36*
X4408232Y5648492D02*
X4405759Y5636009D01*
X4382116Y5623962D01*
X4341326Y5594326D01*
X4305674Y5558674D01*
X4276038Y5517884D01*
X4253148Y5472960D01*
X4237567Y5425008D01*
X4229680Y5375210D01*
Y5324790D01*
X4237567Y5274991D01*
X4253148Y5227040D01*
X4276038Y5182116D01*
X4305674Y5141326D01*
X4341326Y5105674D01*
X4382116Y5076038D01*
X4427040Y5053148D01*
X4474992Y5037567D01*
X4524790Y5029680D01*
X4575210D01*
X4625009Y5037567D01*
X4672960Y5053148D01*
X4717884Y5076038D01*
X4758675Y5105674D01*
X4794326Y5141326D01*
X4823962Y5182116D01*
X4835964Y5205671D01*
X4848454Y5208155D01*
X4851400Y5205639D01*
Y492688D01*
X4848219Y489971D01*
X4836495Y492215D01*
X4820562Y523484D01*
X4790926Y564274D01*
X4755274Y599926D01*
X4714484Y629562D01*
X4669560Y652452D01*
X4621608Y668033D01*
X4571810Y675920D01*
X4521390D01*
X4471592Y668033D01*
X4423640Y652452D01*
X4378716Y629562D01*
X4337926Y599926D01*
X4302274Y564274D01*
X4272638Y523484D01*
X4249748Y478560D01*
X4234167Y430608D01*
X4226280Y380810D01*
Y330390D01*
X4234167Y280592D01*
X4249748Y232640D01*
X4272638Y187716D01*
X4302274Y146926D01*
X4337926Y111274D01*
X4378716Y81638D01*
X4409985Y65705D01*
X4412229Y53981D01*
X4409512Y50800D01*
X498859D01*
X496282Y53808D01*
X498755Y66291D01*
X517884Y76038D01*
X558675Y105674D01*
X594326Y141326D01*
X623962Y182116D01*
X646852Y227040D01*
X662433Y274992D01*
X670320Y324790D01*
Y375210D01*
X662433Y425009D01*
X646852Y472960D01*
X623962Y517884D01*
X594326Y558675D01*
X558675Y594326D01*
X517884Y623962D01*
X472960Y646852D01*
X425009Y662433D01*
X375210Y670320D01*
X324790D01*
X274992Y662433D01*
X227040Y646852D01*
X182116Y623962D01*
X141326Y594326D01*
X105674Y558675D01*
X76038Y517884D01*
X66291Y498755D01*
X53807Y496281D01*
X50798Y498859D01*
Y5201142D01*
X53807Y5203720D01*
X66290Y5201247D01*
X76038Y5182116D01*
X105674Y5141326D01*
X141326Y5105674D01*
X182116Y5076038D01*
X227040Y5053148D01*
X274992Y5037567D01*
X324790Y5029680D01*
X375210D01*
X425009Y5037567D01*
X472960Y5053148D01*
X517884Y5076038D01*
X558675Y5105674D01*
X594326Y5141326D01*
X623962Y5182116D01*
X646852Y5227040D01*
X662433Y5274991D01*
X670320Y5324790D01*
Y5375210D01*
X662433Y5425008D01*
X646852Y5472960D01*
X623962Y5517884D01*
X594326Y5558674D01*
X558675Y5594326D01*
X517884Y5623962D01*
X494418Y5635919D01*
X490878Y5648822D01*
X492527Y5651500D01*
X4405655D01*
X4408232Y5648492D01*
D02*
G37*
%LPC*%
G36*
X3186004Y5541720D02*
X3163996D01*
X3143664Y5533298D01*
X3128102Y5517736D01*
X3119680Y5497404D01*
Y5475396D01*
X3128102Y5455064D01*
X3143664Y5439502D01*
X3163996Y5431080D01*
X3186004D01*
X3206336Y5439502D01*
X3221898Y5455064D01*
X3230320Y5475396D01*
Y5497404D01*
X3221898Y5517736D01*
X3206336Y5533298D01*
X3186004Y5541720D01*
D02*
G37*
G36*
X2546770Y5442270D02*
X2228630D01*
Y5124130D01*
X2546770D01*
Y5442270D01*
D02*
G37*
G36*
X1933367D02*
X1902033D01*
X1871301Y5436157D01*
X1842352Y5424166D01*
X1816299Y5406758D01*
X1794142Y5384601D01*
X1776734Y5358548D01*
X1764743Y5329599D01*
X1758630Y5298867D01*
Y5267533D01*
X1764743Y5236801D01*
X1776734Y5207852D01*
X1794142Y5181799D01*
X1816299Y5159642D01*
X1842352Y5142234D01*
X1871301Y5130243D01*
X1902033Y5124130D01*
X1933367D01*
X1964099Y5130243D01*
X1993048Y5142234D01*
X2019101Y5159642D01*
X2041258Y5181799D01*
X2058666Y5207852D01*
X2070657Y5236801D01*
X2076770Y5267533D01*
Y5298867D01*
X2070657Y5329599D01*
X2058666Y5358548D01*
X2041258Y5384601D01*
X2019101Y5406758D01*
X1993048Y5424166D01*
X1964099Y5436157D01*
X1933367Y5442270D01*
D02*
G37*
G36*
X1463367D02*
X1432033D01*
X1401301Y5436157D01*
X1372352Y5424166D01*
X1346299Y5406758D01*
X1324142Y5384601D01*
X1306734Y5358548D01*
X1294743Y5329599D01*
X1288630Y5298867D01*
Y5267533D01*
X1294743Y5236801D01*
X1306734Y5207852D01*
X1324142Y5181799D01*
X1346299Y5159642D01*
X1372352Y5142234D01*
X1401301Y5130243D01*
X1432033Y5124130D01*
X1463367D01*
X1494099Y5130243D01*
X1523048Y5142234D01*
X1549101Y5159642D01*
X1571258Y5181799D01*
X1588666Y5207852D01*
X1600657Y5236801D01*
X1606770Y5267533D01*
Y5298867D01*
X1600657Y5329599D01*
X1588666Y5358548D01*
X1571258Y5384601D01*
X1549101Y5406758D01*
X1523048Y5424166D01*
X1494099Y5436157D01*
X1463367Y5442270D01*
D02*
G37*
G36*
X4102607Y4964420D02*
X4076193D01*
X4050678Y4957583D01*
X4027802Y4944376D01*
X4009124Y4925698D01*
X3995917Y4902822D01*
X3989080Y4877307D01*
Y4850893D01*
X3995917Y4825378D01*
X4009124Y4802502D01*
X4027802Y4783824D01*
X4050678Y4770617D01*
X4076193Y4763780D01*
X4102607D01*
X4128122Y4770617D01*
X4150998Y4783824D01*
X4169676Y4802502D01*
X4182883Y4825378D01*
X4189720Y4850893D01*
Y4877307D01*
X4182883Y4902822D01*
X4169676Y4925698D01*
X4150998Y4944376D01*
X4128122Y4957583D01*
X4102607Y4964420D01*
D02*
G37*
G36*
X3451616Y4825120D02*
X3431784D01*
X3412627Y4819987D01*
X3395452Y4810071D01*
X3381429Y4796048D01*
X3371513Y4778872D01*
X3366380Y4759716D01*
Y4739884D01*
X3371513Y4720728D01*
X3381429Y4703552D01*
X3395452Y4689529D01*
X3412627Y4679613D01*
X3431784Y4674480D01*
X3451616D01*
X3470772Y4679613D01*
X3487947Y4689529D01*
X3501971Y4703552D01*
X3511887Y4720728D01*
X3517020Y4739884D01*
Y4759716D01*
X3511887Y4778872D01*
X3501971Y4796048D01*
X3487947Y4810071D01*
X3470772Y4819987D01*
X3451616Y4825120D01*
D02*
G37*
G36*
X1650849Y4702220D02*
X1625751D01*
X1601508Y4695724D01*
X1579772Y4683175D01*
X1562025Y4665428D01*
X1549476Y4643692D01*
X1542980Y4619449D01*
Y4594351D01*
X1549476Y4570108D01*
X1562025Y4548372D01*
X1579772Y4530625D01*
X1601508Y4518076D01*
X1625751Y4511580D01*
X1650849D01*
X1675092Y4518076D01*
X1696828Y4530625D01*
X1714575Y4548372D01*
X1727124Y4570108D01*
X1733620Y4594351D01*
Y4619449D01*
X1727124Y4643692D01*
X1714575Y4665428D01*
X1696828Y4683175D01*
X1675092Y4695724D01*
X1650849Y4702220D01*
D02*
G37*
G36*
X4099316Y4520320D02*
X4079484D01*
X4060327Y4515187D01*
X4043152Y4505271D01*
X4029129Y4491248D01*
X4019213Y4474072D01*
X4014080Y4454916D01*
Y4435084D01*
X4019213Y4415928D01*
X4029129Y4398752D01*
X4043152Y4384729D01*
X4060327Y4374813D01*
X4079484Y4369680D01*
X4099316D01*
X4118472Y4374813D01*
X4135647Y4384729D01*
X4149671Y4398752D01*
X4159587Y4415928D01*
X4164720Y4435084D01*
Y4454916D01*
X4159587Y4474072D01*
X4149671Y4491248D01*
X4135647Y4505271D01*
X4118472Y4515187D01*
X4099316Y4520320D01*
D02*
G37*
G36*
X650840Y4565320D02*
X619159D01*
X588558Y4557120D01*
X561121Y4541280D01*
X538720Y4518878D01*
X522879Y4491442D01*
X514680Y4460840D01*
Y4429160D01*
X522879Y4398558D01*
X538720Y4371122D01*
X561121Y4348720D01*
X588558Y4332880D01*
X619159Y4324680D01*
X650840D01*
X681442Y4332880D01*
X708878Y4348720D01*
X731280Y4371122D01*
X747120Y4398558D01*
X755320Y4429160D01*
Y4460840D01*
X747120Y4491442D01*
X731280Y4518878D01*
X708878Y4541280D01*
X681442Y4557120D01*
X650840Y4565320D01*
D02*
G37*
G36*
X3731016Y4164720D02*
X3711184D01*
X3692027Y4159587D01*
X3674852Y4149671D01*
X3660829Y4135648D01*
X3650913Y4118472D01*
X3645780Y4099316D01*
Y4079484D01*
X3650913Y4060328D01*
X3660829Y4043152D01*
X3674852Y4029129D01*
X3692027Y4019213D01*
X3711184Y4014080D01*
X3731016D01*
X3750172Y4019213D01*
X3767347Y4029129D01*
X3781371Y4043152D01*
X3791287Y4060328D01*
X3796420Y4079484D01*
Y4099316D01*
X3791287Y4118472D01*
X3781371Y4135648D01*
X3767347Y4149671D01*
X3750172Y4159587D01*
X3731016Y4164720D01*
D02*
G37*
G36*
X1914916Y3783720D02*
X1895084D01*
X1875927Y3778587D01*
X1858752Y3768671D01*
X1844729Y3754648D01*
X1834813Y3737472D01*
X1829680Y3718316D01*
Y3698484D01*
X1834813Y3679328D01*
X1844729Y3662152D01*
X1858752Y3648129D01*
X1875927Y3638213D01*
X1895084Y3633080D01*
X1914916D01*
X1934072Y3638213D01*
X1951247Y3648129D01*
X1965271Y3662152D01*
X1975187Y3679328D01*
X1980320Y3698484D01*
Y3718316D01*
X1975187Y3737472D01*
X1965271Y3754648D01*
X1951247Y3768671D01*
X1934072Y3778587D01*
X1914916Y3783720D01*
D02*
G37*
G36*
X3502416Y3707520D02*
X3482584D01*
X3463428Y3702387D01*
X3446252Y3692471D01*
X3432229Y3678448D01*
X3422313Y3661272D01*
X3417180Y3642116D01*
Y3622284D01*
X3422313Y3603128D01*
X3432229Y3585952D01*
X3446252Y3571929D01*
X3463428Y3562013D01*
X3482584Y3556880D01*
X3502416D01*
X3521572Y3562013D01*
X3538748Y3571929D01*
X3552771Y3585952D01*
X3562687Y3603128D01*
X3567820Y3622284D01*
Y3642116D01*
X3562687Y3661272D01*
X3552771Y3678448D01*
X3538748Y3692471D01*
X3521572Y3702387D01*
X3502416Y3707520D01*
D02*
G37*
G36*
X3731016Y3529720D02*
X3711184D01*
X3692028Y3524587D01*
X3674852Y3514671D01*
X3660829Y3500648D01*
X3650913Y3483472D01*
X3645780Y3464316D01*
Y3444484D01*
X3650913Y3425328D01*
X3660829Y3408152D01*
X3674852Y3394129D01*
X3692028Y3384213D01*
X3711184Y3379080D01*
X3731016D01*
X3750172Y3384213D01*
X3767348Y3394129D01*
X3781371Y3408152D01*
X3791287Y3425328D01*
X3796420Y3444484D01*
Y3464316D01*
X3791287Y3483472D01*
X3781371Y3500648D01*
X3767348Y3514671D01*
X3750172Y3524587D01*
X3731016Y3529720D01*
D02*
G37*
G36*
X739740Y3460420D02*
X708059D01*
X677458Y3452220D01*
X650021Y3436380D01*
X627620Y3413978D01*
X611779Y3386542D01*
X603580Y3355940D01*
Y3324260D01*
X611779Y3293658D01*
X627620Y3266222D01*
X650021Y3243820D01*
X677458Y3227980D01*
X708059Y3219780D01*
X739740D01*
X770342Y3227980D01*
X797778Y3243820D01*
X820180Y3266222D01*
X836020Y3293658D01*
X844220Y3324260D01*
Y3355940D01*
X836020Y3386542D01*
X820180Y3413978D01*
X797778Y3436380D01*
X770342Y3452220D01*
X739740Y3460420D01*
D02*
G37*
G36*
X3488791Y3185068D02*
X3468772D01*
X3450278Y3177407D01*
X3436122Y3163251D01*
X3428462Y3144757D01*
Y3124738D01*
X3436122Y3106244D01*
X3450278Y3092089D01*
X3468772Y3084428D01*
X3488791D01*
X3507285Y3092089D01*
X3521441Y3106244D01*
X3529101Y3124738D01*
Y3144757D01*
X3521441Y3163251D01*
X3507285Y3177407D01*
X3488791Y3185068D01*
D02*
G37*
G36*
X3299309Y3111020D02*
X3279291D01*
X3260796Y3103359D01*
X3246641Y3089204D01*
X3238980Y3070709D01*
Y3050691D01*
X3246641Y3032196D01*
X3260796Y3018041D01*
X3279291Y3010380D01*
X3299309D01*
X3317804Y3018041D01*
X3331959Y3032196D01*
X3339620Y3050691D01*
Y3070709D01*
X3331959Y3089204D01*
X3317804Y3103359D01*
X3299309Y3111020D01*
D02*
G37*
G36*
X739740Y3206420D02*
X708059D01*
X677458Y3198220D01*
X650021Y3182380D01*
X627620Y3159978D01*
X611779Y3132542D01*
X603580Y3101940D01*
Y3070260D01*
X611779Y3039658D01*
X627620Y3012222D01*
X650021Y2989820D01*
X677458Y2973980D01*
X708059Y2965780D01*
X739740D01*
X770342Y2973980D01*
X797778Y2989820D01*
X820180Y3012222D01*
X836020Y3039658D01*
X844220Y3070260D01*
Y3101940D01*
X836020Y3132542D01*
X820180Y3159978D01*
X797778Y3182380D01*
X770342Y3198220D01*
X739740Y3206420D01*
D02*
G37*
G36*
X3554304Y3027120D02*
X3532296D01*
X3511964Y3018698D01*
X3496402Y3003136D01*
X3487980Y2982804D01*
Y2960796D01*
X3496402Y2940464D01*
X3511964Y2924902D01*
X3532296Y2916480D01*
X3554304D01*
X3574636Y2924902D01*
X3590198Y2940464D01*
X3598620Y2960796D01*
Y2982804D01*
X3590198Y3003136D01*
X3574636Y3018698D01*
X3554304Y3027120D01*
D02*
G37*
G36*
X2067316Y3009020D02*
X2047484D01*
X2028327Y3003887D01*
X2011152Y2993971D01*
X1997129Y2979948D01*
X1987213Y2962772D01*
X1982080Y2943616D01*
Y2923784D01*
X1987213Y2904628D01*
X1997129Y2887452D01*
X2011152Y2873429D01*
X2028327Y2863513D01*
X2047484Y2858380D01*
X2067316D01*
X2086472Y2863513D01*
X2103647Y2873429D01*
X2117671Y2887452D01*
X2127587Y2904628D01*
X2132720Y2923784D01*
Y2943616D01*
X2127587Y2962772D01*
X2117671Y2979948D01*
X2103647Y2993971D01*
X2086472Y3003887D01*
X2067316Y3009020D01*
D02*
G37*
G36*
X2677009Y2958620D02*
X2656991D01*
X2638496Y2950959D01*
X2624341Y2936804D01*
X2616680Y2918309D01*
Y2898291D01*
X2624341Y2879796D01*
X2638496Y2865641D01*
X2656991Y2857980D01*
X2677009D01*
X2695504Y2865641D01*
X2709659Y2879796D01*
X2717320Y2898291D01*
Y2918309D01*
X2709659Y2936804D01*
X2695504Y2950959D01*
X2677009Y2958620D01*
D02*
G37*
G36*
X3077350Y2844431D02*
X3057332D01*
X3038837Y2836770D01*
X3024682Y2822615D01*
X3017021Y2804120D01*
Y2784102D01*
X3024682Y2765607D01*
X3038837Y2751452D01*
X3057332Y2743791D01*
X3077350D01*
X3095845Y2751452D01*
X3110000Y2765607D01*
X3117661Y2784102D01*
Y2804120D01*
X3110000Y2822615D01*
X3095845Y2836770D01*
X3077350Y2844431D01*
D02*
G37*
G36*
X2473809Y2844320D02*
X2453791D01*
X2435296Y2836659D01*
X2421141Y2822504D01*
X2413480Y2804009D01*
Y2783991D01*
X2421141Y2765496D01*
X2435296Y2751341D01*
X2453791Y2743680D01*
X2473809D01*
X2492304Y2751341D01*
X2506459Y2765496D01*
X2514120Y2783991D01*
Y2804009D01*
X2506459Y2822504D01*
X2492304Y2836659D01*
X2473809Y2844320D01*
D02*
G37*
G36*
X739740Y2952420D02*
X708059D01*
X677458Y2944220D01*
X650021Y2928380D01*
X627620Y2905978D01*
X611779Y2878542D01*
X603580Y2847940D01*
Y2816260D01*
X611779Y2785658D01*
X627620Y2758222D01*
X650021Y2735820D01*
X677458Y2719980D01*
X708059Y2711780D01*
X739740D01*
X770342Y2719980D01*
X797778Y2735820D01*
X820180Y2758222D01*
X836020Y2785658D01*
X844220Y2816260D01*
Y2847940D01*
X836020Y2878542D01*
X820180Y2905978D01*
X797778Y2928380D01*
X770342Y2944220D01*
X739740Y2952420D01*
D02*
G37*
G36*
X3215449Y2728150D02*
X3195431D01*
X3176936Y2720490D01*
X3162781Y2706334D01*
X3155120Y2687840D01*
Y2667821D01*
X3162781Y2649327D01*
X3176936Y2635172D01*
X3195431Y2627511D01*
X3215449D01*
X3233944Y2635172D01*
X3248099Y2649327D01*
X3255760Y2667821D01*
Y2687840D01*
X3248099Y2706334D01*
X3233944Y2720490D01*
X3215449Y2728150D01*
D02*
G37*
G36*
X2397516Y2653420D02*
X2377684D01*
X2358527Y2648287D01*
X2341352Y2638371D01*
X2327329Y2624348D01*
X2317413Y2607172D01*
X2312280Y2588016D01*
Y2568184D01*
X2317413Y2549028D01*
X2327329Y2531852D01*
X2341352Y2517829D01*
X2358527Y2507913D01*
X2377684Y2502780D01*
X2397516D01*
X2416672Y2507913D01*
X2433847Y2517829D01*
X2447871Y2531852D01*
X2457787Y2549028D01*
X2462920Y2568184D01*
Y2588016D01*
X2457787Y2607172D01*
X2447871Y2624348D01*
X2433847Y2638371D01*
X2416672Y2648287D01*
X2397516Y2653420D01*
D02*
G37*
G36*
X739740Y2698420D02*
X708059D01*
X677458Y2690220D01*
X650021Y2674380D01*
X627620Y2651978D01*
X611779Y2624542D01*
X603580Y2593940D01*
Y2562260D01*
X611779Y2531658D01*
X627620Y2504222D01*
X650021Y2481820D01*
X677458Y2465980D01*
X708059Y2457780D01*
X739740D01*
X770342Y2465980D01*
X797778Y2481820D01*
X820180Y2504222D01*
X836020Y2531658D01*
X844220Y2562260D01*
Y2593940D01*
X836020Y2624542D01*
X820180Y2651978D01*
X797778Y2674380D01*
X770342Y2690220D01*
X739740Y2698420D01*
D02*
G37*
G36*
X3226255Y2520407D02*
X3206237D01*
X3187742Y2512747D01*
X3173587Y2498591D01*
X3165926Y2480097D01*
Y2460078D01*
X3173587Y2441584D01*
X3187742Y2427428D01*
X3206237Y2419768D01*
X3226255D01*
X3244750Y2427428D01*
X3258905Y2441584D01*
X3266566Y2460078D01*
Y2480097D01*
X3258905Y2498591D01*
X3244750Y2512747D01*
X3226255Y2520407D01*
D02*
G37*
G36*
X2373204Y2442920D02*
X2351196D01*
X2330864Y2434498D01*
X2315302Y2418936D01*
X2306880Y2398604D01*
Y2376596D01*
X2315302Y2356264D01*
X2330864Y2340702D01*
X2351196Y2332280D01*
X2373204D01*
X2393536Y2340702D01*
X2409098Y2356264D01*
X2417520Y2376596D01*
Y2398604D01*
X2409098Y2418936D01*
X2393536Y2434498D01*
X2373204Y2442920D01*
D02*
G37*
G36*
X3398218Y2348540D02*
X3378200D01*
X3359705Y2340879D01*
X3345550Y2326724D01*
X3337889Y2308229D01*
Y2288211D01*
X3345550Y2269716D01*
X3359705Y2255561D01*
X3378200Y2247900D01*
X3398218D01*
X3416713Y2255561D01*
X3430868Y2269716D01*
X3438529Y2288211D01*
Y2308229D01*
X3430868Y2326724D01*
X3416713Y2340879D01*
X3398218Y2348540D01*
D02*
G37*
G36*
X739740Y2444420D02*
X708059D01*
X677458Y2436220D01*
X650021Y2420380D01*
X627620Y2397978D01*
X611779Y2370542D01*
X603580Y2339940D01*
Y2308260D01*
X611779Y2277658D01*
X627620Y2250222D01*
X650021Y2227820D01*
X677458Y2211980D01*
X708059Y2203780D01*
X739740D01*
X770342Y2211980D01*
X797778Y2227820D01*
X820180Y2250222D01*
X836020Y2277658D01*
X844220Y2308260D01*
Y2339940D01*
X836020Y2370542D01*
X820180Y2397978D01*
X797778Y2420380D01*
X770342Y2436220D01*
X739740Y2444420D01*
D02*
G37*
G36*
X3272870Y2338400D02*
X3252852D01*
X3234357Y2330739D01*
X3220202Y2316584D01*
X3212541Y2298089D01*
Y2278071D01*
X3220202Y2259576D01*
X3234356Y2245421D01*
X3233999Y2234745D01*
X3227364Y2218725D01*
Y2198707D01*
X3235025Y2180212D01*
X3249180Y2166057D01*
X3267674Y2158396D01*
X3287693D01*
X3306187Y2166057D01*
X3320343Y2180212D01*
X3328004Y2198707D01*
Y2218725D01*
X3320343Y2237220D01*
X3306188Y2251375D01*
X3306545Y2262051D01*
X3313181Y2278071D01*
Y2298089D01*
X3305520Y2316584D01*
X3291365Y2330739D01*
X3272870Y2338400D01*
D02*
G37*
G36*
X1799299Y2148120D02*
X1782100D01*
X1765487Y2143669D01*
X1750592Y2135069D01*
X1738431Y2122907D01*
X1729831Y2108013D01*
X1725380Y2091399D01*
Y2074201D01*
X1729831Y2057587D01*
X1738431Y2042693D01*
X1750592Y2030531D01*
X1765487Y2021931D01*
X1782100Y2017480D01*
X1799299D01*
X1815912Y2021931D01*
X1830807Y2030531D01*
X1842969Y2042693D01*
X1851568Y2057587D01*
X1856020Y2074201D01*
Y2091399D01*
X1851568Y2108013D01*
X1842969Y2122907D01*
X1830807Y2135069D01*
X1815912Y2143669D01*
X1799299Y2148120D01*
D02*
G37*
G36*
X739740Y2190420D02*
X708059D01*
X677458Y2182220D01*
X650021Y2166380D01*
X627620Y2143978D01*
X611779Y2116542D01*
X603580Y2085940D01*
Y2054260D01*
X611779Y2023658D01*
X627620Y1996222D01*
X650021Y1973820D01*
X677458Y1957980D01*
X708059Y1949780D01*
X739740D01*
X770342Y1957980D01*
X797778Y1973820D01*
X820180Y1996222D01*
X836020Y2023658D01*
X844220Y2054260D01*
Y2085940D01*
X836020Y2116542D01*
X820180Y2143978D01*
X797778Y2166380D01*
X770342Y2182220D01*
X739740Y2190420D01*
D02*
G37*
G36*
X3132799Y2033820D02*
X3115600D01*
X3098987Y2029369D01*
X3084092Y2020769D01*
X3071931Y2008607D01*
X3063331Y1993713D01*
X3058880Y1977099D01*
Y1959901D01*
X3063331Y1943287D01*
X3071931Y1928393D01*
X3084092Y1916231D01*
X3098987Y1907631D01*
X3115600Y1903180D01*
X3132799D01*
X3149412Y1907631D01*
X3164307Y1916231D01*
X3176469Y1928393D01*
X3185068Y1943287D01*
X3189520Y1959901D01*
Y1977099D01*
X3185068Y1993713D01*
X3176469Y2008607D01*
X3164307Y2020769D01*
X3149412Y2029369D01*
X3132799Y2033820D01*
D02*
G37*
G36*
X2726399Y2008420D02*
X2709200D01*
X2692587Y2003969D01*
X2677692Y1995369D01*
X2665531Y1983207D01*
X2656931Y1968313D01*
X2652480Y1951699D01*
Y1934501D01*
X2656931Y1917887D01*
X2665531Y1902993D01*
X2677692Y1890831D01*
X2692587Y1882231D01*
X2709200Y1877780D01*
X2726399D01*
X2743012Y1882231D01*
X2757907Y1890831D01*
X2770069Y1902993D01*
X2778668Y1917887D01*
X2783120Y1934501D01*
Y1951699D01*
X2778668Y1968313D01*
X2770069Y1983207D01*
X2757907Y1995369D01*
X2743012Y2003969D01*
X2726399Y2008420D01*
D02*
G37*
G36*
X739740Y1936420D02*
X708059D01*
X677458Y1928220D01*
X650021Y1912380D01*
X627620Y1889978D01*
X611779Y1862542D01*
X603580Y1831940D01*
Y1800260D01*
X611779Y1769658D01*
X627620Y1742222D01*
X650021Y1719820D01*
X677458Y1703980D01*
X708059Y1695780D01*
X739740D01*
X770342Y1703980D01*
X797778Y1719820D01*
X820180Y1742222D01*
X836020Y1769658D01*
X844220Y1800260D01*
Y1831940D01*
X836020Y1862542D01*
X820180Y1889978D01*
X797778Y1912380D01*
X770342Y1928220D01*
X739740Y1936420D01*
D02*
G37*
G36*
X1776304Y1604720D02*
X1754296D01*
X1733964Y1596298D01*
X1718402Y1580736D01*
X1709980Y1560404D01*
Y1538396D01*
X1718402Y1518064D01*
X1733964Y1502502D01*
X1754296Y1494080D01*
X1776304D01*
X1796636Y1502502D01*
X1812198Y1518064D01*
X1820620Y1538396D01*
Y1560404D01*
X1812198Y1580736D01*
X1796636Y1596298D01*
X1776304Y1604720D01*
D02*
G37*
G36*
X739740Y1682420D02*
X708059D01*
X677458Y1674220D01*
X650021Y1658380D01*
X627620Y1635978D01*
X611779Y1608542D01*
X603580Y1577940D01*
Y1546260D01*
X611779Y1515658D01*
X627620Y1488222D01*
X650021Y1465820D01*
X677458Y1449980D01*
X708059Y1441780D01*
X739740D01*
X770342Y1449980D01*
X797778Y1465820D01*
X820180Y1488222D01*
X836020Y1515658D01*
X844220Y1546260D01*
Y1577940D01*
X836020Y1608542D01*
X820180Y1635978D01*
X797778Y1658380D01*
X770342Y1674220D01*
X739740Y1682420D01*
D02*
G37*
G36*
X773900Y1429027D02*
X673900D01*
X655543Y1426610D01*
X638436Y1419524D01*
X623747Y1408253D01*
X612475Y1393563D01*
X605390Y1376457D01*
X602973Y1358100D01*
Y1258100D01*
X605390Y1239743D01*
X612475Y1222637D01*
X623747Y1207947D01*
X638436Y1196676D01*
X655543Y1189590D01*
X673900Y1187173D01*
X773900D01*
X792257Y1189590D01*
X809363Y1196676D01*
X824053Y1207947D01*
X835324Y1222637D01*
X842410Y1239743D01*
X844827Y1258100D01*
Y1358100D01*
X842410Y1376457D01*
X835324Y1393563D01*
X824053Y1408253D01*
X809363Y1419524D01*
X792257Y1426610D01*
X773900Y1429027D01*
D02*
G37*
G36*
X1763604Y1134820D02*
X1741596D01*
X1721264Y1126398D01*
X1705702Y1110836D01*
X1697280Y1090504D01*
Y1068496D01*
X1705702Y1048164D01*
X1721264Y1032602D01*
X1741596Y1024180D01*
X1763604D01*
X1783936Y1032602D01*
X1799498Y1048164D01*
X1807920Y1068496D01*
Y1090504D01*
X1799498Y1110836D01*
X1783936Y1126398D01*
X1763604Y1134820D01*
D02*
G37*
%LPD*%
D46*
X1638300Y4406900D02*
D03*
D47*
X635000Y4064000D02*
D03*
D48*
Y4445000D02*
D03*
X723900Y1816100D02*
D03*
Y3086100D02*
D03*
Y2324100D02*
D03*
Y1562100D02*
D03*
Y2578100D02*
D03*
Y2070100D02*
D03*
Y3340100D02*
D03*
Y2832100D02*
D03*
D49*
X1917700Y5283200D02*
D03*
X1447700D02*
D03*
D50*
X2387700D02*
D03*
D51*
X1638300Y4606900D02*
D03*
D52*
X723900Y1308100D02*
D03*
D53*
X4546600Y355600D02*
D03*
X350000Y5350000D02*
D03*
X4550000D02*
D03*
X350000Y350000D02*
D03*
D54*
X2489200Y266700D02*
D03*
X877098Y3735998D02*
D03*
X1777098Y1935998D02*
D03*
X4477097Y4335997D02*
D03*
X1739697Y3270898D02*
D03*
X1327098Y4035998D02*
D03*
X114868Y2588934D02*
D03*
X4177097Y735999D02*
D03*
X1927097Y4035998D02*
D03*
X3092450Y571500D02*
D03*
X114868Y1826934D02*
D03*
X3086100Y1638300D02*
D03*
X1627098Y4035998D02*
D03*
X737168Y595034D02*
D03*
X4140200Y3810000D02*
D03*
X495868Y1687234D02*
D03*
X1447800Y2641600D02*
D03*
X1036068Y1675234D02*
D03*
X114868Y2830234D02*
D03*
X3733800Y1308100D02*
D03*
X1177098Y2535998D02*
D03*
X800668Y5535334D02*
D03*
X685800Y139700D02*
D03*
X4177097Y135999D02*
D03*
X356168Y734734D02*
D03*
X3454968Y1103034D02*
D03*
X3877097Y735999D02*
D03*
X877098Y4935997D02*
D03*
X114868Y2334934D02*
D03*
X2227097Y4035998D02*
D03*
X1027098D02*
D03*
X3450388Y3412235D02*
D03*
X991168Y2995334D02*
D03*
X521268Y3223934D02*
D03*
X4279900Y4013200D02*
D03*
X114868Y1547534D02*
D03*
X495868Y1953934D02*
D03*
X277098Y4335997D02*
D03*
X4477097Y735999D02*
D03*
X1436848Y1571048D02*
D03*
X277098Y4935997D02*
D03*
X521268Y2690534D02*
D03*
X368868Y3528734D02*
D03*
X4477097Y4935997D02*
D03*
X4699000Y4165600D02*
D03*
X3162868Y5217834D02*
D03*
X497004Y2966201D02*
D03*
X114868Y3350934D02*
D03*
X2527097Y4035998D02*
D03*
X1308668Y2957234D02*
D03*
X470468Y1103034D02*
D03*
X114868Y2080934D02*
D03*
X2845368Y4125634D02*
D03*
X577098Y4935997D02*
D03*
X427098Y4035998D02*
D03*
X2273300Y558800D02*
D03*
X2827097Y5235997D02*
D03*
X495868Y2207934D02*
D03*
X2628900Y558800D02*
D03*
X2985068Y5573434D02*
D03*
X1816100Y584200D02*
D03*
X1943100Y2616200D02*
D03*
X1156268Y2182534D02*
D03*
X496436Y2460067D02*
D03*
X114868Y3096934D02*
D03*
X991168Y925234D02*
D03*
X4027097Y5235997D02*
D03*
X508568Y1420534D02*
D03*
X4663877Y3602534D02*
D03*
X4463474Y3362127D02*
D03*
X4676577Y3373934D02*
D03*
X4447977Y1253034D02*
D03*
X4651177Y1481634D02*
D03*
X4663877Y1253034D02*
D03*
X3632200Y165100D02*
D03*
X3644900Y355600D02*
D03*
X3403600Y381000D02*
D03*
X1247577Y176648D02*
D03*
X1494976Y96687D02*
D03*
X1495623Y356687D02*
D03*
X1247577Y436648D02*
D03*
X4584700Y1981200D02*
D03*
X4368800Y2870200D02*
D03*
X3556000Y2565400D02*
D03*
X3670300Y5295900D02*
D03*
X3060700Y3873500D02*
D03*
X4114800Y965200D02*
D03*
X4241800Y2209800D02*
D03*
X2670176Y1123272D02*
D03*
X2641600Y3352800D02*
D03*
X2451100Y1981200D02*
D03*
X3390900Y3073400D02*
D03*
X2133600Y2349500D02*
D03*
X2028273Y3455859D02*
D03*
X2247900Y3022600D02*
D03*
X965200Y3187700D02*
D03*
X1536700Y3035300D02*
D03*
X1727200Y2603500D02*
D03*
X1282700Y3365500D02*
D03*
X2038232Y1675128D02*
D03*
X1917224Y1479766D02*
D03*
X2700794Y1557481D02*
D03*
X2932036Y1834913D02*
D03*
X2578101Y1731882D02*
D03*
X2343770Y1500080D02*
D03*
X2096526Y1278066D02*
D03*
X2368432Y1688420D02*
D03*
X2679700Y977900D02*
D03*
X2324100Y990600D02*
D03*
X1587500Y952500D02*
D03*
X1892300D02*
D03*
X2146240Y962223D02*
D03*
X2260680Y728763D02*
D03*
X2001089Y714177D02*
D03*
X1741089D02*
D03*
X1500074Y616648D02*
D03*
X1264716Y696083D02*
D03*
X3327400Y952500D02*
D03*
X3543300Y838200D02*
D03*
X3636856Y642891D02*
D03*
X3390900Y558800D02*
D03*
X3224475Y714177D02*
D03*
X2964475D02*
D03*
X2893949Y962223D02*
D03*
X3111500Y965200D02*
D03*
X2748575Y714177D02*
D03*
X2507275D02*
D03*
X1372240Y886023D02*
D03*
X3838459Y2244266D02*
D03*
X4081645Y2152287D02*
D03*
X4208357Y1925253D02*
D03*
X4213423Y1665302D02*
D03*
X4236813Y1263281D02*
D03*
X4028066Y1418281D02*
D03*
X3965377Y1670610D02*
D03*
X3948347Y1930052D02*
D03*
X3696992Y1996539D02*
D03*
X4343400Y3606800D02*
D03*
X4205496Y3329766D02*
D03*
X4175323Y3071522D02*
D03*
Y2811522D02*
D03*
X4160633Y2551938D02*
D03*
X4008312Y2341229D02*
D03*
X3857105Y2539383D02*
D03*
X3927277Y2789734D02*
D03*
X4127500Y3568700D02*
D03*
X3911600Y2971800D02*
D03*
X3949700Y3403600D02*
D03*
X4333677Y1494334D02*
D03*
X4397177Y2421434D02*
D03*
X4638477Y2573834D02*
D03*
X4778177Y745034D02*
D03*
X3711377Y1710234D02*
D03*
X3278677Y1380034D02*
D03*
X3262861Y2288080D02*
D03*
X3205440Y2677831D02*
D03*
X3216246Y2470088D02*
D03*
X2667000Y2908300D02*
D03*
X2463800Y2794000D02*
D03*
X3067341Y2794111D02*
D03*
X3277684Y2208716D02*
D03*
X3388209Y2298220D02*
D03*
X3478781Y3134748D02*
D03*
X3289300Y3060700D02*
D03*
D55*
X2679700Y2540000D02*
D03*
X2946400D02*
D03*
X2641600Y2220060D02*
D03*
X2959100D02*
D03*
X1765300Y1549400D02*
D03*
X1752600Y1079500D02*
D03*
X3175000Y5486400D02*
D03*
X3543300Y2971800D02*
D03*
X2362200Y2387600D02*
D03*
D56*
X2794000Y2386720D02*
D03*
X3492500Y3632200D02*
D03*
X1905000Y3708400D02*
D03*
X3721100Y4089400D02*
D03*
X2387600Y2578100D02*
D03*
X2057400Y2933700D02*
D03*
X3721100Y3454400D02*
D03*
X3441700Y4749800D02*
D03*
X4089400Y4445000D02*
D03*
D57*
X3741035Y3801919D02*
D03*
D58*
X3759200Y4660900D02*
D03*
D59*
X1790700Y2082800D02*
D03*
X3124200Y1968500D02*
D03*
X2717800Y1943100D02*
D03*
D60*
X4089400Y4864100D02*
D03*
%TF.MD5,50bb8a16ea1548e90eae4131b43491d5*%
M02*
