%TF.GenerationSoftware,Altium Limited,Altium Designer,26.2.0 (7)*%
G04 Layer_Color=65535*
%FSLAX45Y45*%
%MOMM*%
%TF.SameCoordinates,967EC996-BA40-4DDD-8038-9AD993A35BAC*%
%TF.FilePolarity,Positive*%
%TF.FileFunction,Legend,Top*%
%TF.Part,Single*%
G01*
G75*
%TA.AperFunction,NonConductor*%
%ADD72C,0.15240*%
%ADD73C,0.10000*%
%ADD74C,0.25000*%
%ADD75C,0.12500*%
%ADD76C,0.20000*%
%ADD77C,0.12700*%
%ADD78C,0.25400*%
G36*
X1605621Y2985395D02*
Y2973589D01*
X1568468D01*
Y2985395D01*
Y2996853D01*
X1605621D01*
Y2985395D01*
D02*
G37*
G36*
X1688606Y2960395D02*
X1689647D01*
X1691036Y2960048D01*
X1692772D01*
X1697286Y2959353D01*
X1701800Y2958312D01*
X1702494D01*
X1703883Y2957617D01*
X1705967Y2956923D01*
X1708744Y2955881D01*
X1712217Y2954839D01*
X1715689Y2953103D01*
X1722980Y2949284D01*
X1723328Y2948937D01*
X1724369Y2948589D01*
X1725758Y2947548D01*
X1727147Y2946506D01*
X1734091Y2941645D01*
Y2919076D01*
Y2896507D01*
X1698675D01*
Y2901368D01*
Y2902062D01*
Y2903451D01*
X1698328Y2905534D01*
X1697981Y2907965D01*
X1697286Y2911090D01*
X1696245Y2913868D01*
X1694856Y2916993D01*
X1693120Y2919423D01*
X1692772Y2919770D01*
X1691731Y2920465D01*
X1690342Y2921506D01*
X1688953Y2922548D01*
X1688606D01*
X1687564Y2922895D01*
X1685828Y2923243D01*
X1683745Y2923590D01*
X1681314Y2923243D01*
X1678536Y2922895D01*
X1675759Y2921854D01*
X1673328Y2920118D01*
X1672981Y2919770D01*
X1672634Y2919423D01*
X1671592Y2918382D01*
X1670550Y2916993D01*
X1669509Y2915257D01*
X1668814Y2912826D01*
X1668120Y2910395D01*
X1667773Y2907618D01*
Y2907271D01*
Y2906576D01*
X1668120Y2905187D01*
X1668467Y2903798D01*
X1669856Y2899979D01*
X1670898Y2898243D01*
X1672634Y2896507D01*
X1672981Y2896160D01*
X1673675Y2895812D01*
X1675064Y2894771D01*
X1677148Y2893729D01*
X1679925Y2891993D01*
X1683745Y2889910D01*
X1688258Y2887826D01*
X1693467Y2885396D01*
X1694161Y2885049D01*
X1695550Y2884354D01*
X1697981Y2883312D01*
X1700411Y2882271D01*
X1706661Y2879493D01*
X1709092Y2878104D01*
X1711522Y2876715D01*
X1711869D01*
X1712217Y2876368D01*
X1714300Y2874632D01*
X1717425Y2872202D01*
X1721244Y2869077D01*
X1725064Y2864910D01*
X1728883Y2860049D01*
X1732355Y2854146D01*
X1734786Y2847549D01*
Y2847202D01*
X1735133Y2846507D01*
X1735480Y2845119D01*
X1735827Y2843730D01*
X1736175Y2839563D01*
X1736522Y2834702D01*
Y2834008D01*
Y2832619D01*
Y2829841D01*
Y2826369D01*
Y2825674D01*
Y2824285D01*
Y2822202D01*
X1736175Y2819424D01*
X1735827Y2813522D01*
X1735133Y2811091D01*
X1734786Y2809008D01*
Y2808661D01*
X1734438Y2807966D01*
X1734091Y2806577D01*
X1733397Y2804841D01*
Y2804494D01*
X1733050Y2803800D01*
X1732355Y2802758D01*
X1731661Y2801022D01*
X1729577Y2797202D01*
X1726452Y2792341D01*
X1722633Y2787133D01*
X1717772Y2781925D01*
X1711869Y2777411D01*
X1708397Y2775675D01*
X1704925Y2773939D01*
X1704578D01*
X1703189Y2773592D01*
X1701106Y2773244D01*
X1699022Y2772550D01*
X1698675D01*
X1696939Y2772203D01*
X1694856Y2771508D01*
X1691731Y2771161D01*
X1688258Y2770814D01*
X1684092Y2770467D01*
X1679578D01*
X1675064Y2770814D01*
X1674370D01*
X1673328Y2771161D01*
X1671939Y2771508D01*
X1668467Y2772203D01*
X1664300Y2773592D01*
X1659092Y2775328D01*
X1653537Y2777411D01*
X1647634Y2780189D01*
X1641731Y2783661D01*
X1641384Y2784008D01*
X1639995Y2785050D01*
X1637912Y2786439D01*
X1636176Y2787828D01*
X1631662Y2791647D01*
Y2815258D01*
Y2838869D01*
X1667773D01*
X1668120Y2830188D01*
Y2829841D01*
Y2828799D01*
X1668467Y2827063D01*
X1668814Y2824980D01*
X1669509Y2820466D01*
X1670203Y2818383D01*
X1671245Y2816647D01*
X1671592Y2816299D01*
X1672286Y2815605D01*
X1673328Y2814216D01*
X1675064Y2812827D01*
X1675411Y2812480D01*
X1676800Y2811438D01*
X1678189Y2810744D01*
X1679925Y2810049D01*
X1685828D01*
X1687911Y2810397D01*
X1690689Y2811091D01*
X1691731Y2811438D01*
X1692772Y2812133D01*
X1693120Y2812480D01*
X1693467Y2812827D01*
X1693814Y2813174D01*
X1694508Y2813869D01*
X1695550Y2815258D01*
X1696939Y2817341D01*
X1697981Y2819424D01*
X1699022Y2822202D01*
X1699369Y2825674D01*
Y2829146D01*
Y2829494D01*
X1699022Y2830883D01*
X1698675Y2832619D01*
X1697633Y2834702D01*
X1696592Y2837133D01*
X1694856Y2839910D01*
X1692772Y2842341D01*
X1690342Y2844771D01*
X1689995D01*
X1689300Y2845466D01*
X1688258Y2846160D01*
X1686175Y2847202D01*
X1683745Y2848591D01*
X1680620Y2850327D01*
X1676800Y2852410D01*
X1671939Y2854493D01*
X1671592D01*
X1671245Y2854841D01*
X1670203Y2855535D01*
X1668814Y2855882D01*
X1665689Y2857618D01*
X1661523Y2859702D01*
X1657009Y2862132D01*
X1652842Y2864910D01*
X1648676Y2867688D01*
X1645551Y2870118D01*
X1645203Y2870465D01*
X1644509Y2871160D01*
X1642426Y2873590D01*
X1642079Y2873938D01*
X1641037Y2875326D01*
X1639648Y2877410D01*
X1637565Y2880535D01*
X1635829Y2884007D01*
X1634092Y2888174D01*
X1632704Y2892687D01*
X1631662Y2897896D01*
Y2898590D01*
X1631315Y2900326D01*
Y2902757D01*
X1630968Y2906229D01*
Y2910048D01*
X1631315Y2914562D01*
X1631662Y2918729D01*
X1632356Y2923243D01*
Y2923590D01*
X1632704Y2923937D01*
X1633051Y2925673D01*
X1633398Y2926368D01*
X1633745Y2927756D01*
X1634787Y2930187D01*
X1636176Y2933312D01*
X1638259Y2936784D01*
X1640690Y2940603D01*
X1643815Y2944423D01*
X1647634Y2948242D01*
X1647981Y2948589D01*
X1648328Y2948937D01*
X1650412Y2950673D01*
X1653189Y2953103D01*
X1656662Y2955187D01*
X1657356Y2955534D01*
X1659092Y2956228D01*
X1661870Y2957270D01*
X1665342Y2958312D01*
X1670203Y2959353D01*
X1675411Y2960048D01*
X1681661Y2960742D01*
X1688606Y2960395D01*
D02*
G37*
G36*
X1807701Y2961784D02*
X1808396D01*
X1809785Y2961437D01*
X1811868Y2960742D01*
X1814646Y2960048D01*
X1817771Y2959006D01*
X1820896Y2957270D01*
X1824368Y2955534D01*
X1827146Y2953103D01*
X1827493D01*
X1827840Y2952409D01*
X1829576Y2951020D01*
X1829923Y2950673D01*
X1830965Y2949284D01*
X1832701Y2947201D01*
X1834437Y2944423D01*
X1836521Y2940603D01*
X1838604Y2936090D01*
X1840340Y2930881D01*
X1841729Y2924979D01*
Y2924631D01*
Y2924284D01*
X1842076Y2923243D01*
Y2921854D01*
X1842423Y2920118D01*
X1842771Y2918034D01*
Y2915604D01*
X1843118Y2912826D01*
X1843465Y2909701D01*
X1843812Y2905882D01*
Y2902062D01*
X1844159Y2897548D01*
Y2892687D01*
X1844507Y2887479D01*
Y2881576D01*
Y2875674D01*
Y2854493D01*
X1786868D01*
Y2850327D01*
Y2849632D01*
Y2848243D01*
Y2845466D01*
X1787216Y2842341D01*
X1787563Y2838174D01*
X1787910Y2833660D01*
X1788604Y2828452D01*
X1789299Y2823244D01*
Y2822897D01*
X1789646Y2821508D01*
Y2820466D01*
X1789993Y2819424D01*
Y2819077D01*
X1790341Y2818383D01*
X1791035Y2817341D01*
X1791729Y2815952D01*
X1794160Y2812827D01*
X1795549Y2811786D01*
X1797632Y2810744D01*
X1797979D01*
X1798674Y2810397D01*
X1801104D01*
X1802493Y2810744D01*
X1804229Y2811091D01*
X1805965Y2812133D01*
X1807354Y2813522D01*
X1807701Y2813869D01*
X1808396Y2814911D01*
X1808743Y2815605D01*
X1809438Y2817341D01*
X1809785Y2818730D01*
X1810479Y2820466D01*
X1810826Y2822897D01*
X1811174Y2825327D01*
Y2825674D01*
X1811521Y2826369D01*
Y2827758D01*
X1811868Y2829146D01*
X1812215Y2832619D01*
X1812563Y2834008D01*
Y2835049D01*
Y2835396D01*
X1812910Y2835744D01*
X1813604Y2836091D01*
X1814299Y2836438D01*
X1815688D01*
X1816729Y2836785D01*
X1844507D01*
Y2814216D01*
Y2791647D01*
X1837562Y2785744D01*
X1836868Y2785397D01*
X1835479Y2784008D01*
X1832701Y2782272D01*
X1829576Y2780189D01*
X1825410Y2777758D01*
X1821243Y2775675D01*
X1816729Y2773592D01*
X1811868Y2772203D01*
X1811521D01*
X1810132Y2771856D01*
X1808049Y2771508D01*
X1805271Y2771161D01*
X1801799Y2770814D01*
X1797979D01*
X1794160Y2771161D01*
X1789646Y2771508D01*
X1789299D01*
X1787910Y2771856D01*
X1786521Y2772550D01*
X1784785Y2772897D01*
X1784438D01*
X1784091Y2773244D01*
X1782007Y2773939D01*
X1778882Y2775675D01*
X1775410Y2778105D01*
X1771244Y2781230D01*
X1767077Y2785397D01*
X1763605Y2790605D01*
X1760480Y2796855D01*
Y2797202D01*
X1760133Y2797550D01*
X1759785Y2799286D01*
X1758744Y2801716D01*
X1758049Y2804494D01*
Y2804841D01*
Y2805188D01*
X1757702Y2806230D01*
X1757355Y2807272D01*
Y2809008D01*
X1757008Y2811438D01*
X1756660Y2813869D01*
X1756313Y2817341D01*
X1755966Y2821160D01*
X1755619Y2825327D01*
X1755272Y2830535D01*
Y2836091D01*
X1754924Y2842341D01*
X1754577Y2849285D01*
Y2856924D01*
Y2865604D01*
Y2865952D01*
Y2867340D01*
Y2869424D01*
Y2871854D01*
Y2874979D01*
Y2878451D01*
X1754924Y2885743D01*
Y2886090D01*
Y2887132D01*
Y2888868D01*
X1755272Y2891299D01*
Y2894076D01*
Y2897201D01*
X1755619Y2904493D01*
X1756313Y2912132D01*
X1757008Y2919770D01*
X1758049Y2927062D01*
X1758397Y2929840D01*
X1759091Y2932617D01*
Y2932965D01*
X1759438Y2933659D01*
X1760133Y2935048D01*
X1760480Y2936784D01*
X1762563Y2940951D01*
X1764994Y2945465D01*
X1765341Y2946159D01*
X1766383Y2947548D01*
X1768119Y2949284D01*
X1770549Y2951714D01*
X1774021Y2954492D01*
X1777841Y2956923D01*
X1782702Y2959353D01*
X1788257Y2961089D01*
X1788604D01*
X1789993Y2961437D01*
X1791729Y2961784D01*
X1794160Y2962131D01*
X1800410D01*
X1807701Y2961784D01*
D02*
G37*
G36*
X1612218Y2945465D02*
Y2929492D01*
X1609093Y2927062D01*
X1605968Y2924631D01*
X1605621Y2868729D01*
Y2868035D01*
Y2866299D01*
Y2863521D01*
Y2860049D01*
Y2855882D01*
Y2851021D01*
Y2845813D01*
Y2840605D01*
X1605968Y2829841D01*
Y2824980D01*
Y2820119D01*
Y2816299D01*
Y2813174D01*
X1606315Y2810744D01*
Y2809355D01*
X1606662Y2808661D01*
X1607009Y2807272D01*
X1608398Y2805536D01*
X1609787Y2804494D01*
X1612218Y2803105D01*
Y2786091D01*
Y2769078D01*
X1562913D01*
Y2786091D01*
Y2803105D01*
X1565691Y2804494D01*
X1566038Y2804841D01*
X1567079Y2805883D01*
X1568121Y2807272D01*
X1568816Y2809702D01*
Y2810049D01*
Y2810744D01*
Y2811786D01*
X1569163Y2813174D01*
Y2815258D01*
Y2818036D01*
Y2821508D01*
Y2826022D01*
X1569510Y2831230D01*
Y2837133D01*
Y2844424D01*
Y2853105D01*
Y2862827D01*
X1569163Y2868035D01*
Y2873590D01*
Y2879840D01*
Y2886090D01*
Y2886437D01*
Y2887479D01*
Y2889215D01*
Y2891646D01*
Y2894076D01*
Y2897201D01*
X1568816Y2903451D01*
Y2910048D01*
Y2913173D01*
Y2916298D01*
Y2918729D01*
X1568468Y2920465D01*
Y2922201D01*
Y2922895D01*
X1568121Y2923590D01*
X1567774Y2924979D01*
X1566732Y2926368D01*
X1564996Y2927756D01*
X1564649Y2928104D01*
X1564302Y2928451D01*
X1563607Y2929492D01*
X1563260Y2930534D01*
Y2931229D01*
Y2931923D01*
Y2933312D01*
X1562913Y2935048D01*
Y2937826D01*
Y2941298D01*
Y2945465D01*
Y2961437D01*
X1612218D01*
Y2945465D01*
D02*
G37*
G36*
X1549719Y2985395D02*
Y2973589D01*
X1539302D01*
X1536524Y2973242D01*
X1533399Y2972895D01*
X1529233Y2972548D01*
X1525413Y2971853D01*
X1521247Y2970464D01*
X1517427Y2969075D01*
X1516733Y2968728D01*
X1515691Y2968381D01*
X1514997Y2968034D01*
X1513608Y2967339D01*
X1511177Y2965950D01*
X1508400Y2963867D01*
X1505275Y2961089D01*
X1501802Y2958312D01*
X1499025Y2954492D01*
X1496247Y2950326D01*
Y2949978D01*
X1495900Y2949284D01*
X1495205Y2948242D01*
X1494511Y2946853D01*
X1493469Y2943728D01*
X1492775Y2940256D01*
Y2939909D01*
X1492428Y2938520D01*
Y2936090D01*
X1492080Y2932617D01*
Y2932270D01*
Y2931923D01*
Y2930534D01*
Y2928798D01*
X1491733Y2926368D01*
Y2923243D01*
Y2919423D01*
Y2914562D01*
X1491386Y2908659D01*
Y2901715D01*
Y2893729D01*
Y2884701D01*
Y2874285D01*
Y2868382D01*
Y2862479D01*
Y2855882D01*
Y2848938D01*
Y2841994D01*
Y2834355D01*
Y2834008D01*
Y2832966D01*
Y2831230D01*
Y2829146D01*
Y2826716D01*
Y2823938D01*
X1491733Y2817688D01*
Y2811091D01*
Y2804841D01*
Y2802411D01*
X1492080Y2799980D01*
Y2798244D01*
Y2796855D01*
Y2796508D01*
Y2796161D01*
X1492428Y2795119D01*
X1492775Y2793730D01*
X1493469Y2790258D01*
X1494858Y2785744D01*
X1496941Y2780883D01*
X1500066Y2776022D01*
X1504233Y2771161D01*
X1509441Y2766994D01*
X1509788Y2766647D01*
X1511177Y2765953D01*
X1513261Y2764911D01*
X1515691Y2763522D01*
X1516038D01*
X1516733Y2762828D01*
X1518122Y2762481D01*
X1519511Y2761786D01*
X1523330Y2760397D01*
X1526455Y2759356D01*
X1526802D01*
X1528538Y2759008D01*
X1531316D01*
X1533052Y2758661D01*
X1541038D01*
X1543121Y2758314D01*
X1576802D01*
X1583746Y2757967D01*
X1799021D01*
X1807354Y2758314D01*
X1856659D01*
X1859437Y2758661D01*
X1870201D01*
X1871590Y2759008D01*
X1873673Y2759356D01*
X1878187Y2759703D01*
X1880270Y2760397D01*
X1882006Y2760745D01*
X1882353D01*
X1883395Y2761439D01*
X1885131Y2762133D01*
X1887909Y2763175D01*
X1888603Y2763522D01*
X1889992Y2764564D01*
X1892423Y2765953D01*
X1895548Y2768036D01*
X1898673Y2770814D01*
X1902145Y2773939D01*
X1904923Y2777758D01*
X1907700Y2781925D01*
X1908047Y2782272D01*
Y2782619D01*
X1911172Y2789216D01*
Y2865604D01*
Y2942687D01*
X1908047Y2948589D01*
X1907700Y2948937D01*
X1907006Y2950673D01*
X1905617Y2952756D01*
X1903881Y2955187D01*
X1901103Y2958312D01*
X1897978Y2961437D01*
X1894506Y2964562D01*
X1889992Y2967339D01*
X1889645Y2967686D01*
X1888603Y2968034D01*
X1887214Y2968728D01*
X1885131Y2969770D01*
X1882701Y2970464D01*
X1880270Y2971506D01*
X1877492Y2972200D01*
X1874367Y2972548D01*
X1872978D01*
X1871242Y2972895D01*
X1858743D01*
X1855618Y2973242D01*
X1823674D01*
X1817424Y2973589D01*
X1625065D01*
Y2985395D01*
Y2996853D01*
X1877145D01*
X1885131Y2994075D01*
X1885478D01*
X1886173Y2993728D01*
X1887562Y2993033D01*
X1889298Y2992339D01*
X1891381Y2991297D01*
X1894159Y2990256D01*
X1899714Y2987478D01*
X1905964Y2983658D01*
X1912214Y2979145D01*
X1918117Y2973589D01*
X1923325Y2967339D01*
X1923672Y2966992D01*
X1924020Y2966298D01*
X1925061Y2964909D01*
X1926103Y2963173D01*
X1927144Y2960742D01*
X1928533Y2958312D01*
X1930964Y2952409D01*
X1934089Y2944770D01*
Y2865952D01*
Y2786786D01*
X1931658Y2780536D01*
X1931311Y2779842D01*
X1930964Y2778453D01*
X1929922Y2776022D01*
X1928533Y2773244D01*
X1926797Y2770119D01*
X1924714Y2766647D01*
X1922631Y2763175D01*
X1920200Y2759703D01*
X1919853Y2759356D01*
X1919158Y2758661D01*
X1918811Y2757967D01*
X1917075Y2756578D01*
X1914645Y2754495D01*
X1911172Y2751717D01*
X1907006Y2748592D01*
X1901798Y2745467D01*
X1895895Y2741995D01*
X1889298Y2739217D01*
X1888603Y2738870D01*
X1887214Y2738175D01*
X1879576Y2735398D01*
X1728536Y2735050D01*
X1565343D01*
X1560482Y2735398D01*
X1545899D01*
X1542080Y2735745D01*
X1537566D01*
X1532705Y2736092D01*
X1527844Y2736439D01*
X1524024D01*
X1522288Y2736786D01*
X1520899D01*
X1520552Y2737134D01*
X1519163Y2737481D01*
X1517774Y2737828D01*
X1515691Y2738523D01*
X1513261Y2739564D01*
X1510483Y2740606D01*
X1507011Y2741995D01*
X1506663D01*
X1506316Y2742342D01*
X1504233Y2743731D01*
X1500761Y2745467D01*
X1496941Y2748245D01*
X1492428Y2751717D01*
X1487566Y2755883D01*
X1482705Y2760745D01*
X1478539Y2766647D01*
X1478192Y2766994D01*
X1477844Y2768036D01*
X1476803Y2769425D01*
X1476108Y2771161D01*
X1474719Y2773592D01*
X1473678Y2776022D01*
X1471247Y2781578D01*
Y2781925D01*
X1470900Y2782272D01*
Y2783314D01*
X1470553Y2785050D01*
X1470206Y2786786D01*
X1469858Y2789216D01*
Y2791647D01*
X1469511Y2794772D01*
Y2795466D01*
Y2796161D01*
Y2797202D01*
Y2798939D01*
Y2801022D01*
Y2803800D01*
Y2807272D01*
Y2811438D01*
Y2816647D01*
Y2822202D01*
Y2828799D01*
Y2836438D01*
Y2845119D01*
Y2854841D01*
Y2865604D01*
Y2865952D01*
Y2866299D01*
Y2867340D01*
Y2868729D01*
Y2872202D01*
Y2876715D01*
Y2882271D01*
Y2888521D01*
Y2895118D01*
Y2902062D01*
Y2915604D01*
Y2922201D01*
Y2928451D01*
X1469858Y2933659D01*
Y2938173D01*
Y2941298D01*
Y2942687D01*
Y2943381D01*
Y2944076D01*
X1470206Y2945465D01*
X1470553Y2947548D01*
X1471247Y2949978D01*
Y2950326D01*
X1471594Y2950673D01*
X1472289Y2952756D01*
X1473678Y2955534D01*
X1475414Y2959353D01*
X1478192Y2963867D01*
X1481317Y2968381D01*
X1485483Y2973242D01*
X1489997Y2978103D01*
X1490344Y2978450D01*
X1491039Y2979145D01*
X1492428Y2980186D01*
X1494164Y2981575D01*
X1498677Y2984700D01*
X1503539Y2987478D01*
X1504233Y2987825D01*
X1505622Y2988520D01*
X1508052Y2989561D01*
X1510830Y2990950D01*
X1514302Y2992339D01*
X1517774Y2993728D01*
X1521594Y2994769D01*
X1525066Y2995464D01*
X1526108D01*
X1527149Y2995811D01*
X1528538D01*
X1532358Y2996158D01*
X1537219Y2996506D01*
X1549719Y2997200D01*
Y2985395D01*
D02*
G37*
%LPC*%
G36*
X1800063Y2922548D02*
X1799021D01*
X1796938Y2922201D01*
X1794507Y2920812D01*
X1793118Y2919770D01*
X1792077Y2918382D01*
X1791729Y2917687D01*
X1791035Y2916298D01*
X1790688Y2915604D01*
X1790341Y2914562D01*
X1789993Y2912826D01*
X1789299Y2910395D01*
X1788952Y2906923D01*
X1788257Y2903104D01*
X1787563Y2897896D01*
Y2897548D01*
Y2896854D01*
Y2895465D01*
X1787216Y2894076D01*
Y2891299D01*
Y2890257D01*
X1787563Y2889562D01*
X1787910D01*
X1788604Y2889215D01*
X1791035D01*
X1793466Y2888868D01*
X1812910D01*
X1812563Y2893729D01*
Y2894076D01*
Y2894771D01*
Y2895465D01*
X1812215Y2896854D01*
X1811868Y2900673D01*
X1811521Y2905187D01*
Y2905534D01*
X1811174Y2906923D01*
X1810826Y2908659D01*
X1810479Y2911090D01*
X1808743Y2915951D01*
X1807701Y2918382D01*
X1806313Y2920465D01*
X1805965Y2920812D01*
X1804924Y2921506D01*
X1802840Y2922201D01*
X1800063Y2922548D01*
D02*
G37*
%LPD*%
D72*
X3843020Y5340350D02*
G03*
X3843020Y5340350I-7620J0D01*
G01*
X4212590Y4195365D02*
G03*
X4212590Y4195365I-7620J0D01*
G01*
X1150620Y4582100D02*
G03*
X1150620Y4582100I-7620J0D01*
G01*
X3512820Y5327650D02*
G03*
X3512820Y5327650I-7620J0D01*
G01*
X3208020Y3892550D02*
G03*
X3208020Y3892550I-7620J0D01*
G01*
X4363720Y4298950D02*
G03*
X4363720Y4298950I-7620J0D01*
G01*
X3665474Y500380D02*
X3802126D01*
X3233674D02*
X3370326D01*
X1519174D02*
X1655826D01*
X1087374D02*
X1224026D01*
X4398010Y1519174D02*
Y1655826D01*
Y1087374D02*
Y1224026D01*
X4401820Y3633724D02*
Y3770376D01*
Y3201924D02*
Y3338576D01*
X3745230Y5096785D02*
Y5114015D01*
X3925570Y5096785D02*
Y5114015D01*
X3961405Y4105195D02*
X3978635D01*
X3961405Y4285535D02*
X3978635D01*
X3415030Y5084085D02*
Y5101315D01*
X3595370Y5084085D02*
Y5101315D01*
X3110230Y3648985D02*
Y3666215D01*
X3290570Y3648985D02*
Y3666215D01*
X4265930Y4525285D02*
Y4542515D01*
X4446270Y4525285D02*
Y4542515D01*
D73*
X1345100Y2129900D02*
G03*
X1335100Y2129900I-5000J0D01*
G01*
D02*
G03*
X1345100Y2129900I5000J0D01*
G01*
X3488800Y5586400D02*
G03*
X3488800Y5576400I0J-5000D01*
G01*
D02*
G03*
X3488800Y5586400I0J5000D01*
G01*
X1447700Y5673200D02*
G03*
X1447700Y5663200I0J-5000D01*
G01*
D02*
G03*
X1447700Y5673200I0J5000D01*
G01*
X3239900Y2977300D02*
G03*
X3249900Y2977300I5000J0D01*
G01*
D02*
G03*
X3239900Y2977300I-5000J0D01*
G01*
D74*
X647500Y3739000D02*
G03*
X647500Y3739000I-12500J0D01*
G01*
X3541700Y4781300D02*
G03*
X3541700Y4781300I-12500J0D01*
G01*
X2930871Y4217000D02*
G03*
X2930871Y4217000I-9998J0D01*
G01*
X2327800Y1102700D02*
G03*
X2327800Y1102700I-12500J0D01*
G01*
X736400Y1121100D02*
G03*
X736400Y1121100I-12500J0D01*
G01*
X3854000Y4027300D02*
G03*
X3854000Y4027300I-12500J0D01*
G01*
D75*
X2452350Y2646100D02*
G03*
X2452350Y2646100I-6250J0D01*
G01*
D76*
X1888300Y4506900D02*
G03*
X1888300Y4506900I-250000J0D01*
G01*
X2301800Y2022000D02*
Y2042000D01*
X2371800Y2022000D02*
Y2042000D01*
X2203600Y3521000D02*
X2223600D01*
X2203600Y3591000D02*
X2223600D01*
X1229100Y1549813D02*
Y1724813D01*
X1359100Y1549813D02*
Y1806113D01*
X3462900Y4243800D02*
Y4293800D01*
X3572900Y4243800D02*
Y4293800D01*
X3340500Y1469000D02*
X3390500D01*
X3340500Y1579000D02*
X3390500D01*
X1291200Y3569100D02*
Y3619100D01*
X1401200Y3569100D02*
Y3619100D01*
X2199868Y3329800D02*
X2219868D01*
X2199868Y3399800D02*
X2219868D01*
X3339000Y1946200D02*
X3359000D01*
X3339000Y2016200D02*
X3359000D01*
X210000Y3804000D02*
Y4705000D01*
Y3804000D02*
X935000D01*
X210000Y4705000D02*
X935000D01*
Y3804000D02*
Y4705000D01*
X3221600Y4242200D02*
Y4292200D01*
X3331600Y4242200D02*
Y4292200D01*
X1553012Y1633247D02*
Y1683247D01*
X1663012Y1633247D02*
Y1683247D01*
X1519800Y3569100D02*
Y3619100D01*
X1629800Y3569100D02*
Y3619100D01*
X3264300Y3945500D02*
X3314300D01*
X3264300Y4055500D02*
X3314300D01*
X3604200Y4531300D02*
X3639200D01*
X3604200Y4841300D02*
X3639200D01*
X3604200Y4531300D02*
Y4536300D01*
X3879200Y4531300D02*
X3914200D01*
Y4536300D01*
X3604200Y4836300D02*
Y4841300D01*
X3914200Y4836300D02*
Y4841300D01*
X3879200D02*
X3914200D01*
X2606600Y3152300D02*
Y3172300D01*
X2676600Y3152300D02*
Y3172300D01*
X963700Y1253600D02*
Y1509900D01*
X1093700Y1334900D02*
Y1509900D01*
X963700Y2269600D02*
Y2525900D01*
X1093700Y2350900D02*
Y2525900D01*
X3221600Y4635900D02*
Y4685900D01*
X3331600Y4635900D02*
Y4685900D01*
X2496900Y805700D02*
X2506900D01*
X2496900Y870700D02*
X2506900D01*
X2124000Y2022000D02*
Y2042000D01*
X2194000Y2022000D02*
Y2042000D01*
X2161700Y2479600D02*
X2181700D01*
X2161700Y2549600D02*
X2181700D01*
X3343200Y2822100D02*
Y2842100D01*
X3413200Y2822100D02*
Y2842100D01*
X2883799Y1248282D02*
X2893799D01*
X2883799Y1313282D02*
X2893799D01*
X1488600Y1082600D02*
X1508600D01*
X1488600Y1152600D02*
X1508600D01*
X2327200Y2987200D02*
Y3007200D01*
X2397200Y2987200D02*
Y3007200D01*
X2883799Y1416253D02*
X2893799D01*
X2883799Y1481253D02*
X2893799D01*
X3079000Y1268800D02*
Y1278800D01*
X3144000Y1268800D02*
Y1278800D01*
X1888100Y1932400D02*
Y1982400D01*
X1998100Y1932400D02*
Y1982400D01*
X3342100Y1659500D02*
X3392100D01*
X3342100Y1769500D02*
X3392100D01*
X2236143Y3673700D02*
X2286142D01*
X2236143Y3783700D02*
X2286142D01*
X939700Y4978200D02*
X1282700D01*
X939700D02*
Y5588200D01*
X1282700Y4953200D02*
Y4978200D01*
Y4953200D02*
X2552700D01*
X939700Y5588200D02*
X1282700D01*
Y5613200D01*
X2552700D01*
Y4953200D02*
Y4978200D01*
X2895700D01*
Y5283200D01*
X2552700Y5588200D02*
Y5613200D01*
X2895700Y5283200D02*
Y5588200D01*
X2552700D02*
X2895700D01*
X961300Y1789165D02*
Y2045465D01*
X1091300Y1870465D02*
Y2045465D01*
X4605900Y4508900D02*
Y4558900D01*
X4715900Y4508900D02*
Y4558900D01*
X1967800Y1437700D02*
X2197800D01*
X1967800Y1127700D02*
X2197800D01*
X1967800D02*
Y1437700D01*
X2197800Y1127700D02*
Y1437700D01*
X2849900Y3092300D02*
Y3232300D01*
X3169900Y3092300D02*
Y3232300D01*
X2161700Y2645000D02*
X2181700D01*
X2161700Y2715000D02*
X2181700D01*
X589400Y1166100D02*
Y3482100D01*
Y1166100D02*
X858400D01*
X589400Y3482100D02*
X858400D01*
Y1166100D02*
Y3482100D01*
X3779600Y5453900D02*
X3789600D01*
X3779600Y5518900D02*
X3789600D01*
X1557900Y2070500D02*
Y2120500D01*
X1667900Y2070500D02*
Y2120500D01*
X2916800Y3645300D02*
Y3695300D01*
X3026800Y3645300D02*
Y3695300D01*
X3591500Y3642300D02*
X3596500D01*
X3591500Y3952300D02*
X3596500D01*
X3591500Y3642300D02*
Y3677300D01*
Y3917300D02*
Y3952300D01*
X3896500Y3642300D02*
X3901500D01*
Y3677300D01*
Y3917300D02*
Y3952300D01*
X3896500D02*
X3901500D01*
X1569400Y3804600D02*
X1602722D01*
X1586061D01*
Y3904568D01*
X1569400Y3887906D01*
X1315400Y3870837D02*
X1333727Y3889164D01*
X1370382D01*
X1388710Y3870837D01*
Y3797527D01*
X1370382Y3779200D01*
X1333727D01*
X1315400Y3797527D01*
Y3870837D01*
X3550500Y1545637D02*
X3568828Y1563964D01*
X3605483D01*
X3623810Y1545637D01*
Y1472327D01*
X3605483Y1454000D01*
X3568828D01*
X3550500Y1472327D01*
Y1545637D01*
X3550600Y1658300D02*
X3583922D01*
X3567261D01*
Y1758268D01*
X3550600Y1741606D01*
X515300Y3671819D02*
X551955D01*
X533627D01*
Y3561855D01*
X515300D01*
X551955D01*
X606937D02*
Y3635164D01*
X661919D01*
X680247Y3616837D01*
Y3561855D01*
X716902Y3525200D02*
Y3635164D01*
X771884D01*
X790211Y3616837D01*
Y3580182D01*
X771884Y3561855D01*
X716902D01*
X826866Y3635164D02*
Y3580182D01*
X845193Y3561855D01*
X900176D01*
Y3635164D01*
X955158Y3653492D02*
Y3635164D01*
X936830D01*
X973485D01*
X955158D01*
Y3580182D01*
X973485Y3561855D01*
X166431Y4033151D02*
X56466D01*
Y4088133D01*
X74794Y4106460D01*
X111448D01*
X129776Y4088133D01*
Y4033151D01*
X166431Y4161443D02*
Y4198098D01*
X148103Y4216425D01*
X111448D01*
X93121Y4198098D01*
Y4161443D01*
X111448Y4143115D01*
X148103D01*
X166431Y4161443D01*
X93121Y4253080D02*
X148103D01*
X166431Y4271407D01*
X148103Y4289734D01*
X166431Y4308062D01*
X148103Y4326389D01*
X93121D01*
X166431Y4418026D02*
Y4381371D01*
X148103Y4363044D01*
X111448D01*
X93121Y4381371D01*
Y4418026D01*
X111448Y4436354D01*
X129776D01*
Y4363044D01*
X93121Y4473009D02*
X166431D01*
X129776D01*
X111448Y4491336D01*
X93121Y4509663D01*
Y4527991D01*
X324800Y4812082D02*
X398109D01*
X361454Y4848737D02*
Y4775427D01*
X434764Y4867064D02*
Y4793755D01*
X471419Y4757100D01*
X508074Y4793755D01*
Y4867064D01*
X618038Y4848737D02*
X599711Y4867064D01*
X563056D01*
X544729Y4848737D01*
Y4775427D01*
X563056Y4757100D01*
X599711D01*
X618038Y4775427D01*
X728003Y4848737D02*
X709675Y4867064D01*
X673020D01*
X654693Y4848737D01*
Y4775427D01*
X673020Y4757100D01*
X709675D01*
X728003Y4775427D01*
X96200Y1069764D02*
X169509D01*
X132854D01*
Y959800D01*
X206164Y1069764D02*
Y959800D01*
X261147D01*
X279474Y978127D01*
Y1051437D01*
X261147Y1069764D01*
X206164D01*
X316129Y959800D02*
Y1069764D01*
X371111D01*
X389438Y1051437D01*
Y1014782D01*
X371111Y996455D01*
X316129D01*
X352783D02*
X389438Y959800D01*
X536058Y1051437D02*
X554385Y1069764D01*
X591040D01*
X609367Y1051437D01*
Y1033110D01*
X591040Y1014782D01*
X572712D01*
X591040D01*
X609367Y996455D01*
Y978127D01*
X591040Y959800D01*
X554385D01*
X536058Y978127D01*
X646022Y959800D02*
Y978127D01*
X664349D01*
Y959800D01*
X646022D01*
X737659Y1051437D02*
X755987Y1069764D01*
X792642D01*
X810969Y1051437D01*
Y978127D01*
X792642Y959800D01*
X755987D01*
X737659Y978127D01*
Y1051437D01*
X121600Y780555D02*
Y890519D01*
X176582D01*
X194909Y872192D01*
Y835537D01*
X176582Y817209D01*
X121600D01*
X231564Y780555D02*
Y798882D01*
X249892D01*
Y780555D01*
X231564D01*
X433166Y890519D02*
Y780555D01*
X488148D01*
X506475Y798882D01*
Y817209D01*
X488148Y835537D01*
X433166D01*
X488148D01*
X506475Y853864D01*
Y872192D01*
X488148Y890519D01*
X433166D01*
X543130Y853864D02*
Y798882D01*
X561458Y780555D01*
X616440D01*
Y853864D01*
X726404Y890519D02*
Y780555D01*
X671422D01*
X653095Y798882D01*
Y835537D01*
X671422Y853864D01*
X726404D01*
X763059Y780555D02*
Y853864D01*
X818042D01*
X836369Y835537D01*
Y780555D01*
X873024Y853864D02*
Y798882D01*
X891351Y780555D01*
X946333D01*
Y762227D01*
X928006Y743900D01*
X909678D01*
X946333Y780555D02*
Y853864D01*
X1048700Y3626800D02*
Y3700110D01*
X1085355Y3736764D01*
X1122010Y3700110D01*
Y3626800D01*
Y3681782D01*
X1048700D01*
X1158664Y3718437D02*
X1176992Y3736764D01*
X1213647D01*
X1231974Y3718437D01*
Y3645127D01*
X1213647Y3626800D01*
X1176992D01*
X1158664Y3645127D01*
Y3718437D01*
X3042600Y1734500D02*
Y1807810D01*
X3079255Y1844464D01*
X3115910Y1807810D01*
Y1734500D01*
Y1789482D01*
X3042600D01*
X3152564Y1734500D02*
X3189219D01*
X3170892D01*
Y1844464D01*
X3152564Y1826137D01*
X4481882Y2860464D02*
X4445227D01*
X4426900Y2842137D01*
Y2768827D01*
X4445227Y2750500D01*
X4481882D01*
X4500209Y2768827D01*
Y2842137D01*
X4481882Y2860464D01*
X4536864D02*
Y2768827D01*
X4555192Y2750500D01*
X4591847D01*
X4610174Y2768827D01*
Y2860464D01*
X4646829D02*
X4720138D01*
X4683483D01*
Y2750500D01*
X4756793D02*
X4793448D01*
X4775120D01*
Y2860464D01*
X4756793Y2842137D01*
X4431082Y2136564D02*
X4394427D01*
X4376100Y2118237D01*
Y2044927D01*
X4394427Y2026600D01*
X4431082D01*
X4449410Y2044927D01*
Y2118237D01*
X4431082Y2136564D01*
X4486064D02*
Y2044927D01*
X4504392Y2026600D01*
X4541047D01*
X4559374Y2044927D01*
Y2136564D01*
X4596029D02*
X4669339D01*
X4632684D01*
Y2026600D01*
X4779303D02*
X4705993D01*
X4779303Y2099910D01*
Y2118237D01*
X4760976Y2136564D01*
X4724321D01*
X4705993Y2118237D01*
X2852714Y85672D02*
X2779404D01*
X2742749Y122327D01*
X2779404Y158982D01*
X2852714D01*
X2797731D01*
Y85672D01*
X2742749Y195637D02*
X2852714D01*
Y250619D01*
X2834386Y268947D01*
X2761077D01*
X2742749Y250619D01*
Y195637D01*
X2761077Y378911D02*
X2742749Y360584D01*
Y323929D01*
X2761077Y305601D01*
X2834386D01*
X2852714Y323929D01*
Y360584D01*
X2834386Y378911D01*
X2871041Y415566D02*
Y488876D01*
X2852714Y525530D02*
X2742749D01*
X2852714Y598840D01*
X2742749D01*
X2120673Y70800D02*
X2047363D01*
X2010708Y107455D01*
X2047363Y144110D01*
X2120673D01*
X2065690D01*
Y70800D01*
X2010708Y180764D02*
X2120673D01*
Y235747D01*
X2102345Y254074D01*
X2029036D01*
X2010708Y235747D01*
Y180764D01*
X2029036Y364039D02*
X2010708Y345711D01*
Y309056D01*
X2029036Y290729D01*
X2102345D01*
X2120673Y309056D01*
Y345711D01*
X2102345Y364039D01*
X2139000Y400693D02*
Y474003D01*
X2120673Y510658D02*
X2010708D01*
Y565640D01*
X2029036Y583968D01*
X2065690D01*
X2084018Y565640D01*
Y510658D01*
X194909Y3731137D02*
X176582Y3749464D01*
X139927D01*
X121600Y3731137D01*
Y3657827D01*
X139927Y3639500D01*
X176582D01*
X194909Y3657827D01*
Y3694482D01*
X158254D01*
X231564Y3639500D02*
Y3749464D01*
X304874Y3639500D01*
Y3749464D01*
X341529D02*
Y3639500D01*
X396511D01*
X414838Y3657827D01*
Y3731137D01*
X396511Y3749464D01*
X341529D01*
X45400Y1349164D02*
X118709D01*
X82054D01*
Y1239200D01*
X155364Y1349164D02*
X192019D01*
X173692D01*
Y1239200D01*
X155364D01*
X192019D01*
X247001D02*
Y1349164D01*
X283656Y1312510D01*
X320311Y1349164D01*
Y1239200D01*
X430275Y1349164D02*
X356966D01*
Y1239200D01*
X430275D01*
X356966Y1294182D02*
X393620D01*
X466930Y1239200D02*
Y1349164D01*
X521913D01*
X540240Y1330837D01*
Y1294182D01*
X521913Y1275855D01*
X466930D01*
X503585D02*
X540240Y1239200D01*
X296509Y1597537D02*
X278182Y1615864D01*
X241527D01*
X223200Y1597537D01*
Y1579210D01*
X241527Y1560882D01*
X278182D01*
X296509Y1542555D01*
Y1524227D01*
X278182Y1505900D01*
X241527D01*
X223200Y1524227D01*
X406474Y1597537D02*
X388147Y1615864D01*
X351492D01*
X333164Y1597537D01*
Y1524227D01*
X351492Y1505900D01*
X388147D01*
X406474Y1524227D01*
X443129Y1615864D02*
Y1505900D01*
X516438D01*
X296509Y1864237D02*
X278182Y1882564D01*
X241527D01*
X223200Y1864237D01*
Y1845910D01*
X241527Y1827582D01*
X278182D01*
X296509Y1809255D01*
Y1790927D01*
X278182Y1772600D01*
X241527D01*
X223200Y1790927D01*
X333164Y1882564D02*
Y1772600D01*
X388147D01*
X406474Y1790927D01*
Y1864237D01*
X388147Y1882564D01*
X333164D01*
X443129Y1772600D02*
Y1845910D01*
X479783Y1882564D01*
X516438Y1845910D01*
Y1772600D01*
Y1827582D01*
X443129D01*
X296509Y2105537D02*
X278182Y2123864D01*
X241527D01*
X223200Y2105537D01*
Y2032227D01*
X241527Y2013900D01*
X278182D01*
X296509Y2032227D01*
Y2068882D01*
X259854D01*
X333164Y2013900D02*
Y2123864D01*
X388147D01*
X406474Y2105537D01*
Y2068882D01*
X388147Y2050555D01*
X333164D01*
X443129Y2105537D02*
X461456Y2123864D01*
X498111D01*
X516438Y2105537D01*
Y2032227D01*
X498111Y2013900D01*
X461456D01*
X443129Y2032227D01*
Y2105537D01*
X321909Y2372237D02*
X303582Y2390564D01*
X266927D01*
X248600Y2372237D01*
Y2298927D01*
X266927Y2280600D01*
X303582D01*
X321909Y2298927D01*
Y2335582D01*
X285254D01*
X358564Y2280600D02*
Y2390564D01*
X413547D01*
X431874Y2372237D01*
Y2335582D01*
X413547Y2317255D01*
X358564D01*
X468529Y2280600D02*
X505183D01*
X486856D01*
Y2390564D01*
X468529Y2372237D01*
X296509Y2613537D02*
X278182Y2631864D01*
X241527D01*
X223200Y2613537D01*
Y2540227D01*
X241527Y2521900D01*
X278182D01*
X296509Y2540227D01*
Y2576882D01*
X259854D01*
X333164Y2521900D02*
Y2631864D01*
X388147D01*
X406474Y2613537D01*
Y2576882D01*
X388147Y2558555D01*
X333164D01*
X516438Y2521900D02*
X443129D01*
X516438Y2595210D01*
Y2613537D01*
X498111Y2631864D01*
X461456D01*
X443129Y2613537D01*
X283809Y2880237D02*
X265482Y2898564D01*
X228827D01*
X210500Y2880237D01*
Y2806927D01*
X228827Y2788600D01*
X265482D01*
X283809Y2806927D01*
Y2843582D01*
X247154D01*
X320464Y2788600D02*
Y2898564D01*
X375447D01*
X393774Y2880237D01*
Y2843582D01*
X375447Y2825255D01*
X320464D01*
X430429Y2880237D02*
X448756Y2898564D01*
X485411D01*
X503738Y2880237D01*
Y2861910D01*
X485411Y2843582D01*
X467083D01*
X485411D01*
X503738Y2825255D01*
Y2806927D01*
X485411Y2788600D01*
X448756D01*
X430429Y2806927D01*
X235900Y3042600D02*
Y3152564D01*
X290882D01*
X309209Y3134237D01*
Y3097582D01*
X290882Y3079255D01*
X235900D01*
X272554D02*
X309209Y3042600D01*
X419174Y3134237D02*
X400847Y3152564D01*
X364192D01*
X345864Y3134237D01*
Y3115910D01*
X364192Y3097582D01*
X400847D01*
X419174Y3079255D01*
Y3060927D01*
X400847Y3042600D01*
X364192D01*
X345864Y3060927D01*
X455829Y3152564D02*
X529138D01*
X492483D01*
Y3042600D01*
X248600Y3406564D02*
X285254D01*
X266927D01*
Y3296600D01*
X248600D01*
X285254D01*
X340237D02*
Y3406564D01*
X413547Y3296600D01*
Y3406564D01*
X450201D02*
X523511D01*
X486856D01*
Y3296600D01*
X3628018Y2449655D02*
X3609691Y2467982D01*
X3573036D01*
X3554708Y2449655D01*
Y2376345D01*
X3573036Y2358018D01*
X3609691D01*
X3628018Y2376345D01*
X3664673Y2449655D02*
X3683000Y2467982D01*
X3719655D01*
X3737982Y2449655D01*
Y2431328D01*
X3719655Y2413000D01*
X3701327D01*
X3719655D01*
X3737982Y2394673D01*
Y2376345D01*
X3719655Y2358018D01*
X3683000D01*
X3664673Y2376345D01*
X3774637Y2358018D02*
X3811292D01*
X3792964D01*
Y2467982D01*
X3774637Y2449655D01*
X3608765Y2161358D02*
X3590437Y2179686D01*
X3553782D01*
X3535455Y2161358D01*
Y2088049D01*
X3553782Y2069721D01*
X3590437D01*
X3608765Y2088049D01*
X3718729Y2069721D02*
X3645419D01*
X3718729Y2143031D01*
Y2161358D01*
X3700402Y2179686D01*
X3663747D01*
X3645419Y2161358D01*
X3810366Y2069721D02*
Y2179686D01*
X3755384Y2124704D01*
X3828694D01*
X2978873Y874855D02*
X2960545Y893182D01*
X2923890D01*
X2905563Y874855D01*
Y801545D01*
X2923890Y783218D01*
X2960545D01*
X2978873Y801545D01*
X3088837Y893182D02*
X3015527D01*
Y838200D01*
X3052182Y856528D01*
X3070510D01*
X3088837Y838200D01*
Y801545D01*
X3070510Y783218D01*
X3033855D01*
X3015527Y801545D01*
X1988273Y874855D02*
X1969945Y893182D01*
X1933290D01*
X1914963Y874855D01*
Y801545D01*
X1933290Y783218D01*
X1969945D01*
X1988273Y801545D01*
X2079910Y783218D02*
Y893182D01*
X2024927Y838200D01*
X2098237D01*
X1653891Y4189555D02*
X1635563Y4207882D01*
X1598908D01*
X1580581Y4189555D01*
Y4116245D01*
X1598908Y4097918D01*
X1635563D01*
X1653891Y4116245D01*
X1745528Y4097918D02*
Y4207882D01*
X1690545Y4152900D01*
X1763855D01*
X1873819Y4097918D02*
X1800510D01*
X1873819Y4171228D01*
Y4189555D01*
X1855492Y4207882D01*
X1818837D01*
X1800510Y4189555D01*
X4216028Y3798022D02*
Y3761367D01*
Y3779695D01*
X4307665D01*
X4325992Y3761367D01*
Y3743040D01*
X4307665Y3724713D01*
X4234355Y3834677D02*
X4216028Y3853004D01*
Y3889659D01*
X4234355Y3907987D01*
X4252683D01*
X4271010Y3889659D01*
Y3871332D01*
Y3889659D01*
X4289338Y3907987D01*
X4307665D01*
X4325992Y3889659D01*
Y3853004D01*
X4307665Y3834677D01*
X3733800Y689982D02*
X3697145D01*
X3715473D01*
Y598345D01*
X3697145Y580018D01*
X3678818D01*
X3660490Y598345D01*
X3770455Y580018D02*
X3807109D01*
X3788782D01*
Y689982D01*
X3770455Y671655D01*
X4186818Y1099273D02*
Y1062618D01*
Y1080945D01*
X4278455D01*
X4296782Y1062618D01*
Y1044290D01*
X4278455Y1025963D01*
X4296782Y1209237D02*
Y1135927D01*
X4223472Y1209237D01*
X4205145D01*
X4186818Y1190910D01*
Y1154255D01*
X4205145Y1135927D01*
X1099273Y677282D02*
X1062618D01*
X1080945D01*
Y585645D01*
X1062618Y567318D01*
X1044290D01*
X1025963Y585645D01*
X1190910Y567318D02*
Y677282D01*
X1135927Y622300D01*
X1209237D01*
X1385116Y2262641D02*
X1485084D01*
Y2312625D01*
X1468422Y2329286D01*
X1401777D01*
X1385116Y2312625D01*
Y2262641D01*
X1485084Y2362608D02*
Y2395931D01*
Y2379270D01*
X1385116D01*
X1401777Y2362608D01*
X1485084Y2512560D02*
Y2445915D01*
X1418439Y2512560D01*
X1401777D01*
X1385116Y2495899D01*
Y2462576D01*
X1401777Y2445915D01*
X3218694Y5383984D02*
Y5284016D01*
X3268677D01*
X3285339Y5300677D01*
Y5367323D01*
X3268677Y5383984D01*
X3218694D01*
X3385306Y5284016D02*
X3318661D01*
X3385306Y5350661D01*
Y5367323D01*
X3368645Y5383984D01*
X3335323D01*
X3318661Y5367323D01*
X2664263Y3610982D02*
X2737573Y3501018D01*
Y3610982D02*
X2664263Y3501018D01*
X2847537D02*
X2774227D01*
X2847537Y3574328D01*
Y3592655D01*
X2829210Y3610982D01*
X2792555D01*
X2774227Y3592655D01*
X1260191Y4271382D02*
Y4161418D01*
X1315173D01*
X1333500Y4179745D01*
Y4253055D01*
X1315173Y4271382D01*
X1260191D01*
X1370155Y4161418D02*
X1406810D01*
X1388482D01*
Y4271382D01*
X1370155Y4253055D01*
X2854763Y2023482D02*
Y1931845D01*
X2873090Y1913518D01*
X2909745D01*
X2928073Y1931845D01*
Y2023482D01*
X2964727Y2005155D02*
X2983055Y2023482D01*
X3019710D01*
X3038037Y2005155D01*
Y1986828D01*
X3019710Y1968500D01*
X3001382D01*
X3019710D01*
X3038037Y1950173D01*
Y1931845D01*
X3019710Y1913518D01*
X2983055D01*
X2964727Y1931845D01*
X1667882Y2275545D02*
X1557917D01*
Y2330527D01*
X1576244Y2348854D01*
X1612899D01*
X1631227Y2330527D01*
Y2275545D01*
Y2312199D02*
X1667882Y2348854D01*
Y2385509D02*
Y2422164D01*
Y2403836D01*
X1557917D01*
X1576244Y2385509D01*
X1557917Y2477146D02*
Y2550456D01*
X1576244D01*
X1649554Y2477146D01*
X1667882D01*
X2148544Y3843918D02*
Y3953882D01*
X2203527D01*
X2221854Y3935555D01*
Y3898900D01*
X2203527Y3880573D01*
X2148544D01*
X2185199D02*
X2221854Y3843918D01*
X2258509D02*
X2295164D01*
X2276836D01*
Y3953882D01*
X2258509Y3935555D01*
X2423456Y3953882D02*
X2386801Y3935555D01*
X2350146Y3898900D01*
Y3862245D01*
X2368473Y3843918D01*
X2405128D01*
X2423456Y3862245D01*
Y3880573D01*
X2405128Y3898900D01*
X2350146D01*
X1481072Y1354718D02*
Y1464682D01*
X1536054D01*
X1554381Y1446355D01*
Y1409700D01*
X1536054Y1391373D01*
X1481072D01*
X1517726D02*
X1554381Y1354718D01*
X1591036D02*
X1627691D01*
X1609364D01*
Y1464682D01*
X1591036Y1446355D01*
X1682673Y1354718D02*
X1719328D01*
X1701001D01*
Y1464682D01*
X1682673Y1446355D01*
X1954984Y1538741D02*
X1855016D01*
Y1588725D01*
X1871677Y1605386D01*
X1905000D01*
X1921661Y1588725D01*
Y1538741D01*
Y1572063D02*
X1954984Y1605386D01*
Y1638708D02*
Y1672031D01*
Y1655370D01*
X1855016D01*
X1871677Y1638708D01*
Y1722015D02*
X1855016Y1738676D01*
Y1771999D01*
X1871677Y1788660D01*
X1938322D01*
X1954984Y1771999D01*
Y1738676D01*
X1938322Y1722015D01*
X1871677D01*
X2071223Y3264104D02*
X2052896Y3282431D01*
X2016241D01*
X1997914Y3264104D01*
Y3190794D01*
X2016241Y3172467D01*
X2052896D01*
X2071223Y3190794D01*
X2181188Y3172467D02*
X2107878D01*
X2181188Y3245777D01*
Y3264104D01*
X2162861Y3282431D01*
X2126206D01*
X2107878Y3264104D01*
X2217843Y3190794D02*
X2236170Y3172467D01*
X2272825D01*
X2291152Y3190794D01*
Y3264104D01*
X2272825Y3282431D01*
X2236170D01*
X2217843Y3264104D01*
Y3245777D01*
X2236170Y3227449D01*
X2291152D01*
X1785714Y3614435D02*
X1767386Y3632763D01*
X1730731D01*
X1712404Y3614435D01*
Y3541126D01*
X1730731Y3522798D01*
X1767386D01*
X1785714Y3541126D01*
X1895678Y3522798D02*
X1822368D01*
X1895678Y3596108D01*
Y3614435D01*
X1877351Y3632763D01*
X1840696D01*
X1822368Y3614435D01*
X1932333D02*
X1950660Y3632763D01*
X1987315D01*
X2005643Y3614435D01*
Y3596108D01*
X1987315Y3577781D01*
X2005643Y3559453D01*
Y3541126D01*
X1987315Y3522798D01*
X1950660D01*
X1932333Y3541126D01*
Y3559453D01*
X1950660Y3577781D01*
X1932333Y3596108D01*
Y3614435D01*
X1950660Y3577781D02*
X1987315D01*
X2933700Y4535345D02*
Y4608655D01*
X2915373Y4626982D01*
X2878718D01*
X2860390Y4608655D01*
Y4535345D01*
X2878718Y4517018D01*
X2915373D01*
X2897045Y4553673D02*
X2933700Y4517018D01*
X2915373D02*
X2933700Y4535345D01*
X2970355Y4517018D02*
X3007009D01*
X2988682D01*
Y4626982D01*
X2970355Y4608655D01*
X3970917Y3692963D02*
X4062554D01*
X4080882Y3711290D01*
Y3747945D01*
X4062554Y3766273D01*
X3970917D01*
X4080882Y3857910D02*
X3970917D01*
X4025899Y3802927D01*
Y3876237D01*
X2472317Y1292663D02*
X2563954D01*
X2582282Y1310991D01*
Y1347646D01*
X2563954Y1365973D01*
X2472317D01*
X2582282Y1475937D02*
Y1402628D01*
X2508972Y1475937D01*
X2490645D01*
X2472317Y1457610D01*
Y1420955D01*
X2490645Y1402628D01*
X3970917Y4600291D02*
X4062554D01*
X4080882Y4618618D01*
Y4655273D01*
X4062554Y4673600D01*
X3970917D01*
X4080882Y4710255D02*
Y4746910D01*
Y4728582D01*
X3970917D01*
X3989245Y4710255D01*
X2567644Y3742318D02*
Y3852282D01*
X2622627D01*
X2640954Y3833955D01*
Y3797300D01*
X2622627Y3778973D01*
X2567644D01*
X2604299D02*
X2640954Y3742318D01*
X2677609D02*
X2714264D01*
X2695936D01*
Y3852282D01*
X2677609Y3833955D01*
X2769246Y3760645D02*
X2787573Y3742318D01*
X2824228D01*
X2842556Y3760645D01*
Y3833955D01*
X2824228Y3852282D01*
X2787573D01*
X2769246Y3833955D01*
Y3815628D01*
X2787573Y3797300D01*
X2842556D01*
X2810544Y3945518D02*
Y4055482D01*
X2865527D01*
X2883854Y4037155D01*
Y4000500D01*
X2865527Y3982173D01*
X2810544D01*
X2847199D02*
X2883854Y3945518D01*
X2920509D02*
X2957164D01*
X2938836D01*
Y4055482D01*
X2920509Y4037155D01*
X3012146D02*
X3030473Y4055482D01*
X3067128D01*
X3085456Y4037155D01*
Y4018828D01*
X3067128Y4000500D01*
X3085456Y3982173D01*
Y3963845D01*
X3067128Y3945518D01*
X3030473D01*
X3012146Y3963845D01*
Y3982173D01*
X3030473Y4000500D01*
X3012146Y4018828D01*
Y4037155D01*
X3030473Y4000500D02*
X3067128D01*
X2410263Y935618D02*
Y1045582D01*
X2465245D01*
X2483573Y1027255D01*
Y990600D01*
X2465245Y972273D01*
X2410263D01*
X2446918D02*
X2483573Y935618D01*
X2520227Y953945D02*
X2538555Y935618D01*
X2575210D01*
X2593537Y953945D01*
Y1027255D01*
X2575210Y1045582D01*
X2538555D01*
X2520227Y1027255D01*
Y1008928D01*
X2538555Y990600D01*
X2593537D01*
X2791263Y1088018D02*
Y1197982D01*
X2846245D01*
X2864573Y1179655D01*
Y1143000D01*
X2846245Y1124673D01*
X2791263D01*
X2827918D02*
X2864573Y1088018D01*
X2901227Y1179655D02*
X2919555Y1197982D01*
X2956210D01*
X2974537Y1179655D01*
Y1161328D01*
X2956210Y1143000D01*
X2974537Y1124673D01*
Y1106345D01*
X2956210Y1088018D01*
X2919555D01*
X2901227Y1106345D01*
Y1124673D01*
X2919555Y1143000D01*
X2901227Y1161328D01*
Y1179655D01*
X2919555Y1143000D02*
X2956210D01*
X2822747Y1540735D02*
Y1650700D01*
X2877730D01*
X2896057Y1632372D01*
Y1595718D01*
X2877730Y1577390D01*
X2822747D01*
X2859402D02*
X2896057Y1540735D01*
X2932712Y1650700D02*
X3006021D01*
Y1632372D01*
X2932712Y1559063D01*
Y1540735D01*
X3318882Y1127563D02*
X3208918D01*
Y1182545D01*
X3227245Y1200873D01*
X3263900D01*
X3282227Y1182545D01*
Y1127563D01*
Y1164218D02*
X3318882Y1200873D01*
X3208918Y1310837D02*
X3227245Y1274182D01*
X3263900Y1237527D01*
X3300555D01*
X3318882Y1255855D01*
Y1292510D01*
X3300555Y1310837D01*
X3282227D01*
X3263900Y1292510D01*
Y1237527D01*
X4728582Y4747063D02*
X4618617D01*
Y4802046D01*
X4636944Y4820373D01*
X4673599D01*
X4691927Y4802046D01*
Y4747063D01*
Y4783718D02*
X4728582Y4820373D01*
X4618617Y4930337D02*
Y4857028D01*
X4673599D01*
X4655272Y4893682D01*
Y4912010D01*
X4673599Y4930337D01*
X4710254D01*
X4728582Y4912010D01*
Y4875355D01*
X4710254Y4857028D01*
X3985063Y5418718D02*
Y5528682D01*
X4040045D01*
X4058372Y5510355D01*
Y5473700D01*
X4040045Y5455373D01*
X3985063D01*
X4021717D02*
X4058372Y5418718D01*
X4150009D02*
Y5528682D01*
X4095027Y5473700D01*
X4168337D01*
X3750682Y4200963D02*
X3640717D01*
Y4255945D01*
X3659045Y4274273D01*
X3695699D01*
X3714027Y4255945D01*
Y4200963D01*
Y4237618D02*
X3750682Y4274273D01*
X3659045Y4310927D02*
X3640717Y4329255D01*
Y4365910D01*
X3659045Y4384237D01*
X3677372D01*
X3695699Y4365910D01*
Y4347582D01*
Y4365910D01*
X3714027Y4384237D01*
X3732354D01*
X3750682Y4365910D01*
Y4329255D01*
X3732354Y4310927D01*
X2981763Y4110618D02*
Y4220582D01*
X3036745D01*
X3055073Y4202255D01*
Y4165600D01*
X3036745Y4147273D01*
X2981763D01*
X3018418D02*
X3055073Y4110618D01*
X3165037D02*
X3091727D01*
X3165037Y4183928D01*
Y4202255D01*
X3146710Y4220582D01*
X3110055D01*
X3091727Y4202255D01*
X3203290Y4872618D02*
Y4982582D01*
X3258273D01*
X3276600Y4964255D01*
Y4927600D01*
X3258273Y4909273D01*
X3203290D01*
X3239945D02*
X3276600Y4872618D01*
X3313255D02*
X3349909D01*
X3331582D01*
Y4982582D01*
X3313255Y4964255D01*
X986417Y2689663D02*
X1096382D01*
Y2744645D01*
X1078054Y2762973D01*
X1004745D01*
X986417Y2744645D01*
Y2689663D01*
Y2799627D02*
Y2872937D01*
X1004745D01*
X1078054Y2799627D01*
X1096382D01*
X1164217Y1876863D02*
X1274182D01*
Y1931846D01*
X1255854Y1950173D01*
X1182544D01*
X1164217Y1931846D01*
Y1876863D01*
Y2060137D02*
Y1986828D01*
X1219199D01*
X1200872Y2023482D01*
Y2041810D01*
X1219199Y2060137D01*
X1255854D01*
X1274182Y2041810D01*
Y2005155D01*
X1255854Y1986828D01*
X1253117Y1254563D02*
X1363082D01*
Y1309546D01*
X1344754Y1327873D01*
X1271444D01*
X1253117Y1309546D01*
Y1254563D01*
X1363082Y1419510D02*
X1253117D01*
X1308099Y1364528D01*
Y1437837D01*
X948317Y1025963D02*
X1058282D01*
Y1080946D01*
X1039954Y1099273D01*
X966644D01*
X948317Y1080946D01*
Y1025963D01*
X966644Y1135928D02*
X948317Y1154255D01*
Y1190910D01*
X966644Y1209237D01*
X984972D01*
X1003299Y1190910D01*
Y1172582D01*
Y1190910D01*
X1021627Y1209237D01*
X1039954D01*
X1058282Y1190910D01*
Y1154255D01*
X1039954Y1135928D01*
X3344877Y3607616D02*
X3328216Y3590955D01*
Y3557632D01*
X3344877Y3540971D01*
X3411523D01*
X3428184Y3557632D01*
Y3590955D01*
X3411523Y3607616D01*
X3428184Y3690923D02*
X3328216D01*
X3378200Y3640939D01*
Y3707584D01*
X3428184Y3740907D02*
Y3774229D01*
Y3757568D01*
X3328216D01*
X3344877Y3740907D01*
X4022754Y4046523D02*
X4006093Y4063184D01*
X3972771D01*
X3956109Y4046523D01*
Y3979877D01*
X3972771Y3963216D01*
X4006093D01*
X4022754Y3979877D01*
X4056077Y4046523D02*
X4072739Y4063184D01*
X4106061D01*
X4122722Y4046523D01*
Y4029861D01*
X4106061Y4013200D01*
X4089400D01*
X4106061D01*
X4122722Y3996539D01*
Y3979877D01*
X4106061Y3963216D01*
X4072739D01*
X4056077Y3979877D01*
X4222690Y4063184D02*
X4156045D01*
Y4013200D01*
X4189368Y4029861D01*
X4206029D01*
X4222690Y4013200D01*
Y3979877D01*
X4206029Y3963216D01*
X4172706D01*
X4156045Y3979877D01*
X1202693Y1159975D02*
X1184365Y1178302D01*
X1147710D01*
X1129383Y1159975D01*
Y1086665D01*
X1147710Y1068338D01*
X1184365D01*
X1202693Y1086665D01*
X1312657Y1178302D02*
X1276002Y1159975D01*
X1239347Y1123320D01*
Y1086665D01*
X1257675Y1068338D01*
X1294330D01*
X1312657Y1086665D01*
Y1104993D01*
X1294330Y1123320D01*
X1239347D01*
X4319444Y4833073D02*
X4301117Y4814746D01*
Y4778091D01*
X4319444Y4759763D01*
X4392754D01*
X4411082Y4778091D01*
Y4814746D01*
X4392754Y4833073D01*
X4319444Y4869728D02*
X4301117Y4888055D01*
Y4924710D01*
X4319444Y4943037D01*
X4337772D01*
X4356099Y4924710D01*
Y4906382D01*
Y4924710D01*
X4374427Y4943037D01*
X4392754D01*
X4411082Y4924710D01*
Y4888055D01*
X4392754Y4869728D01*
X4040044Y5061673D02*
X4021717Y5043346D01*
Y5006691D01*
X4040044Y4988363D01*
X4113354D01*
X4131682Y5006691D01*
Y5043346D01*
X4113354Y5061673D01*
X4131682Y5171637D02*
Y5098328D01*
X4058372Y5171637D01*
X4040044D01*
X4021717Y5153310D01*
Y5116655D01*
X4040044Y5098328D01*
X3252645Y5156200D02*
X3234317Y5137873D01*
Y5101218D01*
X3252645Y5082891D01*
X3325954D01*
X3344282Y5101218D01*
Y5137873D01*
X3325954Y5156200D01*
X3344282Y5192855D02*
Y5229510D01*
Y5211182D01*
X3234317D01*
X3252645Y5192855D01*
D77*
X2486100Y2063600D02*
Y2101100D01*
Y2063600D02*
X2523600D01*
X2486100Y2651100D02*
Y2688600D01*
X2523600D01*
X3111100Y2063600D02*
Y2101100D01*
X3073600Y2063600D02*
X3111100D01*
Y2651100D02*
Y2688600D01*
X3073600D02*
X3111100D01*
D78*
X2946449Y5130775D02*
Y5079992D01*
X2971841Y5054600D01*
X3073408D01*
X3098800Y5079992D01*
Y5130775D01*
X3073408Y5156167D01*
X2971841D01*
X2946449Y5130775D01*
Y5308518D02*
Y5206951D01*
X3022625D01*
Y5257734D01*
Y5206951D01*
X3098800D01*
X2946449Y5460869D02*
Y5359301D01*
X3022625D01*
Y5410085D01*
Y5359301D01*
X3098800D01*
X711249Y5194275D02*
Y5143492D01*
X736641Y5118100D01*
X838208D01*
X863600Y5143492D01*
Y5194275D01*
X838208Y5219667D01*
X736641D01*
X711249Y5194275D01*
X863600Y5270451D02*
X711249D01*
X863600Y5372018D01*
X711249D01*
%TF.MD5,b1a67f83195721356ce9ad0b3ca1d2b8*%
M02*
