%TF.GenerationSoftware,Altium Limited,Altium Designer,26.2.0 (7)*%
G04 Layer_Physical_Order=3*
G04 Layer_Color=128*
%FSLAX45Y45*%
%MOMM*%
%TF.SameCoordinates,967EC996-BA40-4DDD-8038-9AD993A35BAC*%
%TF.FilePolarity,Negative*%
%TF.FileFunction,Copper,L3,Inr,Plane*%
%TF.Part,Single*%
G01*
G75*
%TA.AperFunction,NonConductor*%
%ADD61C,1.01600*%
%TA.AperFunction,ComponentPad*%
%ADD62C,2.21600*%
%ADD63C,2.86600*%
%ADD64C,1.76600*%
%ADD65C,2.11600*%
%TA.AperFunction,ViaPad*%
%ADD66C,4.21600*%
%ADD67C,1.31600*%
%ADD68C,1.41600*%
%ADD69C,1.51600*%
%ADD70C,1.81600*%
D61*
X0Y0D02*
X4902200D01*
X4902199Y5702300D02*
X4902200Y0D01*
X-1Y5702300D02*
X4902199D01*
X-1D02*
X0Y0D01*
D62*
X635000Y4445000D02*
D03*
D63*
X1917700Y5283200D02*
D03*
X2387700D02*
D03*
X1447700D02*
D03*
D64*
X1638300Y4606900D02*
D03*
D65*
X723900Y1816100D02*
D03*
Y3086100D02*
D03*
Y2324100D02*
D03*
Y1562100D02*
D03*
Y1308100D02*
D03*
Y2578100D02*
D03*
Y2070100D02*
D03*
Y3340100D02*
D03*
Y2832100D02*
D03*
D66*
X4546600Y355600D02*
D03*
X350000Y5350000D02*
D03*
X4550000D02*
D03*
X350000Y350000D02*
D03*
D67*
X3262861Y2288080D02*
D03*
X3205440Y2677831D02*
D03*
X3216246Y2470088D02*
D03*
X2667000Y2908300D02*
D03*
X1765300Y1549400D02*
D03*
X1752600Y1079500D02*
D03*
X3175000Y5486400D02*
D03*
X2463800Y2794000D02*
D03*
X3067341Y2794111D02*
D03*
X3277684Y2208716D02*
D03*
X3388209Y2298220D02*
D03*
X3478781Y3134748D02*
D03*
X3543300Y2971800D02*
D03*
X3289300Y3060700D02*
D03*
X2362200Y2387600D02*
D03*
D68*
X1790700Y2082800D02*
D03*
X3124200Y1968500D02*
D03*
X2717800Y1943100D02*
D03*
D69*
X3492500Y3632200D02*
D03*
X1905000Y3708400D02*
D03*
X3721100Y4089400D02*
D03*
X2387600Y2578100D02*
D03*
X2057400Y2933700D02*
D03*
X3721100Y3454400D02*
D03*
X3441700Y4749800D02*
D03*
X4089400Y4445000D02*
D03*
D70*
Y4864100D02*
D03*
%TF.MD5,cd61c686aad137819244e081d37f8e6b*%
M02*
